{"glyphs":{"0":{"ha":1058,"x_min":0,"x_max":1058,"o":"m 532 -26 l 532 -26 q 310 40 408 -26 q 156 247 213 107 q 100 606 100 388 l 100 606 q 115 804 100 715 q 158 963 131 893 q 224 1085 185 1033 q 310 1169 263 1136 q 415 1219 358 1203 q 532 1236 471 1236 l 532 1236 q 750 1169 654 1236 q 902 963 846 1103 q 958 606 958 824 l 958 606 q 944 407 958 496 q 902 248 929 318 q 837 126 875 178 q 751 40 799 74 q 649 -10 704 7 q 532 -26 593 -26 z m 531 49 l 531 49 q 627 63 582 49 q 710 108 672 78 q 780 185 749 139 q 833 292 811 231 q 865 433 854 354 q 876 606 876 511 l 876 606 q 833 920 876 797 q 711 1103 789 1043 q 531 1163 633 1163 l 531 1163 q 433 1148 479 1163 q 349 1103 388 1133 q 280 1028 311 1074 q 227 919 249 982 q 194 779 206 857 q 183 606 183 701 l 183 606 q 227 292 183 415 q 349 108 271 168 q 531 49 428 49 z m 0 -521 l 0 -507 l 1058 -507 l 1058 -521 l 0 -521 z m 0 0 l 0 28 l 1058 28 l 1058 0 l 0 0 z m 0 694 l 0 701 l 1058 701 l 1058 694 l 0 694 z m 0 1215 l 0 1229 l 1058 1229 l 1058 1215 l 0 1215 z "},"1":{"ha":625,"x_min":0,"x_max":625,"o":"m 336 -19 l 336 -19 q 308 -12 315 -19 q 300 7 300 -6 l 300 7 l 300 1126 q 228 1065 265 1096 q 155 1010 190 1035 q 88 965 119 985 l 88 965 q 61 957 74 957 q 38 972 49 957 l 38 972 q 29 1001 26 992 q 49 1022 32 1011 l 49 1022 q 127 1076 88 1047 q 208 1140 167 1104 q 290 1218 249 1175 l 290 1218 q 303 1228 297 1225 q 317 1234 308 1232 q 339 1236 325 1236 l 339 1236 q 367 1229 360 1236 q 374 1210 374 1222 l 374 1210 l 374 7 q 365 -12 374 -6 q 336 -19 357 -19 z m 0 -521 l 0 -507 l 625 -507 l 625 -521 l 0 -521 z m 0 0 l 0 28 l 625 28 l 625 0 l 0 0 z m 0 694 l 0 701 l 625 701 l 625 694 l 0 694 z m 0 1215 l 0 1229 l 625 1229 l 625 1215 l 0 1215 z "},"2":{"ha":921,"x_min":0,"x_max":921,"o":"m 793 0 l 103 0 q 81 9 90 0 q 72 32 72 18 q 82 56 72 46 l 82 56 l 303 292 q 442 446 381 376 q 549 574 503 515 q 628 681 596 632 q 680 772 660 729 q 710 852 700 814 q 719 928 719 890 l 719 928 q 687 1058 719 1006 q 593 1138 654 1111 q 444 1164 532 1164 l 444 1164 q 285 1131 353 1164 q 160 1043 217 1099 l 160 1043 q 135 1031 147 1032 q 108 1040 124 1029 l 108 1040 q 95 1068 92 1056 q 106 1090 99 1081 l 106 1090 q 189 1163 138 1129 q 308 1216 240 1196 q 450 1236 375 1236 l 450 1236 q 588 1216 525 1236 q 698 1157 651 1196 q 770 1062 744 1118 q 796 932 796 1006 l 796 932 q 786 846 796 889 q 754 756 776 803 q 697 657 732 710 q 613 542 661 604 q 500 407 564 481 q 354 246 436 333 l 354 246 l 190 69 l 793 69 q 810 63 804 69 q 815 38 815 56 l 815 38 q 810 9 815 18 q 793 0 806 0 l 793 0 z m 0 -521 l 0 -507 l 921 -507 l 921 -521 l 0 -521 z m 0 0 l 0 28 l 921 28 l 921 0 l 0 0 z m 0 694 l 0 701 l 921 701 l 921 694 l 0 694 z m 0 1215 l 0 1229 l 921 1229 l 921 1215 l 0 1215 z "},"3":{"ha":921,"x_min":0,"x_max":921,"o":"m 436 -26 l 436 -26 q 288 1 356 -26 q 163 81 219 28 q 65 210 107 133 l 65 210 q 55 240 56 228 q 72 263 54 251 l 72 263 q 99 271 88 272 q 119 256 110 269 l 119 256 q 203 143 157 190 q 308 70 250 96 q 436 44 365 44 l 436 44 q 561 65 506 44 q 656 124 617 86 q 717 219 696 163 q 738 347 738 275 l 738 347 q 698 489 738 428 q 587 585 658 550 q 418 619 515 619 l 418 619 l 332 619 q 314 628 319 619 q 308 656 308 638 l 308 656 q 315 682 308 675 q 332 689 321 689 l 332 689 l 422 689 q 541 710 490 689 q 624 767 592 732 q 672 848 656 803 q 688 940 688 893 l 688 940 q 667 1042 688 1000 q 611 1112 646 1085 q 531 1152 576 1139 q 438 1165 486 1165 l 438 1165 q 329 1149 379 1165 q 237 1106 279 1133 q 158 1040 194 1078 l 158 1040 q 133 1027 146 1028 q 106 1038 121 1026 l 106 1038 q 93 1065 89 1053 q 104 1086 97 1078 l 104 1086 q 187 1160 136 1125 q 303 1215 238 1194 q 438 1236 368 1236 l 438 1236 q 566 1218 507 1236 q 670 1163 625 1200 q 740 1071 715 1126 q 765 940 765 1015 l 765 940 q 753 854 765 897 q 717 773 742 811 q 651 704 692 735 q 557 657 611 674 l 557 657 q 703 590 646 636 q 788 480 760 543 q 817 344 817 417 l 817 344 q 792 192 817 260 q 718 75 767 124 q 599 0 669 26 q 436 -26 528 -26 z m 0 -521 l 0 -507 l 921 -507 l 921 -521 l 0 -521 z m 0 0 l 0 28 l 921 28 l 921 0 l 0 0 z m 0 694 l 0 701 l 921 701 l 921 694 l 0 694 z m 0 1215 l 0 1229 l 921 1229 l 921 1215 l 0 1215 z "},"4":{"ha":938,"x_min":0,"x_max":938,"o":"m 699 -19 l 699 -19 q 670 -12 679 -19 q 661 7 661 -6 l 661 7 l 661 331 l 94 331 q 66 342 76 331 q 63 374 56 354 l 63 374 l 446 1208 q 462 1230 453 1224 q 493 1236 471 1236 l 493 1236 q 514 1232 506 1236 q 525 1219 522 1228 q 521 1196 528 1210 l 521 1196 l 151 400 l 661 400 l 661 828 q 699 854 661 854 l 699 854 q 728 848 719 854 q 736 828 736 842 l 736 828 l 736 400 l 869 400 q 890 393 883 400 q 896 367 896 386 l 896 367 q 890 339 896 347 q 869 331 885 331 l 869 331 l 736 331 l 736 7 q 699 -19 736 -19 z m 0 -521 l 0 -507 l 938 -507 l 938 -521 l 0 -521 z m 0 0 l 0 28 l 938 28 l 938 0 l 0 0 z m 0 694 l 0 701 l 938 701 l 938 694 l 0 694 z m 0 1215 l 0 1229 l 938 1229 l 938 1215 l 0 1215 z "},"5":{"ha":921,"x_min":0,"x_max":921,"o":"m 460 -26 l 460 -26 q 350 -11 401 -26 q 253 33 299 4 q 169 104 208 63 q 100 199 131 146 l 100 199 q 90 225 90 213 q 106 249 89 238 l 106 249 q 131 259 119 260 q 153 244 143 258 l 153 244 q 236 139 192 183 q 337 69 281 94 q 463 44 393 44 l 463 44 q 585 67 532 44 q 676 133 639 89 q 731 239 713 176 q 750 381 750 301 l 750 381 q 732 506 750 449 q 678 604 714 563 q 590 669 643 646 q 469 692 538 692 l 469 692 q 376 678 424 692 q 288 638 329 664 q 217 569 247 611 l 217 569 q 190 556 204 557 q 165 565 175 556 q 154 583 154 574 l 154 583 l 176 1192 q 184 1209 176 1203 q 206 1215 192 1215 l 206 1215 l 760 1215 q 776 1208 771 1215 q 782 1183 782 1201 l 782 1183 q 777 1155 782 1164 q 760 1146 772 1146 l 760 1146 l 244 1146 l 226 665 q 296 715 257 693 q 381 749 335 738 q 474 761 426 761 l 474 761 q 668 713 589 761 q 789 580 747 665 q 831 381 831 494 l 831 381 q 804 209 831 285 q 728 81 778 133 q 611 1 679 28 q 460 -26 543 -26 z m 0 -521 l 0 -507 l 921 -507 l 921 -521 l 0 -521 z m 0 0 l 0 28 l 921 28 l 921 0 l 0 0 z m 0 694 l 0 701 l 921 701 l 921 694 l 0 694 z m 0 1215 l 0 1229 l 921 1229 l 921 1215 l 0 1215 z "},"6":{"ha":990,"x_min":0,"x_max":990,"o":"m 525 -26 l 525 -26 q 309 38 399 -26 q 174 218 219 103 q 128 486 128 333 l 128 486 q 150 708 128 604 q 218 897 172 811 q 333 1051 264 983 q 497 1163 403 1118 q 711 1231 590 1208 l 711 1231 q 752 1231 742 1236 q 765 1204 763 1226 l 765 1204 q 763 1179 767 1189 q 740 1167 760 1169 l 740 1167 q 535 1102 624 1144 q 384 997 446 1060 q 283 855 322 935 q 226 679 244 775 q 208 474 208 583 l 208 474 q 233 290 208 369 q 301 156 257 210 q 402 74 344 101 q 526 46 460 46 l 526 46 q 650 69 596 46 q 741 138 704 93 q 797 243 778 182 q 817 379 817 304 l 817 379 q 783 537 817 471 q 688 638 749 603 q 546 674 628 674 l 546 674 q 459 660 503 674 q 376 618 415 647 q 302 542 336 589 q 244 429 268 496 q 207 275 219 363 l 207 275 l 169 358 q 228 540 189 465 q 319 659 268 614 q 429 724 371 704 q 546 744 488 744 l 546 744 q 691 719 626 744 q 801 648 756 694 q 872 533 847 601 q 897 381 897 465 l 897 381 q 872 215 897 290 q 797 86 846 140 q 681 3 749 32 q 525 -26 613 -26 z m 0 -521 l 0 -507 l 990 -507 l 990 -521 l 0 -521 z m 0 0 l 0 28 l 990 28 l 990 0 l 0 0 z m 0 694 l 0 701 l 990 701 l 990 694 l 0 694 z m 0 1215 l 0 1229 l 990 1229 l 990 1215 l 0 1215 z "},"7":{"ha":747,"x_min":0,"x_max":747,"o":"m 201 -15 l 201 -15 q 178 0 182 -10 q 181 26 174 10 l 181 26 l 628 1146 l 39 1146 q 23 1153 29 1146 q 17 1181 17 1161 l 17 1181 q 22 1207 17 1199 q 39 1215 28 1215 l 39 1215 l 690 1215 q 713 1203 704 1215 q 715 1175 722 1192 l 715 1175 l 253 14 q 235 -17 244 -10 q 201 -15 225 -24 z m 0 -521 l 0 -507 l 747 -507 l 747 -521 l 0 -521 z m 0 0 l 0 28 l 747 28 l 747 0 l 0 0 z m 0 694 l 0 701 l 747 701 l 747 694 l 0 694 z m 0 1215 l 0 1229 l 747 1229 l 747 1215 l 0 1215 z "},"8":{"ha":921,"x_min":0,"x_max":921,"o":"m 460 -26 l 460 -26 q 299 -3 369 -26 q 179 63 228 21 q 106 166 131 106 q 81 300 81 226 l 81 300 q 99 401 81 351 q 152 497 117 450 q 242 583 188 543 q 368 653 296 622 l 368 653 q 239 736 292 689 q 160 840 186 783 q 133 958 133 896 l 133 958 q 160 1083 133 1029 q 233 1171 186 1136 q 339 1222 279 1206 q 465 1239 399 1239 l 465 1239 q 589 1224 531 1239 q 692 1175 647 1208 q 763 1090 738 1142 q 789 968 789 1039 l 789 968 q 776 884 789 926 q 734 801 763 842 q 662 724 706 760 q 558 661 618 689 l 558 661 q 716 567 653 621 q 810 451 779 514 q 842 315 842 389 l 842 315 q 816 180 842 242 q 742 72 790 118 q 622 -1 693 25 q 460 -26 550 -26 z m 463 44 l 463 44 q 590 65 535 44 q 683 121 646 85 q 741 206 721 157 q 761 315 761 256 l 761 315 q 724 444 761 388 q 619 544 688 501 q 454 621 550 588 l 454 621 q 333 563 388 596 q 240 488 279 529 q 181 401 201 447 q 161 301 161 354 l 161 301 q 181 194 161 242 q 240 114 201 147 q 335 63 279 81 q 463 44 390 44 z m 471 690 l 471 690 q 603 762 550 718 q 684 858 657 806 q 711 967 711 911 l 711 967 q 691 1058 711 1019 q 636 1122 671 1097 q 557 1157 601 1146 q 464 1168 513 1168 l 464 1168 q 369 1156 415 1168 q 288 1117 324 1143 q 232 1052 253 1092 q 211 960 211 1013 l 211 960 q 240 853 211 904 q 327 761 269 803 q 471 690 385 719 z m 0 -521 l 0 -507 l 921 -507 l 921 -521 l 0 -521 z m 0 0 l 0 28 l 921 28 l 921 0 l 0 0 z m 0 694 l 0 701 l 921 701 l 921 694 l 0 694 z m 0 1215 l 0 1229 l 921 1229 l 921 1215 l 0 1215 z "},"9":{"ha":990,"x_min":0,"x_max":990,"o":"m 465 1242 l 465 1242 q 682 1177 593 1242 q 817 997 771 1113 q 863 729 863 882 l 863 729 q 840 508 863 611 q 772 318 818 404 q 657 165 726 232 q 494 52 588 97 q 279 -15 400 7 l 279 -15 q 238 -16 249 -21 q 225 11 228 -11 l 225 11 q 227 36 224 26 q 250 49 231 46 l 250 49 q 456 113 367 71 q 606 218 544 156 q 707 360 668 281 q 764 536 746 440 q 782 742 782 632 l 782 742 q 758 926 782 846 q 690 1060 733 1006 q 588 1142 646 1114 q 464 1169 531 1169 l 464 1169 q 340 1146 394 1169 q 249 1078 286 1122 q 193 972 213 1033 q 174 836 174 911 l 174 836 q 208 679 174 746 q 302 577 242 613 q 444 542 363 542 l 444 542 q 531 555 488 542 q 615 597 575 568 q 688 673 654 626 q 747 786 722 719 q 783 940 771 853 l 783 940 l 821 857 q 762 676 801 750 q 671 556 722 601 q 561 491 619 511 q 444 471 503 471 l 444 471 q 299 496 364 471 q 189 567 235 521 q 118 682 143 614 q 93 835 93 750 l 93 835 q 119 1000 93 925 q 193 1129 144 1075 q 310 1213 242 1183 q 465 1242 378 1242 z m 0 -521 l 0 -507 l 990 -507 l 990 -521 l 0 -521 z m 0 0 l 0 28 l 990 28 l 990 0 l 0 0 z m 0 694 l 0 701 l 990 701 l 990 694 l 0 694 z m 0 1215 l 0 1229 l 990 1229 l 990 1215 l 0 1215 z "},"\r":{"ha":417,"x_min":null,"x_max":null,"o":""}," ":{"ha":417,"x_min":null,"x_max":null,"o":""}," ":{"ha":139,"x_min":null,"x_max":null,"o":""}," ":{"ha":417,"x_min":null,"x_max":null,"o":""},"A":{"ha":1043,"x_min":0,"x_max":1043,"o":"m 69 -18 l 69 -18 q 42 -4 47 -14 q 42 22 36 6 l 42 22 l 475 1204 q 491 1229 481 1222 q 521 1236 501 1236 l 521 1236 q 551 1229 542 1236 q 567 1204 561 1222 l 567 1204 l 1000 22 q 1001 -4 1007 6 q 972 -18 994 -14 l 972 -18 q 944 -15 953 -21 q 926 14 935 -8 l 926 14 l 803 356 l 240 356 l 114 14 q 98 -15 107 -8 q 69 -18 89 -21 z m 521 1124 l 264 425 l 776 425 l 521 1124 z m 0 -521 l 0 -507 l 1043 -507 l 1043 -521 l 0 -521 z m 0 0 l 0 28 l 1043 28 l 1043 0 l 0 0 z m 0 694 l 0 701 l 1043 701 l 1043 694 l 0 694 z m 0 1215 l 0 1229 l 1043 1229 l 1043 1215 l 0 1215 z "},"B":{"ha":1007,"x_min":0,"x_max":1007,"o":"m 481 0 l 235 0 q 197 26 197 0 l 197 26 l 197 1189 q 236 1215 197 1215 l 236 1215 l 522 1215 q 720 1190 639 1215 q 844 1108 801 1164 q 886 957 886 1051 l 886 957 q 859 834 886 888 q 789 742 832 781 q 697 681 746 704 q 604 650 649 658 l 604 650 l 604 644 q 729 628 669 643 q 836 581 789 613 q 910 499 883 550 q 938 376 938 449 l 938 376 q 917 251 938 310 q 856 147 896 193 q 760 68 817 101 q 634 17 704 35 q 481 0 564 0 l 481 0 z m 272 608 l 272 69 l 481 69 q 640 92 571 69 q 758 157 710 115 q 833 254 807 199 q 858 375 858 310 l 858 375 q 833 483 858 439 q 761 556 807 528 q 651 596 715 583 q 510 608 588 608 l 510 608 l 272 608 z m 272 1146 l 272 678 l 485 678 q 609 697 550 678 q 713 752 668 715 q 782 841 757 789 q 807 957 807 893 l 807 957 q 774 1069 807 1028 q 677 1128 740 1110 q 522 1146 614 1146 l 522 1146 l 272 1146 z m 0 -521 l 0 -507 l 1007 -507 l 1007 -521 l 0 -521 z m 0 0 l 0 28 l 1007 28 l 1007 0 l 0 0 z m 0 694 l 0 701 l 1007 701 l 1007 694 l 0 694 z m 0 1215 l 0 1229 l 1007 1229 l 1007 1215 l 0 1215 z "},"C":{"ha":1076,"x_min":0,"x_max":1076,"o":"m 603 -26 l 603 -26 q 410 17 499 -26 q 258 141 322 60 q 160 337 194 222 q 125 593 125 451 l 125 593 q 142 772 125 688 q 191 928 158 857 q 269 1056 224 999 q 374 1153 315 1114 q 501 1215 432 1193 q 646 1236 569 1236 l 646 1236 q 768 1222 710 1236 q 878 1176 826 1207 q 971 1090 931 1144 l 971 1090 q 980 1067 982 1076 q 965 1047 978 1058 l 965 1047 q 942 1037 953 1038 q 918 1049 931 1036 l 918 1049 q 840 1113 883 1088 q 749 1150 797 1138 q 644 1163 700 1163 l 644 1163 q 524 1144 581 1163 q 417 1092 467 1126 q 329 1007 368 1057 q 263 894 290 957 q 220 755 235 831 q 206 593 206 679 l 206 593 q 235 363 206 464 q 319 191 265 261 q 445 85 372 121 q 603 49 518 49 l 603 49 q 715 67 664 49 q 809 118 767 86 q 887 190 851 150 q 950 272 922 231 l 950 272 q 971 288 960 286 q 996 279 982 289 l 996 279 q 1013 258 1013 268 q 1006 235 1014 249 l 1006 235 q 900 101 960 161 q 766 8 840 42 q 603 -26 692 -26 z m 0 -521 l 0 -507 l 1076 -507 l 1076 -521 l 0 -521 z m 0 0 l 0 28 l 1076 28 l 1076 0 l 0 0 z m 0 694 l 0 701 l 1076 701 l 1076 694 l 0 694 z m 0 1215 l 0 1229 l 1076 1229 l 1076 1215 l 0 1215 z "},"D":{"ha":1207,"x_min":0,"x_max":1207,"o":"m 410 0 l 235 0 q 197 26 197 0 l 197 26 l 197 1189 q 207 1209 197 1203 q 236 1215 217 1215 l 236 1215 l 486 1215 q 726 1181 617 1215 q 915 1077 835 1146 q 1038 907 994 1008 q 1082 671 1082 806 l 1082 671 q 1057 459 1082 560 q 979 274 1032 358 q 846 129 926 190 q 657 34 765 68 q 410 0 549 0 l 410 0 z m 274 1143 l 274 72 l 408 72 q 626 101 531 72 q 793 185 722 131 q 910 314 864 239 q 978 479 956 389 q 1001 671 1001 569 l 1001 671 q 962 883 1001 793 q 852 1030 922 972 q 688 1115 782 1088 q 486 1143 594 1143 l 486 1143 l 274 1143 z m 0 -521 l 0 -507 l 1207 -507 l 1207 -521 l 0 -521 z m 0 0 l 0 28 l 1207 28 l 1207 0 l 0 0 z m 0 694 l 0 701 l 1207 701 l 1207 694 l 0 694 z m 0 1215 l 0 1229 l 1207 1229 l 1207 1215 l 0 1215 z "},"E":{"ha":921,"x_min":0,"x_max":921,"o":"m 833 0 l 235 0 q 206 8 215 0 q 197 32 197 15 l 197 32 l 197 1189 q 207 1209 197 1203 q 236 1215 217 1215 l 236 1215 l 833 1215 q 851 1208 844 1215 q 857 1181 857 1200 l 857 1181 q 851 1153 857 1161 q 833 1146 844 1146 l 833 1146 l 272 1146 l 272 678 l 747 678 q 764 670 758 678 q 769 643 769 663 l 769 643 q 764 616 769 624 q 747 608 758 608 l 747 608 l 272 608 l 272 69 l 833 69 q 851 62 844 69 q 857 35 857 54 l 857 35 q 851 8 857 15 q 833 0 844 0 l 833 0 z m 0 -521 l 0 -507 l 921 -507 l 921 -521 l 0 -521 z m 0 0 l 0 28 l 921 28 l 921 0 l 0 0 z m 0 694 l 0 701 l 921 701 l 921 694 l 0 694 z m 0 1215 l 0 1229 l 921 1229 l 921 1215 l 0 1215 z "},"F":{"ha":868,"x_min":0,"x_max":868,"o":"m 235 -19 l 235 -19 q 197 7 197 -19 l 197 7 l 197 1189 q 207 1209 197 1203 q 236 1215 217 1215 l 236 1215 l 817 1215 q 833 1208 828 1215 q 839 1181 839 1200 l 839 1181 q 833 1153 839 1161 q 817 1146 828 1146 l 817 1146 l 272 1146 l 272 643 l 729 643 q 747 635 740 643 q 753 608 753 628 l 753 608 q 747 581 753 589 q 729 574 740 574 l 729 574 l 272 574 l 272 7 q 264 -13 272 -7 q 235 -19 256 -19 z m 0 -521 l 0 -507 l 868 -507 l 868 -521 l 0 -521 z m 0 0 l 0 28 l 868 28 l 868 0 l 0 0 z m 0 694 l 0 701 l 868 701 l 868 694 l 0 694 z m 0 1215 l 0 1229 l 868 1229 l 868 1215 l 0 1215 z "},"H":{"ha":1233,"x_min":0,"x_max":1233,"o":"m 235 -19 l 235 -19 q 197 7 197 -19 l 197 7 l 197 1210 q 206 1230 197 1224 q 235 1236 215 1236 l 235 1236 q 272 1210 272 1236 l 272 1210 l 272 672 l 961 672 l 961 1210 q 970 1230 961 1224 q 999 1236 979 1236 l 999 1236 q 1036 1210 1036 1236 l 1036 1210 l 1036 7 q 1028 -12 1036 -6 q 999 -19 1019 -19 l 999 -19 q 961 7 961 -19 l 961 7 l 961 603 l 272 603 l 272 7 q 264 -12 272 -6 q 235 -19 256 -19 z m 0 -521 l 0 -507 l 1233 -507 l 1233 -521 l 0 -521 z m 0 0 l 0 28 l 1233 28 l 1233 0 l 0 0 z m 0 694 l 0 701 l 1233 701 l 1233 694 l 0 694 z m 0 1215 l 0 1229 l 1233 1229 l 1233 1215 l 0 1215 z "},"I":{"ha":469,"x_min":0,"x_max":469,"o":"m 235 -19 l 235 -19 q 206 -12 215 -19 q 197 7 197 -6 l 197 7 l 197 1210 q 206 1230 197 1224 q 235 1236 215 1236 l 235 1236 q 263 1230 253 1236 q 272 1210 272 1224 l 272 1210 l 272 7 q 264 -12 272 -6 q 235 -19 256 -19 z m 0 -521 l 0 -507 l 469 -507 l 469 -521 l 0 -521 z m 0 0 l 0 28 l 469 28 l 469 0 l 0 0 z m 0 694 l 0 701 l 469 701 l 469 694 l 0 694 z m 0 1215 l 0 1229 l 469 1229 l 469 1215 l 0 1215 z "},"J":{"ha":903,"x_min":0,"x_max":903,"o":"m 421 -26 l 421 -26 q 273 1 342 -26 q 154 83 204 29 q 78 214 104 138 l 78 214 q 78 241 72 233 q 99 253 85 249 l 99 253 q 125 256 114 258 q 143 233 136 253 l 143 233 q 206 132 168 174 q 296 69 243 90 q 421 49 349 49 l 421 49 q 504 60 467 49 q 570 96 542 71 q 618 159 599 121 q 647 251 638 197 q 656 376 656 306 l 656 376 l 656 1210 q 665 1230 656 1224 q 694 1236 675 1236 l 694 1236 q 724 1230 715 1236 q 732 1210 732 1224 l 732 1210 l 732 379 q 719 229 732 294 q 680 116 706 164 q 616 36 654 68 q 529 -11 578 4 q 421 -26 481 -26 z m 0 -521 l 0 -507 l 903 -507 l 903 -521 l 0 -521 z m 0 0 l 0 28 l 903 28 l 903 0 l 0 0 z m 0 694 l 0 701 l 903 701 l 903 694 l 0 694 z m 0 1215 l 0 1229 l 903 1229 l 903 1215 l 0 1215 z "},"K":{"ha":956,"x_min":0,"x_max":956,"o":"m 235 -19 l 235 -19 q 206 -13 215 -19 q 197 7 197 -7 l 197 7 l 197 1210 q 235 1236 197 1236 l 235 1236 q 272 1210 272 1236 l 272 1210 l 272 669 l 853 1226 q 876 1238 865 1239 q 899 1222 886 1236 l 899 1222 q 913 1199 913 1208 q 903 1179 913 1190 l 903 1179 l 343 643 q 528 426 432 535 q 724 219 624 318 q 922 38 824 121 l 922 38 q 935 17 935 29 q 919 -11 935 6 l 919 -11 q 894 -23 907 -24 q 869 -11 882 -22 l 869 -11 q 711 130 792 53 q 553 290 631 207 q 405 456 476 372 q 272 617 333 539 l 272 617 l 272 7 q 264 -13 272 -7 q 235 -19 256 -19 z m 0 -521 l 0 -507 l 956 -507 l 956 -521 l 0 -521 z m 0 0 l 0 28 l 956 28 l 956 0 l 0 0 z m 0 694 l 0 701 l 956 701 l 956 694 l 0 694 z m 0 1215 l 0 1229 l 956 1229 l 956 1215 l 0 1215 z "},"L":{"ha":868,"x_min":0,"x_max":868,"o":"m 811 0 l 235 0 q 197 32 197 0 l 197 32 l 197 1210 q 206 1230 197 1224 q 235 1236 215 1236 l 235 1236 q 264 1230 256 1236 q 272 1210 272 1224 l 272 1210 l 272 69 l 811 69 q 828 62 822 69 q 833 35 833 54 l 833 35 q 828 8 833 15 q 811 0 822 0 l 811 0 z m 0 -521 l 0 -507 l 868 -507 l 868 -521 l 0 -521 z m 0 0 l 0 28 l 868 28 l 868 0 l 0 0 z m 0 694 l 0 701 l 868 701 l 868 694 l 0 694 z m 0 1215 l 0 1229 l 868 1229 l 868 1215 l 0 1215 z "},"N":{"ha":1233,"x_min":0,"x_max":1233,"o":"m 235 -19 l 235 -19 q 197 7 197 -19 l 197 7 l 197 1210 q 206 1230 197 1224 q 233 1236 215 1236 l 233 1236 q 259 1231 250 1236 q 276 1214 268 1226 l 276 1214 l 961 139 l 961 1210 q 970 1230 961 1224 q 999 1236 979 1236 l 999 1236 q 1036 1210 1036 1236 l 1036 1210 l 1036 7 q 1026 -13 1036 -7 q 1000 -19 1017 -19 l 1000 -19 q 976 -15 985 -19 q 960 3 968 -10 l 960 3 l 272 1085 l 272 7 q 264 -13 272 -7 q 235 -19 256 -19 z m 0 -521 l 0 -507 l 1233 -507 l 1233 -521 l 0 -521 z m 0 0 l 0 28 l 1233 28 l 1233 0 l 0 0 z m 0 694 l 0 701 l 1233 701 l 1233 694 l 0 694 z m 0 1215 l 0 1229 l 1233 1229 l 1233 1215 l 0 1215 z "},"O":{"ha":1285,"x_min":0,"x_max":1285,"o":"m 644 -26 l 644 -26 q 434 19 529 -26 q 269 147 339 64 q 163 347 200 231 q 125 606 125 464 l 125 606 q 142 783 125 700 q 190 937 158 867 q 269 1063 222 1007 q 373 1157 315 1118 q 499 1216 431 1196 q 644 1236 568 1236 l 644 1236 q 853 1191 758 1236 q 1016 1063 947 1146 q 1122 863 1085 979 q 1160 606 1160 747 l 1160 606 q 1143 428 1160 511 q 1094 274 1126 344 q 1017 147 1063 203 q 913 53 971 92 q 788 -6 856 15 q 644 -26 721 -26 z m 644 49 l 644 49 q 764 65 707 49 q 869 116 821 82 q 956 198 918 150 q 1022 308 994 246 q 1065 444 1050 369 q 1079 606 1079 519 l 1079 606 q 1047 838 1079 735 q 956 1013 1015 940 q 818 1124 897 1086 q 644 1163 739 1163 l 644 1163 q 524 1145 581 1163 q 417 1094 467 1128 q 330 1013 368 1061 q 263 903 292 965 q 220 767 235 842 q 206 606 206 692 l 206 606 q 238 374 206 476 q 330 198 271 271 q 469 87 389 125 q 644 49 549 49 z m 0 -521 l 0 -507 l 1285 -507 l 1285 -521 l 0 -521 z m 0 0 l 0 28 l 1285 28 l 1285 0 l 0 0 z m 0 694 l 0 701 l 1285 701 l 1285 694 l 0 694 z m 0 1215 l 0 1229 l 1285 1229 l 1285 1215 l 0 1215 z "},"P":{"ha":972,"x_min":0,"x_max":972,"o":"m 235 -19 l 235 -19 q 197 7 197 -19 l 197 7 l 197 1189 q 207 1209 197 1203 q 236 1215 217 1215 l 236 1215 l 500 1215 q 725 1185 635 1215 q 862 1088 815 1154 q 908 911 908 1021 l 908 911 q 874 748 908 817 q 780 631 840 679 q 639 556 719 583 q 465 515 558 528 l 465 515 q 367 506 417 510 q 272 501 317 503 l 272 501 l 272 7 q 264 -13 272 -7 q 235 -19 256 -19 z m 272 1146 l 272 569 q 335 573 304 571 q 400 578 367 575 q 465 585 433 582 l 465 585 q 653 635 571 597 q 783 742 735 674 q 831 910 831 810 l 831 910 q 793 1047 831 996 q 683 1122 756 1099 q 500 1146 610 1146 l 500 1146 l 272 1146 z m 0 -521 l 0 -507 l 972 -507 l 972 -521 l 0 -521 z m 0 0 l 0 28 l 972 28 l 972 0 l 0 0 z m 0 694 l 0 701 l 972 701 l 972 694 l 0 694 z m 0 1215 l 0 1229 l 972 1229 l 972 1215 l 0 1215 z "},"Q":{"ha":1285,"x_min":0,"x_max":1285,"o":"m 972 -225 l 972 -225 q 945 -235 957 -236 q 924 -224 933 -235 l 924 -224 l 635 183 q 629 208 626 197 q 646 231 632 218 l 646 231 q 672 241 660 242 q 693 226 683 240 l 693 226 l 981 -181 q 987 -203 989 -193 q 972 -225 985 -214 z m 644 -26 l 644 -26 q 434 19 529 -26 q 269 147 339 64 q 163 347 200 231 q 125 606 125 464 l 125 606 q 142 783 125 700 q 190 937 158 867 q 269 1063 222 1007 q 373 1157 315 1118 q 499 1216 431 1196 q 644 1236 568 1236 l 644 1236 q 853 1191 758 1236 q 1016 1063 947 1146 q 1122 863 1085 979 q 1160 606 1160 747 l 1160 606 q 1143 428 1160 511 q 1094 274 1126 344 q 1017 147 1063 203 q 913 53 971 92 q 788 -6 856 15 q 644 -26 721 -26 z m 644 49 l 644 49 q 764 65 707 49 q 869 116 821 82 q 956 198 918 150 q 1022 308 994 246 q 1065 444 1050 369 q 1079 606 1079 519 l 1079 606 q 1047 838 1079 735 q 956 1013 1015 940 q 818 1124 897 1086 q 644 1163 739 1163 l 644 1163 q 524 1145 581 1163 q 417 1094 467 1128 q 330 1013 368 1061 q 263 903 292 965 q 220 767 235 842 q 206 606 206 692 l 206 606 q 238 374 206 476 q 330 198 271 271 q 469 87 389 125 q 644 49 549 49 z m 0 -521 l 0 -507 l 1285 -507 l 1285 -521 l 0 -521 z m 0 0 l 0 28 l 1285 28 l 1285 0 l 0 0 z m 0 694 l 0 701 l 1285 701 l 1285 694 l 0 694 z m 0 1215 l 0 1229 l 1285 1229 l 1285 1215 l 0 1215 z "},"R":{"ha":964,"x_min":0,"x_max":964,"o":"m 235 -19 l 235 -19 q 206 -13 215 -19 q 197 7 197 -7 l 197 7 l 197 1189 q 207 1209 197 1203 q 236 1215 217 1215 l 236 1215 l 464 1215 q 690 1187 600 1215 q 824 1097 779 1158 q 868 936 868 1036 l 868 936 q 849 819 868 871 q 792 727 829 767 q 708 658 756 688 q 603 609 660 629 q 483 578 546 589 q 357 561 421 567 l 357 561 q 527 381 438 471 q 711 206 617 292 q 904 38 806 119 l 904 38 q 916 17 915 29 q 900 -11 917 6 l 900 -11 q 876 -23 888 -24 q 851 -11 864 -22 l 851 -11 q 646 169 747 75 q 451 359 544 263 q 272 550 357 456 l 272 550 l 272 7 q 264 -13 272 -7 q 235 -19 256 -19 z m 272 1146 l 272 621 q 381 628 328 622 q 485 644 435 633 q 582 673 536 656 q 666 715 628 690 q 732 771 704 739 q 775 844 760 803 q 790 936 790 885 l 790 936 q 755 1056 790 1010 q 649 1124 719 1103 q 471 1146 578 1146 l 471 1146 l 272 1146 z m 0 -521 l 0 -507 l 964 -507 l 964 -521 l 0 -521 z m 0 0 l 0 28 l 964 28 l 964 0 l 0 0 z m 0 694 l 0 701 l 964 701 l 964 694 l 0 694 z m 0 1215 l 0 1229 l 964 1229 l 964 1215 l 0 1215 z "},"S":{"ha":956,"x_min":0,"x_max":956,"o":"m 475 -26 l 475 -26 q 368 -16 419 -26 q 270 15 317 -6 q 185 64 224 35 q 117 129 146 93 l 117 129 q 105 153 104 143 q 119 176 106 164 l 119 176 q 142 188 132 189 q 168 171 151 188 l 168 171 q 249 108 203 136 q 351 65 294 81 q 475 49 408 49 l 475 49 q 598 66 543 49 q 691 117 653 83 q 749 199 729 150 q 769 310 769 247 l 769 310 q 747 415 769 372 q 683 489 724 458 q 590 543 642 519 q 479 589 538 567 l 479 589 q 385 631 432 610 q 297 678 339 651 q 224 742 256 706 q 174 828 192 779 q 156 943 156 876 l 156 943 q 182 1067 156 1013 q 254 1159 208 1121 q 362 1217 300 1197 q 493 1236 424 1236 l 493 1236 q 626 1217 567 1236 q 732 1166 685 1199 q 817 1093 779 1133 l 817 1093 q 827 1072 826 1082 q 814 1049 828 1061 l 814 1049 q 791 1037 803 1038 q 767 1046 779 1036 l 767 1046 q 692 1108 731 1082 q 604 1149 653 1135 q 493 1163 556 1163 l 493 1163 q 385 1147 432 1163 q 304 1102 338 1131 q 253 1033 271 1074 q 236 942 236 992 l 236 942 q 257 835 236 878 q 315 762 278 792 q 401 709 353 732 q 504 665 450 686 l 504 665 q 626 613 565 640 q 738 548 688 586 q 819 453 789 510 q 850 311 850 396 l 850 311 q 824 173 850 235 q 747 67 797 111 q 628 -2 697 22 q 475 -26 560 -26 z m 0 -521 l 0 -507 l 956 -507 l 956 -521 l 0 -521 z m 0 0 l 0 28 l 956 28 l 956 0 l 0 0 z m 0 694 l 0 701 l 956 701 l 956 694 l 0 694 z m 0 1215 l 0 1229 l 956 1229 l 956 1215 l 0 1215 z "},"T":{"ha":960,"x_min":0,"x_max":960,"o":"m 479 -19 l 479 -19 q 442 7 442 -19 l 442 7 l 442 1146 l 56 1146 q 40 1153 46 1146 q 33 1181 33 1161 l 33 1181 q 40 1208 33 1200 q 56 1215 46 1215 l 56 1215 l 903 1215 q 920 1208 914 1215 q 926 1182 926 1201 l 926 1182 q 920 1154 926 1163 q 903 1146 914 1146 l 903 1146 l 517 1146 l 517 7 q 508 -13 517 -7 q 479 -19 500 -19 z m 0 -521 l 0 -507 l 960 -507 l 960 -521 l 0 -521 z m 0 0 l 0 28 l 960 28 l 960 0 l 0 0 z m 0 694 l 0 701 l 960 701 l 960 694 l 0 694 z m 0 1215 l 0 1229 l 960 1229 l 960 1215 l 0 1215 z "},"V":{"ha":1007,"x_min":0,"x_max":1007,"o":"m 503 -19 l 503 -19 q 474 -12 483 -19 q 457 13 464 -6 l 457 13 l 39 1194 q 38 1217 33 1208 q 63 1233 43 1226 l 63 1233 q 92 1236 82 1240 q 108 1214 103 1232 l 108 1214 l 504 94 l 899 1214 q 916 1236 906 1232 q 944 1233 926 1240 l 944 1233 q 969 1217 964 1226 q 968 1194 974 1208 l 968 1194 l 550 13 q 533 -12 543 -6 q 503 -19 524 -19 z m 0 -521 l 0 -507 l 1007 -507 l 1007 -521 l 0 -521 z m 0 0 l 0 28 l 1007 28 l 1007 0 l 0 0 z m 0 694 l 0 701 l 1007 701 l 1007 694 l 0 694 z m 0 1215 l 0 1229 l 1007 1229 l 1007 1215 l 0 1215 z "},"W":{"ha":1667,"x_min":0,"x_max":1667,"o":"m 429 -19 l 429 -19 q 399 -12 410 -19 q 385 13 389 -4 l 385 13 l 38 1194 q 39 1218 33 1208 q 63 1233 44 1228 l 63 1233 q 92 1235 81 1239 q 108 1213 103 1232 l 108 1213 l 431 103 l 790 1206 q 804 1229 796 1222 q 832 1236 813 1236 l 832 1236 q 863 1229 854 1236 q 876 1206 872 1222 l 876 1206 l 1233 103 l 1560 1214 q 1577 1235 1567 1232 q 1606 1233 1588 1239 l 1606 1233 q 1629 1218 1625 1228 q 1629 1194 1633 1208 l 1629 1194 l 1279 13 q 1264 -12 1274 -4 q 1233 -19 1254 -19 l 1233 -19 q 1203 -12 1213 -19 q 1188 13 1194 -4 l 1188 13 l 833 1115 l 475 13 q 460 -12 471 -4 q 429 -19 450 -19 z m 0 -521 l 0 -507 l 1667 -507 l 1667 -521 l 0 -521 z m 0 0 l 0 28 l 1667 28 l 1667 0 l 0 0 z m 0 694 l 0 701 l 1667 701 l 1667 694 l 0 694 z m 0 1215 l 0 1229 l 1667 1229 l 1667 1215 l 0 1215 z "},"X":{"ha":956,"x_min":0,"x_max":956,"o":"m 871 -11 l 871 -11 q 843 -19 856 -19 q 822 -6 831 -19 l 822 -6 l 478 556 l 131 -6 q 111 -19 122 -18 q 83 -11 100 -19 l 83 -11 q 69 3 74 -3 q 67 17 65 10 q 72 31 68 24 l 72 31 l 436 624 l 90 1186 q 85 1208 82 1199 q 104 1229 89 1218 l 104 1229 q 132 1238 121 1239 q 153 1222 143 1238 l 153 1222 l 485 683 l 815 1222 q 835 1238 825 1236 q 860 1229 844 1239 l 860 1229 q 875 1215 871 1222 q 878 1201 879 1208 q 874 1186 878 1194 l 874 1186 l 525 618 l 885 31 q 889 9 892 19 q 871 -11 886 -1 z m 0 -521 l 0 -507 l 956 -507 l 956 -521 l 0 -521 z m 0 0 l 0 28 l 956 28 l 956 0 l 0 0 z m 0 694 l 0 701 l 956 701 l 956 694 l 0 694 z m 0 1215 l 0 1229 l 956 1229 l 956 1215 l 0 1215 z "},"Y":{"ha":851,"x_min":0,"x_max":851,"o":"m 419 -19 l 419 -19 q 382 7 382 -19 l 382 7 l 382 526 l 21 1190 q 19 1213 14 1204 q 40 1231 24 1222 l 40 1231 q 69 1236 60 1239 q 88 1214 78 1233 l 88 1214 l 419 600 l 763 1214 q 784 1236 774 1233 q 810 1231 794 1239 l 810 1231 q 833 1213 829 1222 q 831 1190 836 1204 l 831 1190 l 457 528 l 457 7 q 419 -19 457 -19 z m 0 -521 l 0 -507 l 851 -507 l 851 -521 l 0 -521 z m 0 0 l 0 28 l 851 28 l 851 0 l 0 0 z m 0 694 l 0 701 l 851 701 l 851 694 l 0 694 z m 0 1215 l 0 1229 l 851 1229 l 851 1215 l 0 1215 z "},"Z":{"ha":851,"x_min":0,"x_max":851,"o":"m 800 0 l 54 0 q 35 7 43 0 q 26 25 28 14 q 31 46 24 36 l 31 46 l 701 1146 l 94 1146 q 78 1153 85 1146 q 72 1181 72 1161 l 72 1181 q 78 1208 72 1200 q 94 1215 85 1215 l 94 1215 l 778 1215 q 805 1201 797 1215 q 803 1171 813 1186 l 803 1171 l 131 69 l 800 69 q 817 63 811 69 q 824 36 824 56 l 824 36 q 817 8 824 17 q 800 0 811 0 l 800 0 z m 0 -521 l 0 -507 l 851 -507 l 851 -521 l 0 -521 z m 0 0 l 0 28 l 851 28 l 851 0 l 0 0 z m 0 694 l 0 701 l 851 701 l 851 694 l 0 694 z m 0 1215 l 0 1229 l 851 1229 l 851 1215 l 0 1215 z "},"Æ":{"ha":1339,"x_min":0,"x_max":1339,"o":"m 1253 0 l 1253 0 l 722 0 q 694 8 703 0 q 685 32 685 15 l 685 32 l 685 574 l 392 574 l 100 1 q 79 -18 92 -15 q 49 -14 67 -21 l 49 -14 q 31 6 35 -6 q 35 32 26 17 l 35 32 l 628 1185 q 647 1209 638 1203 q 679 1215 657 1215 l 679 1215 l 1253 1215 q 1269 1208 1264 1215 q 1275 1181 1275 1200 l 1275 1181 q 1269 1153 1275 1161 q 1253 1146 1264 1146 l 1253 1146 l 760 1146 l 760 643 l 1165 643 q 1182 635 1176 643 q 1188 608 1188 628 l 1188 608 q 1182 581 1188 589 q 1165 574 1176 574 l 1165 574 l 760 574 l 760 69 l 1253 69 q 1269 62 1264 69 q 1275 35 1275 54 l 1275 35 q 1269 8 1275 15 q 1253 0 1264 0 z m 685 1146 l 426 643 l 685 643 l 685 1146 z m 0 -521 l 0 -507 l 1339 -507 l 1339 -521 l 0 -521 z m 0 0 l 0 28 l 1339 28 l 1339 0 l 0 0 z m 0 694 l 0 701 l 1339 701 l 1339 694 l 0 694 z m 0 1215 l 0 1229 l 1339 1229 l 1339 1215 l 0 1215 z "},"Ð":{"ha":1207,"x_min":0,"x_max":1207,"o":"m 410 0 l 235 0 q 197 26 197 0 l 197 26 l 197 1189 q 207 1209 197 1203 q 236 1215 217 1215 l 236 1215 l 486 1215 q 726 1181 617 1215 q 915 1077 835 1146 q 1038 907 994 1008 q 1082 671 1082 806 l 1082 671 q 1057 459 1082 560 q 979 274 1032 358 q 846 129 926 190 q 657 34 765 68 q 410 0 549 0 l 410 0 z m 274 1143 l 274 72 l 408 72 q 626 101 531 72 q 793 185 722 131 q 910 314 864 239 q 978 479 956 389 q 1001 671 1001 569 l 1001 671 q 962 883 1001 793 q 852 1030 922 972 q 688 1115 782 1088 q 486 1143 594 1143 l 486 1143 l 274 1143 z m 574 578 l 74 578 q 53 586 58 578 q 47 608 47 594 l 47 608 q 53 633 47 624 q 74 643 58 643 l 74 643 l 574 643 q 594 633 589 643 q 600 608 600 624 l 600 608 q 594 586 600 594 q 574 578 589 578 l 574 578 z m 0 -521 l 0 -507 l 1207 -507 l 1207 -521 l 0 -521 z m 0 0 l 0 28 l 1207 28 l 1207 0 l 0 0 z m 0 694 l 0 701 l 1207 701 l 1207 694 l 0 694 z m 0 1215 l 0 1229 l 1207 1229 l 1207 1215 l 0 1215 z "},"Ĳ":{"ha":1372,"x_min":0,"x_max":1372,"o":"m 235 -19 l 235 -19 q 206 -13 215 -19 q 197 7 197 -7 l 197 7 l 197 1210 q 206 1230 197 1224 q 235 1236 215 1236 l 235 1236 q 263 1230 253 1236 q 272 1210 272 1224 l 272 1210 l 272 7 q 264 -13 272 -7 q 235 -19 256 -19 z m 890 -26 l 890 -26 q 742 1 811 -26 q 624 83 674 29 q 547 214 574 138 l 547 214 q 548 241 542 233 q 568 253 554 249 l 568 253 q 594 256 583 258 q 613 233 606 253 l 613 233 q 675 132 638 174 q 765 69 713 90 q 890 49 818 49 l 890 49 q 974 60 936 49 q 1040 96 1011 71 q 1088 159 1068 121 q 1116 251 1107 197 q 1125 376 1125 306 l 1125 376 l 1125 1210 q 1135 1230 1125 1224 q 1164 1236 1144 1236 l 1164 1236 q 1193 1230 1185 1236 q 1201 1210 1201 1224 l 1201 1210 l 1201 379 q 1188 229 1201 294 q 1149 116 1175 164 q 1085 36 1124 68 q 999 -11 1047 4 q 890 -26 950 -26 z m 0 -521 l 0 -507 l 1372 -507 l 1372 -521 l 0 -521 z m 0 0 l 0 28 l 1372 28 l 1372 0 l 0 0 z m 0 694 l 0 701 l 1372 701 l 1372 694 l 0 694 z m 0 1215 l 0 1229 l 1372 1229 l 1372 1215 l 0 1215 z "},"Ŋ":{"ha":1233,"x_min":0,"x_max":1233,"o":"m 1036 1210 l 1036 -164 q 1019 -272 1036 -231 q 970 -334 1003 -314 q 889 -354 938 -354 l 889 -354 q 792 -330 835 -354 q 721 -268 749 -306 l 721 -268 q 715 -245 713 -257 q 731 -222 717 -233 l 731 -222 q 756 -212 744 -211 q 778 -226 768 -214 l 778 -226 q 810 -257 793 -243 q 847 -279 826 -271 q 889 -287 867 -287 l 889 -287 q 934 -274 918 -287 q 956 -233 950 -260 q 963 -164 963 -206 l 963 -164 l 963 -3 l 272 1085 l 272 7 q 264 -13 272 -7 q 235 -19 256 -19 l 235 -19 q 197 7 197 -19 l 197 7 l 197 1210 q 206 1230 197 1224 q 233 1236 215 1236 l 233 1236 q 259 1231 250 1236 q 276 1214 268 1226 l 276 1214 l 961 139 l 961 1210 q 970 1230 961 1224 q 999 1236 979 1236 l 999 1236 q 1036 1210 1036 1236 l 1036 1210 z m 0 -521 l 0 -507 l 1233 -507 l 1233 -521 l 0 -521 z m 0 0 l 0 28 l 1233 28 l 1233 0 l 0 0 z m 0 694 l 0 701 l 1233 701 l 1233 694 l 0 694 z m 0 1215 l 0 1229 l 1233 1229 l 1233 1215 l 0 1215 z "},"Œ":{"ha":1775,"x_min":0,"x_max":1775,"o":"m 625 -26 l 625 -26 q 419 19 511 -26 q 261 147 326 64 q 160 347 196 231 q 125 606 125 464 l 125 606 q 141 783 125 700 q 188 937 157 867 q 263 1063 218 1007 q 363 1157 307 1118 q 486 1216 419 1196 q 629 1236 553 1236 l 629 1236 q 836 1191 746 1236 q 990 1063 926 1146 q 1085 863 1053 979 q 1117 606 1117 747 l 1117 606 q 1101 428 1117 511 q 1057 274 1086 344 q 985 147 1028 203 q 888 53 943 92 q 767 -6 833 15 q 625 -26 701 -26 z m 625 49 l 625 49 q 743 65 688 49 q 847 116 799 82 q 932 198 894 150 q 996 308 969 246 q 1037 444 1022 369 q 1051 606 1051 519 l 1051 606 q 1021 838 1051 735 q 935 1013 990 940 q 802 1124 879 1086 q 629 1163 725 1163 l 629 1163 q 510 1145 567 1163 q 408 1094 454 1128 q 324 1013 361 1061 q 260 903 286 965 q 219 767 233 842 q 206 606 206 692 l 206 606 q 235 374 206 476 q 321 198 265 271 q 453 87 376 125 q 625 49 531 49 z m 1688 0 l 1089 0 q 1060 8 1069 0 q 1051 32 1051 15 l 1051 32 l 1051 1189 q 1061 1209 1051 1203 q 1090 1215 1071 1215 l 1090 1215 l 1688 1215 q 1705 1208 1699 1215 q 1711 1181 1711 1200 l 1711 1181 q 1705 1153 1711 1161 q 1688 1146 1699 1146 l 1688 1146 l 1126 1146 l 1126 678 l 1601 678 q 1618 670 1613 678 q 1624 643 1624 663 l 1624 643 q 1618 616 1624 624 q 1601 608 1613 608 l 1601 608 l 1126 608 l 1126 69 l 1688 69 q 1705 62 1699 69 q 1711 35 1711 54 l 1711 35 q 1705 8 1711 15 q 1688 0 1699 0 l 1688 0 z m 0 -521 l 0 -507 l 1775 -507 l 1775 -521 l 0 -521 z m 0 0 l 0 28 l 1775 28 l 1775 0 l 0 0 z m 0 694 l 0 701 l 1775 701 l 1775 694 l 0 694 z m 0 1215 l 0 1229 l 1775 1229 l 1775 1215 l 0 1215 z "},"Þ":{"ha":1007,"x_min":0,"x_max":1007,"o":"m 235 -19 l 235 -19 q 206 -13 215 -19 q 197 7 197 -7 l 197 7 l 197 1210 q 206 1230 197 1224 q 235 1236 215 1236 l 235 1236 q 264 1230 256 1236 q 272 1210 272 1224 l 272 1210 l 272 1047 l 500 1047 q 725 1017 635 1047 q 862 919 815 986 q 908 743 908 853 l 908 743 q 874 581 908 650 q 780 463 840 511 q 639 388 719 415 q 465 349 558 360 l 465 349 q 367 338 417 342 q 272 333 317 335 l 272 333 l 272 7 q 264 -13 272 -7 q 235 -19 256 -19 z m 272 978 l 272 403 q 335 405 304 403 q 400 410 367 407 q 465 417 433 414 l 465 417 q 653 468 571 431 q 783 574 735 506 q 831 742 831 642 l 831 742 q 793 879 831 828 q 683 954 756 931 q 500 978 610 978 l 500 978 l 272 978 z m 0 -521 l 0 -507 l 1007 -507 l 1007 -521 l 0 -521 z m 0 0 l 0 28 l 1007 28 l 1007 0 l 0 0 z m 0 694 l 0 701 l 1007 701 l 1007 694 l 0 694 z m 0 1215 l 0 1229 l 1007 1229 l 1007 1215 l 0 1215 z "},"ẞ":{"ha":1233,"x_min":0,"x_max":1233,"o":"m 731 -26 l 731 -26 q 632 -17 679 -26 q 542 8 585 -8 q 461 49 500 25 l 461 49 q 441 71 444 60 q 447 99 438 82 l 447 99 q 469 119 458 115 q 499 111 479 122 l 499 111 q 571 76 535 90 q 647 56 607 63 q 731 49 686 49 l 731 49 q 833 65 783 49 q 922 115 882 82 q 985 200 961 149 q 1008 319 1008 251 l 1008 319 q 989 429 1008 382 q 936 515 969 476 q 861 585 903 553 q 776 648 819 618 q 691 709 732 678 q 616 775 650 740 q 563 853 582 810 q 543 951 543 897 l 543 951 q 560 1037 543 997 q 606 1108 576 1076 q 674 1160 635 1139 l 674 1160 q 471 1099 550 1143 q 347 990 392 1054 q 283 849 301 926 q 265 686 265 771 l 265 686 l 265 10 q 257 -12 265 -6 q 228 -18 249 -18 l 228 -18 q 199 -12 208 -18 q 190 10 190 -6 l 190 10 l 190 683 q 208 858 190 775 q 267 1010 225 940 q 383 1130 310 1079 q 567 1208 457 1181 q 835 1235 678 1235 l 835 1235 l 868 1235 q 892 1227 886 1235 q 899 1200 899 1219 l 899 1200 q 892 1173 899 1181 q 868 1165 886 1165 l 868 1165 q 764 1150 810 1165 q 686 1107 718 1135 q 638 1042 654 1079 q 622 961 622 1004 l 622 961 q 642 876 622 914 q 694 808 661 839 q 769 747 728 776 q 856 688 811 718 q 941 622 900 657 q 1015 544 982 588 q 1069 447 1049 501 q 1089 319 1089 392 l 1089 319 q 1058 172 1089 236 q 977 63 1028 107 q 863 -3 926 19 q 731 -26 799 -26 z m 0 -521 l 0 -507 l 1233 -507 l 1233 -521 l 0 -521 z m 0 0 l 0 28 l 1233 28 l 1233 0 l 0 0 z m 0 694 l 0 701 l 1233 701 l 1233 694 l 0 694 z m 0 1215 l 0 1229 l 1233 1229 l 1233 1215 l 0 1215 z "},"ŋ":{"ha":851,"x_min":0,"x_max":851,"o":"m 707 492 l 707 -172 q 691 -275 707 -235 q 642 -335 675 -315 q 561 -354 608 -354 l 561 -354 q 463 -330 506 -354 q 392 -268 419 -306 l 392 -268 q 385 -245 383 -257 q 401 -222 388 -233 l 401 -222 q 427 -212 415 -211 q 449 -226 439 -214 l 449 -226 q 499 -269 471 -251 q 560 -287 528 -287 l 560 -287 q 619 -258 604 -287 q 633 -172 633 -228 l 633 -172 l 633 478 q 622 575 633 536 q 583 633 610 614 q 510 653 556 653 l 510 653 q 422 628 465 653 q 338 548 378 603 q 269 403 299 493 q 222 181 239 313 l 222 181 l 222 6 q 213 -15 222 -8 q 183 -21 203 -21 l 183 -21 q 158 -15 167 -21 q 149 6 149 -8 l 149 6 l 149 689 q 158 709 149 703 q 183 715 167 715 l 183 715 q 213 709 203 715 q 222 689 222 703 l 222 689 l 222 410 q 281 559 246 499 q 356 655 315 619 q 438 706 397 690 q 517 721 479 721 l 517 721 q 613 699 569 721 q 682 628 657 678 q 707 492 707 578 l 707 492 z m 0 -521 l 0 -507 l 851 -507 l 851 -521 l 0 -521 z m 0 0 l 0 28 l 851 28 l 851 0 l 0 0 z m 0 694 l 0 701 l 851 701 l 851 694 l 0 694 z m 0 1215 l 0 1229 l 851 1229 l 851 1215 l 0 1215 z "},"$":{"ha":928,"x_min":0,"x_max":928,"o":"m 439 -26 l 439 -26 q 333 -16 385 -26 q 234 15 281 -6 q 149 64 188 35 q 81 129 110 93 l 81 129 q 70 153 69 143 q 83 176 71 164 l 83 176 q 106 188 97 189 q 133 171 115 188 l 133 171 q 213 108 168 136 q 315 65 258 81 q 439 49 372 49 l 439 49 q 563 66 508 49 q 656 117 617 83 q 715 199 694 150 q 735 310 735 247 l 735 310 q 711 415 735 372 q 647 489 688 458 q 553 543 606 519 q 444 589 501 567 l 444 589 q 349 631 396 610 q 262 678 303 651 q 189 742 221 706 q 139 828 157 779 q 121 943 121 876 l 121 943 q 147 1067 121 1013 q 219 1159 172 1121 q 326 1217 265 1197 q 458 1236 388 1236 l 458 1236 q 591 1217 532 1236 q 697 1166 650 1199 q 781 1093 744 1133 l 781 1093 q 792 1072 792 1082 q 779 1049 792 1061 l 779 1049 q 755 1037 767 1038 q 732 1046 743 1036 l 732 1046 q 656 1108 696 1082 q 569 1149 617 1135 q 458 1163 521 1163 l 458 1163 q 349 1147 397 1163 q 268 1102 301 1131 q 217 1033 235 1074 q 200 942 200 992 l 200 942 q 222 835 200 878 q 281 762 243 792 q 367 709 318 732 q 469 665 415 686 l 469 665 q 592 613 531 640 q 703 548 653 586 q 783 453 753 510 q 814 311 814 396 l 814 311 q 788 173 814 235 q 712 67 761 111 q 594 -2 663 22 q 439 -26 525 -26 z m 460 -186 l 460 -186 q 424 -160 424 -186 l 424 -160 l 424 1389 q 460 1415 424 1415 l 460 1415 q 496 1389 496 1415 l 496 1389 l 496 -160 q 460 -186 496 -186 z m 0 -521 l 0 -507 l 928 -507 l 928 -521 l 0 -521 z m 0 0 l 0 28 l 928 28 l 928 0 l 0 0 z m 0 694 l 0 701 l 928 701 l 928 694 l 0 694 z m 0 1215 l 0 1229 l 928 1229 l 928 1215 l 0 1215 z "},"€":{"ha":1056,"x_min":0,"x_max":1056,"o":"m 629 -26 l 629 -26 q 442 19 522 -26 q 308 148 363 64 q 227 348 254 232 q 200 606 200 464 l 200 606 q 215 778 200 696 q 257 930 229 860 q 325 1056 285 1000 q 415 1153 365 1113 q 525 1215 465 1193 q 653 1236 585 1236 l 653 1236 q 762 1224 710 1236 q 862 1184 814 1211 q 949 1113 910 1157 l 949 1113 q 960 1089 963 1100 q 946 1068 958 1078 l 946 1068 q 922 1054 933 1056 q 897 1065 911 1053 l 897 1065 q 824 1119 863 1097 q 742 1151 785 1140 q 653 1163 700 1163 l 653 1163 q 549 1144 597 1163 q 458 1091 500 1126 q 384 1007 417 1056 q 328 896 351 958 q 292 760 304 833 q 281 606 281 688 l 281 606 q 303 374 281 478 q 369 198 325 271 q 478 86 413 125 q 629 47 543 47 l 629 47 q 715 57 674 47 q 794 85 756 67 q 865 127 832 103 q 925 182 897 151 l 925 182 q 948 196 938 194 q 975 183 958 197 l 975 183 q 990 161 989 171 q 978 139 990 151 l 978 139 q 875 47 932 83 q 756 -8 818 10 q 629 -26 693 -26 z m 792 678 l 79 678 q 63 685 69 678 q 57 711 57 692 l 57 711 q 63 738 57 731 q 79 746 69 746 l 79 746 l 792 746 q 810 739 804 746 q 815 713 815 732 l 815 713 q 810 685 815 693 q 792 678 804 678 l 792 678 z m 792 488 l 79 488 q 63 495 69 488 q 57 522 57 503 l 57 522 q 63 548 57 540 q 79 556 69 556 l 79 556 l 792 556 q 810 549 804 556 q 815 522 815 542 l 815 522 q 810 495 815 503 q 792 488 804 488 l 792 488 z m 0 -521 l 0 -507 l 1056 -507 l 1056 -521 l 0 -521 z m 0 0 l 0 28 l 1056 28 l 1056 0 l 0 0 z m 0 694 l 0 701 l 1056 701 l 1056 694 l 0 694 z m 0 1215 l 0 1229 l 1056 1229 l 1056 1215 l 0 1215 z "},"¢":{"ha":736,"x_min":0,"x_max":736,"o":"m 375 -26 l 375 -26 q 224 15 289 -26 q 124 135 160 56 q 88 326 88 215 l 88 326 q 102 454 88 394 q 143 563 117 514 q 208 647 169 611 q 297 701 247 682 q 404 721 346 721 l 404 721 q 487 708 446 721 q 565 672 528 696 q 629 615 601 649 l 629 615 q 637 596 638 606 q 622 572 636 586 l 622 572 q 600 560 611 560 q 579 569 589 561 l 579 569 q 527 613 553 594 q 471 642 501 632 q 400 653 440 653 l 400 653 q 322 638 358 653 q 256 597 285 624 q 207 530 228 569 q 175 440 186 490 q 164 332 164 390 l 164 332 q 188 179 164 244 q 261 78 213 114 q 381 42 310 43 l 381 42 q 470 62 432 42 q 540 115 508 82 q 601 186 572 147 l 601 186 q 622 197 611 197 q 644 189 633 197 l 644 189 q 660 169 656 179 q 656 146 664 160 l 656 146 q 575 53 619 92 q 481 -6 531 14 q 375 -26 432 -26 z m 381 -186 l 381 -186 q 344 -160 344 -186 l 344 -160 l 344 874 q 381 900 344 900 l 381 900 q 417 874 417 900 l 417 874 l 417 -160 q 381 -186 417 -186 z m 0 -521 l 0 -507 l 736 -507 l 736 -521 l 0 -521 z m 0 0 l 0 28 l 736 28 l 736 0 l 0 0 z m 0 694 l 0 701 l 736 701 l 736 694 l 0 694 z m 0 1215 l 0 1229 l 736 1229 l 736 1215 l 0 1215 z "},"£":{"ha":938,"x_min":0,"x_max":938,"o":"m 876 0 l 83 0 q 66 9 72 0 q 60 38 60 18 l 60 38 q 67 63 60 56 q 83 69 74 69 l 83 69 l 281 69 l 281 490 l 119 490 q 103 498 108 490 q 97 525 97 506 l 97 525 q 103 551 97 544 q 119 558 108 558 l 119 558 l 281 558 l 281 928 q 314 1092 281 1022 q 410 1199 347 1161 q 561 1236 474 1236 l 561 1236 q 726 1207 650 1236 q 863 1125 801 1178 l 863 1125 q 876 1103 872 1117 q 865 1076 879 1090 l 865 1076 q 840 1062 853 1063 q 814 1072 828 1061 l 814 1072 q 691 1142 751 1119 q 563 1164 631 1164 l 563 1164 q 408 1101 460 1164 q 356 924 356 1039 l 356 924 l 356 558 l 663 558 q 680 551 674 558 q 686 526 686 544 l 686 526 q 680 499 686 507 q 663 490 674 490 l 663 490 l 356 490 l 356 69 l 876 69 q 893 63 888 69 q 899 38 899 56 l 899 38 q 894 9 899 18 q 876 0 889 0 l 876 0 z m 0 -521 l 0 -507 l 938 -507 l 938 -521 l 0 -521 z m 0 0 l 0 28 l 938 28 l 938 0 l 0 0 z m 0 694 l 0 701 l 938 701 l 938 694 l 0 694 z m 0 1215 l 0 1229 l 938 1229 l 938 1215 l 0 1215 z "},"¥":{"ha":928,"x_min":0,"x_max":928,"o":"m 458 -19 l 458 -19 q 421 7 421 -19 l 421 7 l 421 318 l 129 318 q 113 326 118 318 q 107 351 107 333 l 107 351 q 113 378 107 371 q 129 386 118 386 l 129 386 l 421 386 l 421 507 l 129 507 q 113 515 118 507 q 107 542 107 522 l 107 542 q 113 569 107 561 q 129 576 118 576 l 129 576 l 393 576 l 60 1190 q 58 1213 53 1204 q 79 1231 63 1222 l 79 1231 q 108 1236 99 1239 q 126 1214 117 1233 l 126 1214 l 458 600 l 801 1214 q 822 1236 813 1233 q 849 1231 832 1239 l 849 1231 q 871 1213 867 1222 q 868 1190 875 1204 l 868 1190 l 522 576 l 786 576 q 803 569 797 576 q 810 542 810 563 l 810 542 q 803 515 810 524 q 786 507 797 507 l 786 507 l 496 507 l 496 386 l 786 386 q 803 379 797 386 q 810 353 810 372 l 810 353 q 803 326 810 333 q 786 318 797 318 l 786 318 l 496 318 l 496 7 q 458 -19 496 -19 z m 0 -521 l 0 -507 l 928 -507 l 928 -521 l 0 -521 z m 0 0 l 0 28 l 928 28 l 928 0 l 0 0 z m 0 694 l 0 701 l 928 701 l 928 694 l 0 694 z m 0 1215 l 0 1229 l 928 1229 l 928 1215 l 0 1215 z "},"%":{"ha":1146,"x_min":0,"x_max":1146,"o":"m 301 708 l 301 708 q 185 742 236 708 q 107 836 135 776 q 79 972 79 896 l 79 972 q 90 1060 79 1019 q 120 1132 100 1100 q 168 1188 140 1164 q 229 1224 196 1211 q 301 1236 263 1236 l 301 1236 q 417 1203 367 1236 q 495 1110 467 1169 q 524 972 524 1050 l 524 972 q 513 885 524 926 q 483 813 503 844 q 436 757 464 781 q 374 721 408 733 q 301 708 340 708 z m 301 775 l 301 775 q 352 784 329 775 q 393 810 375 793 q 424 851 411 826 q 444 906 438 875 q 450 972 450 936 l 450 972 q 410 1116 450 1063 q 301 1169 371 1169 l 301 1169 q 251 1160 274 1169 q 210 1135 228 1151 q 178 1094 192 1118 q 159 1039 165 1069 q 153 972 153 1008 l 153 972 q 192 828 153 882 q 301 775 232 775 z m 958 1189 l 233 -15 q 216 -27 226 -26 q 190 -18 206 -28 l 190 -18 q 169 0 174 -8 q 172 19 165 8 l 172 19 l 899 1225 q 914 1237 904 1236 q 940 1226 924 1238 l 940 1226 q 960 1208 956 1218 q 958 1189 965 1199 l 958 1189 z m 840 -26 l 840 -26 q 724 7 774 -26 q 646 101 674 40 q 618 238 618 161 l 618 238 q 628 324 618 283 q 659 398 639 365 q 706 453 679 431 q 767 489 733 476 q 840 501 801 501 l 840 501 q 954 468 904 501 q 1033 375 1004 435 q 1061 238 1061 315 l 1061 238 q 1051 151 1061 192 q 1021 78 1040 111 q 974 22 1001 44 q 913 -14 946 -1 q 840 -26 879 -26 z m 840 40 l 840 40 q 891 49 868 40 q 932 76 914 58 q 963 117 950 93 q 983 172 976 140 q 989 238 989 203 l 989 238 q 949 381 989 328 q 840 435 910 435 l 840 435 q 789 426 813 435 q 747 400 765 417 q 716 359 729 383 q 697 304 703 335 q 690 238 690 274 l 690 238 q 731 94 690 149 q 840 40 771 40 z m 0 -521 l 0 -507 l 1146 -507 l 1146 -521 l 0 -521 z m 0 0 l 0 28 l 1146 28 l 1146 0 l 0 0 z m 0 694 l 0 701 l 1146 701 l 1146 694 l 0 694 z m 0 1215 l 0 1229 l 1146 1229 l 1146 1215 l 0 1215 z "},".":{"ha":435,"x_min":0,"x_max":435,"o":"m 217 -29 l 217 -29 q 168 -10 185 -29 q 151 43 151 8 l 151 43 q 168 97 151 79 q 217 115 185 115 l 217 115 q 267 97 250 115 q 283 43 283 79 l 283 43 q 267 -10 283 8 q 217 -29 250 -29 z m 0 -521 l 0 -507 l 435 -507 l 435 -521 l 0 -521 z m 0 0 l 0 28 l 435 28 l 435 0 l 0 0 z m 0 694 l 0 701 l 435 701 l 435 694 l 0 694 z m 0 1215 l 0 1229 l 435 1229 l 435 1215 l 0 1215 z "},",":{"ha":435,"x_min":0,"x_max":435,"o":"m 150 -237 l 150 -237 q 123 -229 138 -237 q 108 -208 108 -221 l 108 -208 q 112 -196 108 -203 q 121 -181 115 -189 l 121 -181 q 150 -113 140 -143 q 163 -44 160 -83 q 167 64 167 -4 l 167 64 q 178 94 167 83 q 215 104 190 104 l 215 104 q 253 92 242 104 q 265 61 265 81 l 265 61 q 257 -40 265 8 q 231 -134 249 -89 q 181 -218 213 -179 l 181 -218 q 168 -231 175 -225 q 150 -237 161 -237 z m 0 -521 l 0 -507 l 435 -507 l 435 -521 l 0 -521 z m 0 0 l 0 28 l 435 28 l 435 0 l 0 0 z m 0 694 l 0 701 l 435 701 l 435 694 l 0 694 z m 0 1215 l 0 1229 l 435 1229 l 435 1215 l 0 1215 z "},":":{"ha":435,"x_min":0,"x_max":435,"o":"m 217 -29 l 217 -29 q 168 -10 185 -29 q 151 43 151 8 l 151 43 q 168 97 151 79 q 217 115 185 115 l 217 115 q 267 97 250 115 q 283 43 283 79 l 283 43 q 267 -10 283 8 q 217 -29 250 -29 z m 217 576 l 217 576 q 168 595 185 576 q 151 649 151 614 l 151 649 q 168 703 151 685 q 217 721 185 721 l 217 721 q 267 703 250 721 q 283 649 283 685 l 283 649 q 267 595 283 614 q 217 576 250 576 z m 0 -521 l 0 -507 l 435 -507 l 435 -521 l 0 -521 z m 0 0 l 0 28 l 435 28 l 435 0 l 0 0 z m 0 694 l 0 701 l 435 701 l 435 694 l 0 694 z m 0 1215 l 0 1229 l 435 1229 l 435 1215 l 0 1215 z "},";":{"ha":435,"x_min":0,"x_max":435,"o":"m 217 576 l 217 576 q 168 595 185 576 q 151 649 151 614 l 151 649 q 168 703 151 685 q 217 721 185 721 l 217 721 q 267 703 250 721 q 283 649 283 685 l 283 649 q 267 595 283 614 q 217 576 250 576 z m 150 -237 l 150 -237 q 123 -229 138 -237 q 108 -208 108 -221 l 108 -208 q 112 -196 108 -203 q 121 -181 115 -189 l 121 -181 q 150 -113 140 -143 q 163 -44 160 -83 q 167 64 167 -4 l 167 64 q 178 94 167 83 q 215 104 190 104 l 215 104 q 253 92 242 104 q 265 61 265 81 l 265 61 q 257 -40 265 8 q 231 -134 249 -89 q 181 -218 213 -179 l 181 -218 q 168 -231 175 -225 q 150 -237 161 -237 z m 0 -521 l 0 -507 l 435 -507 l 435 -521 l 0 -521 z m 0 0 l 0 28 l 435 28 l 435 0 l 0 0 z m 0 694 l 0 701 l 435 701 l 435 694 l 0 694 z m 0 1215 l 0 1229 l 435 1229 l 435 1215 l 0 1215 z "},"…":{"ha":1178,"x_min":0,"x_max":1178,"o":"m 589 -29 l 589 -29 q 540 -10 557 -29 q 524 43 524 8 l 524 43 q 540 97 524 79 q 589 115 557 115 l 589 115 q 639 97 622 115 q 656 43 656 79 l 656 43 q 639 -10 656 8 q 589 -29 622 -29 z m 960 -29 l 960 -29 q 911 -10 928 -29 q 894 43 894 8 l 894 43 q 911 97 894 79 q 960 115 928 115 l 960 115 q 1010 97 993 115 q 1026 43 1026 79 l 1026 43 q 1010 -10 1026 8 q 960 -29 993 -29 z m 217 -29 l 217 -29 q 168 -10 185 -29 q 151 43 151 8 l 151 43 q 168 97 151 79 q 217 115 185 115 l 217 115 q 267 97 250 115 q 283 43 283 79 l 283 43 q 267 -10 283 8 q 217 -29 250 -29 z m 0 -521 l 0 -507 l 1178 -507 l 1178 -521 l 0 -521 z m 0 0 l 0 28 l 1178 28 l 1178 0 l 0 0 z m 0 694 l 0 701 l 1178 701 l 1178 694 l 0 694 z m 0 1215 l 0 1229 l 1178 1229 l 1178 1215 l 0 1215 z "},"!":{"ha":472,"x_min":0,"x_max":472,"o":"m 236 300 l 236 300 q 199 326 199 300 l 199 326 l 199 1210 q 208 1230 199 1224 q 236 1236 217 1236 l 236 1236 q 274 1210 274 1236 l 274 1210 l 274 326 q 265 307 274 314 q 236 300 257 300 z m 236 -19 l 236 -19 q 190 -1 206 -19 q 174 51 174 17 l 174 51 q 190 105 174 88 q 236 122 206 122 l 236 122 q 283 105 267 122 q 299 51 299 88 l 299 51 q 283 -1 299 17 q 236 -19 267 -19 z m 0 -521 l 0 -507 l 472 -507 l 472 -521 l 0 -521 z m 0 0 l 0 28 l 472 28 l 472 0 l 0 0 z m 0 694 l 0 701 l 472 701 l 472 694 l 0 694 z m 0 1215 l 0 1229 l 472 1229 l 472 1215 l 0 1215 z "},"¡":{"ha":472,"x_min":0,"x_max":472,"o":"m 236 -540 l 236 -540 q 199 -514 199 -540 l 199 -514 l 199 369 q 208 389 199 382 q 236 396 217 396 l 236 396 q 274 369 274 396 l 274 369 l 274 -514 q 265 -534 274 -528 q 236 -540 256 -540 z m 236 574 l 236 574 q 190 592 206 574 q 174 644 174 610 l 174 644 q 190 698 174 681 q 236 715 206 715 l 236 715 q 283 698 267 715 q 299 644 299 681 l 299 644 q 283 592 299 610 q 236 574 267 574 z m 0 -521 l 0 -507 l 472 -507 l 472 -521 l 0 -521 z m 0 0 l 0 28 l 472 28 l 472 0 l 0 0 z m 0 694 l 0 701 l 472 701 l 472 694 l 0 694 z m 0 1215 l 0 1229 l 472 1229 l 472 1215 l 0 1215 z "},"?":{"ha":692,"x_min":0,"x_max":692,"o":"m 271 300 l 271 300 q 242 306 251 300 q 233 328 233 313 l 233 328 l 233 575 q 240 596 233 590 q 261 604 247 601 l 261 604 q 378 640 321 618 q 480 699 435 663 q 551 791 525 736 q 578 924 578 846 l 578 924 q 547 1057 578 1003 q 462 1138 515 1111 q 342 1165 408 1165 l 342 1165 q 241 1150 286 1165 q 158 1108 196 1135 q 88 1049 119 1082 l 88 1049 q 63 1037 75 1038 q 38 1049 51 1036 l 38 1049 q 25 1073 24 1061 q 36 1094 26 1085 l 36 1094 q 119 1168 71 1136 q 225 1218 168 1200 q 342 1236 282 1236 l 342 1236 q 498 1201 426 1236 q 613 1097 569 1167 q 656 921 656 1026 l 656 921 q 626 772 656 835 q 548 665 597 710 q 436 591 499 621 q 308 543 374 561 l 308 543 l 308 326 q 300 306 308 311 q 271 300 292 300 z m 271 -19 l 271 -19 q 224 -1 240 -19 q 208 51 208 17 l 208 51 q 224 105 208 88 q 271 122 240 122 l 271 122 q 317 105 301 122 q 333 51 333 88 l 333 51 q 317 -1 333 17 q 271 -19 301 -19 z m 0 -521 l 0 -507 l 692 -507 l 692 -521 l 0 -521 z m 0 0 l 0 28 l 692 28 l 692 0 l 0 0 z m 0 694 l 0 701 l 692 701 l 692 694 l 0 694 z m 0 1215 l 0 1229 l 692 1229 l 692 1215 l 0 1215 z "},"¿":{"ha":692,"x_min":0,"x_max":692,"o":"m 410 396 l 410 396 q 440 390 431 396 q 449 368 449 385 l 449 368 l 449 121 q 441 100 449 106 q 421 92 433 94 l 421 92 q 303 56 360 78 q 202 -3 247 33 q 131 -94 157 -40 q 104 -228 104 -149 l 104 -228 q 135 -360 104 -307 q 220 -442 167 -414 q 339 -469 274 -469 l 339 -469 q 440 -454 394 -469 q 524 -412 486 -439 q 594 -353 563 -386 l 594 -353 q 618 -341 607 -342 q 643 -353 629 -340 l 643 -353 q 656 -376 658 -364 q 646 -399 654 -389 l 646 -399 q 563 -472 611 -440 q 457 -522 514 -503 q 339 -540 400 -540 l 339 -540 q 183 -506 254 -540 q 68 -401 111 -471 q 25 -225 25 -331 l 25 -225 q 54 -76 25 -139 q 133 31 83 -14 q 244 105 182 75 q 372 153 307 135 l 372 153 l 372 369 q 381 390 372 385 q 410 396 390 396 z m 410 715 l 410 715 q 458 698 442 715 q 474 644 474 681 l 474 644 q 458 592 474 610 q 410 574 442 574 l 410 574 q 364 592 381 574 q 347 644 347 610 l 347 644 q 364 698 347 681 q 410 715 381 715 z m 0 -521 l 0 -507 l 692 -507 l 692 -521 l 0 -521 z m 0 0 l 0 28 l 692 28 l 692 0 l 0 0 z m 0 694 l 0 701 l 692 701 l 692 694 l 0 694 z m 0 1215 l 0 1229 l 692 1229 l 692 1215 l 0 1215 z "},"'":{"ha":235,"x_min":0,"x_max":235,"o":"m 119 908 l 119 908 q 95 917 103 908 q 88 940 88 926 l 88 940 l 71 1213 q 81 1242 69 1229 q 119 1254 93 1254 l 119 1254 q 158 1242 146 1254 q 168 1213 169 1229 l 168 1213 l 151 943 q 144 919 151 929 q 119 908 136 908 z m 0 -521 l 0 -507 l 235 -507 l 235 -521 l 0 -521 z m 0 0 l 0 28 l 235 28 l 235 0 l 0 0 z m 0 694 l 0 701 l 235 701 l 235 694 l 0 694 z m 0 1215 l 0 1229 l 235 1229 l 235 1215 l 0 1215 z "},"\"":{"ha":432,"x_min":0,"x_max":432,"o":"m 119 908 l 119 908 q 95 917 103 908 q 88 940 88 926 l 88 940 l 71 1213 q 81 1242 69 1229 q 119 1254 93 1254 l 119 1254 q 158 1242 146 1254 q 168 1213 169 1229 l 168 1213 l 151 943 q 144 919 151 929 q 119 908 136 908 z m 317 908 l 317 908 q 293 917 300 908 q 285 940 286 926 l 285 940 l 268 1213 q 278 1242 267 1229 q 317 1254 290 1254 l 317 1254 q 356 1242 344 1254 q 367 1213 368 1229 l 367 1213 l 349 943 q 341 919 349 929 q 317 908 333 908 z m 0 -521 l 0 -507 l 432 -507 l 432 -521 l 0 -521 z m 0 0 l 0 28 l 432 28 l 432 0 l 0 0 z m 0 694 l 0 701 l 432 701 l 432 694 l 0 694 z m 0 1215 l 0 1229 l 432 1229 l 432 1215 l 0 1215 z "},"‘":{"ha":276,"x_min":0,"x_max":276,"o":"m 129 897 l 129 897 q 92 910 104 897 q 81 942 81 924 l 81 942 q 85 1024 81 985 q 100 1099 90 1063 q 126 1169 110 1135 q 163 1233 142 1203 l 163 1233 q 177 1248 169 1242 q 194 1254 185 1254 l 194 1254 q 222 1245 208 1254 q 235 1225 235 1236 l 235 1225 q 231 1213 235 1219 q 222 1196 228 1206 l 222 1196 q 192 1126 203 1157 q 178 1052 182 1094 q 175 938 175 1010 l 175 938 q 163 908 175 919 q 129 897 151 897 z m 0 -521 l 0 -507 l 276 -507 l 276 -521 l 0 -521 z m 0 0 l 0 28 l 276 28 l 276 0 l 0 0 z m 0 694 l 0 701 l 276 701 l 276 694 l 0 694 z m 0 1215 l 0 1229 l 276 1229 l 276 1215 l 0 1215 z "},"’":{"ha":279,"x_min":0,"x_max":279,"o":"m 150 1254 l 150 1254 q 187 1241 175 1254 q 199 1210 199 1228 l 199 1210 q 194 1127 199 1167 q 179 1051 189 1088 q 153 982 169 1015 q 115 918 138 949 l 115 918 q 102 903 110 910 q 85 897 94 897 l 85 897 q 58 906 71 897 q 44 926 44 915 l 44 926 q 48 939 44 932 q 56 954 51 946 l 56 954 q 87 1026 76 994 q 101 1099 97 1057 q 104 1214 104 1142 l 104 1214 q 116 1243 104 1232 q 150 1254 128 1254 z m 0 -521 l 0 -507 l 279 -507 l 279 -521 l 0 -521 z m 0 0 l 0 28 l 279 28 l 279 0 l 0 0 z m 0 694 l 0 701 l 279 701 l 279 694 l 0 694 z m 0 1215 l 0 1229 l 279 1229 l 279 1215 l 0 1215 z "},"‚":{"ha":282,"x_min":0,"x_max":282,"o":"m 86 -237 l 86 -237 q 59 -229 74 -237 q 44 -208 44 -221 l 44 -208 q 48 -196 44 -203 q 56 -181 51 -189 l 56 -181 q 86 -113 76 -143 q 99 -44 96 -83 q 103 64 103 -4 l 103 64 q 115 94 103 83 q 151 104 126 104 l 151 104 q 190 92 178 104 q 201 61 201 81 l 201 61 q 193 -40 201 8 q 166 -134 185 -89 q 117 -218 147 -179 l 117 -218 q 103 -231 111 -225 q 86 -237 96 -237 z m 0 -521 l 0 -507 l 282 -507 l 282 -521 l 0 -521 z m 0 0 l 0 28 l 282 28 l 282 0 l 0 0 z m 0 694 l 0 701 l 282 701 l 282 694 l 0 694 z m 0 1215 l 0 1229 l 282 1229 l 282 1215 l 0 1215 z "},"“":{"ha":496,"x_min":0,"x_max":496,"o":"m 129 897 l 129 897 q 92 910 104 897 q 81 942 81 924 l 81 942 q 85 1024 81 985 q 100 1099 90 1063 q 126 1169 110 1135 q 163 1233 142 1203 l 163 1233 q 177 1248 169 1242 q 194 1254 185 1254 l 194 1254 q 222 1245 208 1254 q 235 1225 235 1236 l 235 1225 q 231 1213 235 1219 q 222 1196 228 1206 l 222 1196 q 192 1126 203 1157 q 178 1052 182 1094 q 175 938 175 1010 l 175 938 q 163 908 175 919 q 129 897 151 897 z m 349 897 l 349 897 q 312 910 324 897 q 300 942 300 924 l 300 942 q 305 1024 300 985 q 319 1099 310 1063 q 345 1169 329 1135 q 383 1233 361 1203 l 383 1233 q 397 1248 390 1242 q 414 1254 404 1254 l 414 1254 q 441 1245 428 1254 q 454 1225 454 1236 l 454 1225 q 451 1213 454 1219 q 442 1196 447 1206 l 442 1196 q 412 1126 422 1157 q 398 1052 401 1094 q 394 938 394 1010 l 394 938 q 383 908 394 919 q 349 897 372 897 z m 0 -521 l 0 -507 l 496 -507 l 496 -521 l 0 -521 z m 0 0 l 0 28 l 496 28 l 496 0 l 0 0 z m 0 694 l 0 701 l 496 701 l 496 694 l 0 694 z m 0 1215 l 0 1229 l 496 1229 l 496 1215 l 0 1215 z "},"”":{"ha":499,"x_min":0,"x_max":499,"o":"m 369 1254 l 369 1254 q 407 1241 396 1254 q 418 1210 418 1228 l 418 1210 q 414 1127 418 1167 q 399 1051 410 1088 q 373 982 389 1015 q 335 918 357 949 l 335 918 q 322 903 329 910 q 304 897 314 897 l 304 897 q 278 906 292 897 q 264 926 264 915 l 264 926 q 267 939 264 932 q 276 954 271 946 l 276 954 q 307 1026 297 994 q 320 1099 317 1057 q 324 1214 324 1142 l 324 1214 q 335 1243 324 1232 q 369 1254 347 1254 z m 150 1254 l 150 1254 q 187 1241 175 1254 q 199 1210 199 1228 l 199 1210 q 194 1127 199 1167 q 179 1051 189 1088 q 153 982 169 1015 q 115 918 138 949 l 115 918 q 102 903 110 910 q 85 897 94 897 l 85 897 q 58 906 71 897 q 44 926 44 915 l 44 926 q 48 939 44 932 q 56 954 51 946 l 56 954 q 87 1026 76 994 q 101 1099 97 1057 q 104 1214 104 1142 l 104 1214 q 116 1243 104 1232 q 150 1254 128 1254 z m 0 -521 l 0 -507 l 499 -507 l 499 -521 l 0 -521 z m 0 0 l 0 28 l 499 28 l 499 0 l 0 0 z m 0 694 l 0 701 l 499 701 l 499 694 l 0 694 z m 0 1215 l 0 1229 l 499 1229 l 499 1215 l 0 1215 z "},"„":{"ha":501,"x_min":0,"x_max":501,"o":"m 306 -237 l 306 -237 q 278 -229 293 -237 q 264 -208 264 -221 l 264 -208 q 267 -196 264 -203 q 276 -181 271 -189 l 276 -181 q 306 -113 296 -143 q 319 -44 315 -83 q 322 64 322 -4 l 322 64 q 334 94 322 83 q 371 104 346 104 l 371 104 q 409 92 397 104 q 421 61 421 81 l 421 61 q 413 -40 421 8 q 386 -134 404 -89 q 336 -218 368 -179 l 336 -218 q 324 -231 331 -225 q 306 -237 317 -237 z m 86 -237 l 86 -237 q 59 -229 74 -237 q 44 -208 44 -221 l 44 -208 q 48 -196 44 -203 q 56 -181 51 -189 l 56 -181 q 86 -113 76 -143 q 99 -44 96 -83 q 103 64 103 -4 l 103 64 q 115 94 103 83 q 151 104 126 104 l 151 104 q 190 92 178 104 q 201 61 201 81 l 201 61 q 193 -40 201 8 q 166 -134 185 -89 q 117 -218 147 -179 l 117 -218 q 103 -231 111 -225 q 86 -237 96 -237 z m 0 -521 l 0 -507 l 501 -507 l 501 -521 l 0 -521 z m 0 0 l 0 28 l 501 28 l 501 0 l 0 0 z m 0 694 l 0 701 l 501 701 l 501 694 l 0 694 z m 0 1215 l 0 1229 l 501 1229 l 501 1215 l 0 1215 z "},"«":{"ha":1007,"x_min":0,"x_max":1007,"o":"m 458 -19 l 458 -19 q 435 -13 444 -19 q 415 4 425 -7 l 415 4 l 182 303 q 160 331 167 321 q 154 349 154 342 l 154 349 q 160 368 154 358 q 182 396 167 378 l 182 396 l 418 693 q 436 710 425 704 q 460 715 447 715 l 460 715 q 484 708 474 715 q 497 690 494 701 q 488 665 499 679 l 488 665 l 238 349 l 488 32 q 492 -4 504 11 q 458 -19 481 -19 z m 806 -19 l 806 -19 q 782 -13 792 -19 q 763 4 772 -7 l 763 4 l 529 303 q 508 331 514 321 q 501 349 501 342 l 501 349 q 508 368 501 358 q 529 396 514 378 l 529 396 l 765 693 q 783 710 772 704 q 807 715 794 715 l 807 715 q 831 708 821 715 q 844 690 842 701 q 835 665 846 679 l 835 665 l 585 349 l 835 32 q 840 -4 851 11 q 806 -19 828 -19 z m 0 -521 l 0 -507 l 1007 -507 l 1007 -521 l 0 -521 z m 0 0 l 0 28 l 1007 28 l 1007 0 l 0 0 z m 0 694 l 0 701 l 1007 701 l 1007 694 l 0 694 z m 0 1215 l 0 1229 l 1007 1229 l 1007 1215 l 0 1215 z "},"»":{"ha":1007,"x_min":0,"x_max":1007,"o":"m 201 -19 l 201 -19 q 176 -12 186 -19 q 164 6 165 -6 q 172 32 163 18 l 172 32 l 422 349 l 172 665 q 167 701 156 686 q 200 715 179 715 l 200 715 q 224 710 214 715 q 243 693 235 704 l 243 693 l 479 396 q 499 368 493 378 q 506 349 506 358 l 506 349 q 499 331 506 342 q 479 303 493 321 l 479 303 l 244 4 q 226 -13 236 -7 q 201 -19 215 -19 z m 549 -19 l 549 -19 q 523 -12 533 -19 q 511 6 513 -6 q 519 32 510 18 l 519 32 l 769 349 l 519 665 q 515 701 503 686 q 547 715 526 715 l 547 715 q 572 710 561 715 q 590 693 582 704 l 590 693 l 826 396 q 847 368 840 378 q 853 349 853 358 l 853 349 q 847 331 853 342 q 826 303 840 321 l 826 303 l 592 4 q 573 -13 583 -7 q 549 -19 563 -19 z m 0 -521 l 0 -507 l 1007 -507 l 1007 -521 l 0 -521 z m 0 0 l 0 28 l 1007 28 l 1007 0 l 0 0 z m 0 694 l 0 701 l 1007 701 l 1007 694 l 0 694 z m 0 1215 l 0 1229 l 1007 1229 l 1007 1215 l 0 1215 z "},"‹":{"ha":660,"x_min":0,"x_max":660,"o":"m 458 -19 l 458 -19 q 435 -13 444 -19 q 415 4 425 -7 l 415 4 l 182 303 q 160 331 167 321 q 154 349 154 342 l 154 349 q 160 368 154 358 q 182 396 167 378 l 182 396 l 418 693 q 436 710 425 704 q 460 715 447 715 l 460 715 q 484 708 474 715 q 497 690 494 701 q 488 665 499 679 l 488 665 l 238 349 l 488 32 q 492 -4 504 11 q 458 -19 481 -19 z m 0 -521 l 0 -507 l 660 -507 l 660 -521 l 0 -521 z m 0 0 l 0 28 l 660 28 l 660 0 l 0 0 z m 0 694 l 0 701 l 660 701 l 660 694 l 0 694 z m 0 1215 l 0 1229 l 660 1229 l 660 1215 l 0 1215 z "},"›":{"ha":660,"x_min":0,"x_max":660,"o":"m 201 -19 l 201 -19 q 176 -12 186 -19 q 164 6 165 -6 q 172 32 163 18 l 172 32 l 422 349 l 172 665 q 167 701 156 686 q 200 715 179 715 l 200 715 q 224 710 214 715 q 243 693 235 704 l 243 693 l 479 396 q 499 368 493 378 q 506 349 506 358 l 506 349 q 499 331 506 342 q 479 303 493 321 l 479 303 l 244 4 q 226 -13 236 -7 q 201 -19 215 -19 z m 0 -521 l 0 -507 l 660 -507 l 660 -521 l 0 -521 z m 0 0 l 0 28 l 660 28 l 660 0 l 0 0 z m 0 694 l 0 701 l 660 701 l 660 694 l 0 694 z m 0 1215 l 0 1229 l 660 1229 l 660 1215 l 0 1215 z "},"Á":{"ha":1043,"x_min":0,"x_max":1043,"o":"m 69 -18 l 69 -18 q 42 -4 47 -14 q 42 22 36 6 l 42 22 l 475 1204 q 491 1229 481 1222 q 521 1236 501 1236 l 521 1236 q 551 1229 542 1236 q 567 1204 561 1222 l 567 1204 l 1000 22 q 1001 -4 1007 6 q 972 -18 994 -14 l 972 -18 q 944 -15 953 -21 q 926 14 935 -8 l 926 14 l 803 356 l 240 356 l 114 14 q 98 -15 107 -8 q 69 -18 89 -21 z m 521 1124 l 264 425 l 776 425 l 521 1124 z m 449 1304 l 449 1304 q 427 1317 440 1304 q 414 1339 414 1329 l 414 1339 q 415 1347 414 1342 q 422 1356 417 1351 l 422 1356 l 631 1556 q 640 1565 636 1561 q 650 1568 644 1568 l 650 1568 q 671 1560 660 1568 q 690 1542 682 1553 q 697 1522 697 1532 l 697 1522 q 696 1513 697 1517 q 686 1501 694 1508 l 686 1501 l 468 1314 q 458 1307 461 1310 q 449 1304 454 1304 z m 0 -521 l 0 -507 l 1043 -507 l 1043 -521 l 0 -521 z m 0 0 l 0 28 l 1043 28 l 1043 0 l 0 0 z m 0 694 l 0 701 l 1043 701 l 1043 694 l 0 694 z m 0 1215 l 0 1229 l 1043 1229 l 1043 1215 l 0 1215 z "},"Ă":{"ha":1043,"x_min":0,"x_max":1043,"o":"m 69 -18 l 69 -18 q 42 -4 47 -14 q 42 22 36 6 l 42 22 l 475 1204 q 491 1229 481 1222 q 521 1236 501 1236 l 521 1236 q 551 1229 542 1236 q 567 1204 561 1222 l 567 1204 l 1000 22 q 1001 -4 1007 6 q 972 -18 994 -14 l 972 -18 q 944 -15 953 -21 q 926 14 935 -8 l 926 14 l 803 356 l 240 356 l 114 14 q 98 -15 107 -8 q 69 -18 89 -21 z m 521 1124 l 264 425 l 776 425 l 521 1124 z m 521 1306 l 521 1306 q 357 1365 421 1306 q 288 1540 293 1424 l 288 1540 q 296 1560 288 1553 q 321 1568 304 1568 l 321 1568 q 344 1561 338 1568 q 353 1540 351 1554 l 353 1540 q 405 1423 361 1461 q 521 1385 449 1385 l 521 1385 q 638 1423 593 1385 q 690 1540 682 1461 l 690 1540 q 698 1561 692 1554 q 719 1568 704 1568 l 719 1568 q 747 1560 738 1568 q 754 1540 756 1553 l 754 1540 q 720 1412 751 1464 q 638 1333 689 1360 q 521 1306 586 1306 z m 0 -521 l 0 -507 l 1043 -507 l 1043 -521 l 0 -521 z m 0 0 l 0 28 l 1043 28 l 1043 0 l 0 0 z m 0 694 l 0 701 l 1043 701 l 1043 694 l 0 694 z m 0 1215 l 0 1229 l 1043 1229 l 1043 1215 l 0 1215 z "},"Ǎ":{"ha":1043,"x_min":0,"x_max":1043,"o":"m 69 -18 l 69 -18 q 42 -4 47 -14 q 42 22 36 6 l 42 22 l 475 1204 q 491 1229 481 1222 q 521 1236 501 1236 l 521 1236 q 551 1229 542 1236 q 567 1204 561 1222 l 567 1204 l 1000 22 q 1001 -4 1007 6 q 972 -18 994 -14 l 972 -18 q 944 -15 953 -21 q 926 14 935 -8 l 926 14 l 803 356 l 240 356 l 114 14 q 98 -15 107 -8 q 69 -18 89 -21 z m 521 1124 l 264 425 l 776 425 l 521 1124 z m 738 1568 l 738 1568 q 758 1558 749 1568 q 768 1535 768 1547 l 768 1535 q 767 1528 768 1532 q 761 1518 767 1524 l 761 1518 l 556 1321 q 541 1309 549 1314 q 521 1304 533 1304 l 521 1304 q 501 1309 508 1304 q 486 1321 494 1314 l 486 1321 l 281 1518 q 274 1528 275 1524 q 274 1536 274 1533 l 274 1536 q 284 1558 274 1549 q 304 1568 294 1568 l 304 1568 q 317 1565 311 1568 q 328 1557 322 1561 l 328 1557 l 521 1393 l 714 1557 q 726 1565 721 1561 q 738 1568 731 1568 z m 0 -521 l 0 -507 l 1043 -507 l 1043 -521 l 0 -521 z m 0 0 l 0 28 l 1043 28 l 1043 0 l 0 0 z m 0 694 l 0 701 l 1043 701 l 1043 694 l 0 694 z m 0 1215 l 0 1229 l 1043 1229 l 1043 1215 l 0 1215 z "},"Â":{"ha":1043,"x_min":0,"x_max":1043,"o":"m 69 -18 l 69 -18 q 42 -4 47 -14 q 42 22 36 6 l 42 22 l 475 1204 q 491 1229 481 1222 q 521 1236 501 1236 l 521 1236 q 551 1229 542 1236 q 567 1204 561 1222 l 567 1204 l 1000 22 q 1001 -4 1007 6 q 972 -18 994 -14 l 972 -18 q 944 -15 953 -21 q 926 14 935 -8 l 926 14 l 803 356 l 240 356 l 114 14 q 98 -15 107 -8 q 69 -18 89 -21 z m 521 1124 l 264 425 l 776 425 l 521 1124 z m 304 1304 l 304 1304 q 284 1315 294 1304 q 274 1336 274 1325 l 274 1336 q 274 1345 274 1340 q 281 1356 275 1350 l 281 1356 l 486 1551 q 501 1563 493 1558 q 521 1568 508 1568 l 521 1568 q 540 1563 533 1568 q 556 1551 547 1558 l 556 1551 l 761 1353 q 767 1344 767 1349 q 768 1336 768 1340 l 768 1336 q 758 1315 768 1325 q 738 1304 749 1304 l 738 1304 q 726 1307 731 1304 q 714 1315 721 1310 l 714 1315 l 521 1479 l 328 1315 q 317 1307 322 1310 q 304 1304 311 1304 z m 0 -521 l 0 -507 l 1043 -507 l 1043 -521 l 0 -521 z m 0 0 l 0 28 l 1043 28 l 1043 0 l 0 0 z m 0 694 l 0 701 l 1043 701 l 1043 694 l 0 694 z m 0 1215 l 0 1229 l 1043 1229 l 1043 1215 l 0 1215 z "},"Ä":{"ha":1043,"x_min":0,"x_max":1043,"o":"m 69 -18 l 69 -18 q 42 -4 47 -14 q 42 22 36 6 l 42 22 l 475 1204 q 491 1229 481 1222 q 521 1236 501 1236 l 521 1236 q 551 1229 542 1236 q 567 1204 561 1222 l 567 1204 l 1000 22 q 1001 -4 1007 6 q 972 -18 994 -14 l 972 -18 q 944 -15 953 -21 q 926 14 935 -8 l 926 14 l 803 356 l 240 356 l 114 14 q 98 -15 107 -8 q 69 -18 89 -21 z m 521 1124 l 264 425 l 776 425 l 521 1124 z m 350 1351 l 350 1351 q 305 1368 319 1351 q 290 1419 290 1385 l 290 1419 q 305 1472 290 1454 q 350 1489 319 1489 l 350 1489 q 396 1472 381 1489 q 411 1419 411 1454 l 411 1419 q 396 1368 411 1385 q 350 1351 381 1351 z m 692 1351 l 692 1351 q 647 1368 661 1351 q 632 1419 632 1385 l 632 1419 q 647 1472 632 1454 q 692 1489 661 1489 l 692 1489 q 738 1472 722 1489 q 753 1419 753 1454 l 753 1419 q 738 1368 753 1385 q 692 1351 722 1351 z m 0 -521 l 0 -507 l 1043 -507 l 1043 -521 l 0 -521 z m 0 0 l 0 28 l 1043 28 l 1043 0 l 0 0 z m 0 694 l 0 701 l 1043 701 l 1043 694 l 0 694 z m 0 1215 l 0 1229 l 1043 1229 l 1043 1215 l 0 1215 z "},"Ǽ":{"ha":1339,"x_min":0,"x_max":1339,"o":"m 1253 0 l 1253 0 l 722 0 q 694 8 703 0 q 685 32 685 15 l 685 32 l 685 574 l 392 574 l 100 1 q 79 -18 92 -15 q 49 -14 67 -21 l 49 -14 q 31 6 35 -6 q 35 32 26 17 l 35 32 l 628 1185 q 647 1209 638 1203 q 679 1215 657 1215 l 679 1215 l 1253 1215 q 1269 1208 1264 1215 q 1275 1181 1275 1200 l 1275 1181 q 1269 1153 1275 1161 q 1253 1146 1264 1146 l 1253 1146 l 760 1146 l 760 643 l 1165 643 q 1182 635 1176 643 q 1188 608 1188 628 l 1188 608 q 1182 581 1188 589 q 1165 574 1176 574 l 1165 574 l 760 574 l 760 69 l 1253 69 q 1269 62 1264 69 q 1275 35 1275 54 l 1275 35 q 1269 8 1275 15 q 1253 0 1264 0 z m 685 1146 l 426 643 l 685 643 l 685 1146 z m 857 1304 l 857 1304 q 835 1317 849 1304 q 822 1339 822 1329 l 822 1339 q 824 1347 822 1342 q 831 1356 825 1351 l 831 1356 l 1039 1556 q 1049 1565 1044 1561 q 1058 1568 1053 1568 l 1058 1568 q 1079 1560 1068 1568 q 1098 1542 1090 1553 q 1106 1522 1106 1532 l 1106 1522 q 1104 1513 1106 1517 q 1094 1501 1103 1508 l 1094 1501 l 876 1314 q 866 1307 869 1310 q 857 1304 863 1304 z m 0 -521 l 0 -507 l 1339 -507 l 1339 -521 l 0 -521 z m 0 0 l 0 28 l 1339 28 l 1339 0 l 0 0 z m 0 694 l 0 701 l 1339 701 l 1339 694 l 0 694 z m 0 1215 l 0 1229 l 1339 1229 l 1339 1215 l 0 1215 z "},"À":{"ha":1043,"x_min":0,"x_max":1043,"o":"m 69 -18 l 69 -18 q 42 -4 47 -14 q 42 22 36 6 l 42 22 l 475 1204 q 491 1229 481 1222 q 521 1236 501 1236 l 521 1236 q 551 1229 542 1236 q 567 1204 561 1222 l 567 1204 l 1000 22 q 1001 -4 1007 6 q 972 -18 994 -14 l 972 -18 q 944 -15 953 -21 q 926 14 935 -8 l 926 14 l 803 356 l 240 356 l 114 14 q 98 -15 107 -8 q 69 -18 89 -21 z m 521 1124 l 264 425 l 776 425 l 521 1124 z m 593 1304 l 593 1304 q 584 1307 588 1304 q 574 1314 581 1310 l 574 1314 l 356 1501 q 347 1513 349 1508 q 346 1522 346 1517 l 346 1522 q 353 1542 346 1532 q 372 1560 361 1553 q 392 1568 382 1568 l 392 1568 q 402 1565 397 1568 q 413 1556 407 1561 l 413 1556 l 619 1356 q 627 1347 626 1351 q 628 1339 628 1342 l 628 1339 q 615 1317 628 1329 q 593 1304 603 1304 z m 0 -521 l 0 -507 l 1043 -507 l 1043 -521 l 0 -521 z m 0 0 l 0 28 l 1043 28 l 1043 0 l 0 0 z m 0 694 l 0 701 l 1043 701 l 1043 694 l 0 694 z m 0 1215 l 0 1229 l 1043 1229 l 1043 1215 l 0 1215 z "},"Ā":{"ha":1043,"x_min":0,"x_max":1043,"o":"m 69 -18 l 69 -18 q 42 -4 47 -14 q 42 22 36 6 l 42 22 l 475 1204 q 491 1229 481 1222 q 521 1236 501 1236 l 521 1236 q 551 1229 542 1236 q 567 1204 561 1222 l 567 1204 l 1000 22 q 1001 -4 1007 6 q 972 -18 994 -14 l 972 -18 q 944 -15 953 -21 q 926 14 935 -8 l 926 14 l 803 356 l 240 356 l 114 14 q 98 -15 107 -8 q 69 -18 89 -21 z m 521 1124 l 264 425 l 776 425 l 521 1124 z m 707 1403 l 335 1403 q 314 1412 319 1403 q 308 1438 308 1421 l 308 1438 q 314 1465 308 1456 q 335 1475 319 1475 l 335 1475 l 707 1475 q 728 1465 722 1475 q 733 1438 733 1456 l 733 1438 q 728 1412 733 1421 q 707 1403 722 1403 l 707 1403 z m 0 -521 l 0 -507 l 1043 -507 l 1043 -521 l 0 -521 z m 0 0 l 0 28 l 1043 28 l 1043 0 l 0 0 z m 0 694 l 0 701 l 1043 701 l 1043 694 l 0 694 z m 0 1215 l 0 1229 l 1043 1229 l 1043 1215 l 0 1215 z "},"Ą":{"ha":1043,"x_min":0,"x_max":1044,"o":"m 69 -18 l 69 -18 q 42 -4 47 -14 q 42 22 36 6 l 42 22 l 475 1204 q 491 1229 481 1222 q 521 1236 501 1236 l 521 1236 q 551 1229 542 1236 q 567 1204 561 1222 l 567 1204 l 1000 22 q 1001 -4 1007 6 q 972 -18 994 -14 l 972 -18 q 944 -15 953 -21 q 926 14 935 -8 l 926 14 l 803 356 l 240 356 l 114 14 q 98 -15 107 -8 q 69 -18 89 -21 z m 521 1124 l 264 425 l 776 425 l 521 1124 z m 865 -360 l 865 -360 q 789 -333 818 -360 q 760 -253 760 -306 l 760 -253 q 772 -190 760 -221 q 807 -126 783 -158 q 865 -60 831 -94 q 944 14 899 -25 l 944 14 l 1000 10 l 1000 3 q 935 -60 965 -29 q 881 -123 904 -92 q 844 -183 857 -154 q 831 -239 831 -211 l 831 -239 q 842 -281 831 -265 q 878 -296 854 -296 l 878 -296 q 933 -277 904 -296 q 990 -224 963 -258 l 990 -224 q 1008 -213 999 -215 q 1026 -219 1017 -211 l 1026 -219 q 1042 -239 1039 -228 q 1036 -261 1044 -250 l 1036 -261 q 989 -314 1018 -292 q 927 -348 960 -336 q 865 -360 894 -360 z m 0 -521 l 0 -507 l 1043 -507 l 1043 -521 l 0 -521 z m 0 0 l 0 28 l 1043 28 l 1043 0 l 0 0 z m 0 694 l 0 701 l 1043 701 l 1043 694 l 0 694 z m 0 1215 l 0 1229 l 1043 1229 l 1043 1215 l 0 1215 z "},"Å":{"ha":1043,"x_min":0,"x_max":1043,"o":"m 69 -18 l 69 -18 q 42 -4 47 -14 q 42 22 36 6 l 42 22 l 475 1204 q 491 1229 481 1222 q 521 1236 501 1236 l 521 1236 q 551 1229 542 1236 q 567 1204 561 1222 l 567 1204 l 1000 22 q 1001 -4 1007 6 q 972 -18 994 -14 l 972 -18 q 944 -15 953 -21 q 926 14 935 -8 l 926 14 l 803 356 l 240 356 l 114 14 q 98 -15 107 -8 q 69 -18 89 -21 z m 521 1124 l 264 425 l 776 425 l 521 1124 z m 521 1289 l 521 1289 q 431 1309 471 1289 q 368 1366 390 1329 q 346 1450 346 1403 l 346 1450 q 368 1533 346 1497 q 431 1590 390 1569 q 521 1610 471 1610 l 521 1610 q 612 1590 572 1610 q 674 1533 651 1569 q 697 1450 697 1497 l 697 1450 q 674 1366 697 1403 q 612 1309 651 1329 q 521 1289 572 1289 z m 521 1350 l 521 1350 q 599 1378 569 1350 q 628 1450 628 1406 l 628 1450 q 599 1522 628 1494 q 521 1549 569 1549 l 521 1549 q 444 1522 474 1549 q 415 1450 415 1494 l 415 1450 q 444 1378 415 1406 q 521 1350 474 1350 z m 0 -521 l 0 -507 l 1043 -507 l 1043 -521 l 0 -521 z m 0 0 l 0 28 l 1043 28 l 1043 0 l 0 0 z m 0 694 l 0 701 l 1043 701 l 1043 694 l 0 694 z m 0 1215 l 0 1229 l 1043 1229 l 1043 1215 l 0 1215 z "},"Ã":{"ha":1043,"x_min":0,"x_max":1043,"o":"m 69 -18 l 69 -18 q 42 -4 47 -14 q 42 22 36 6 l 42 22 l 475 1204 q 491 1229 481 1222 q 521 1236 501 1236 l 521 1236 q 551 1229 542 1236 q 567 1204 561 1222 l 567 1204 l 1000 22 q 1001 -4 1007 6 q 972 -18 994 -14 l 972 -18 q 944 -15 953 -21 q 926 14 935 -8 l 926 14 l 803 356 l 240 356 l 114 14 q 98 -15 107 -8 q 69 -18 89 -21 z m 521 1124 l 264 425 l 776 425 l 521 1124 z m 306 1346 l 306 1346 q 274 1375 274 1346 l 274 1375 q 306 1493 276 1453 q 389 1533 336 1533 l 389 1533 q 463 1516 428 1533 q 531 1477 499 1499 q 593 1438 564 1456 q 647 1421 622 1421 l 647 1421 q 686 1444 674 1421 q 700 1511 699 1467 l 700 1511 q 733 1536 703 1536 l 733 1536 q 760 1530 753 1536 q 767 1507 767 1524 l 767 1507 q 735 1392 764 1433 q 647 1350 706 1350 l 647 1350 q 574 1367 610 1350 q 506 1406 539 1385 q 444 1445 474 1428 q 390 1463 415 1463 l 390 1463 q 353 1441 365 1463 q 339 1374 342 1419 l 339 1374 q 330 1352 338 1358 q 306 1346 322 1346 z m 0 -521 l 0 -507 l 1043 -507 l 1043 -521 l 0 -521 z m 0 0 l 0 28 l 1043 28 l 1043 0 l 0 0 z m 0 694 l 0 701 l 1043 701 l 1043 694 l 0 694 z m 0 1215 l 0 1229 l 1043 1229 l 1043 1215 l 0 1215 z "},"Ắ":{"ha":1043,"x_min":0,"x_max":1043,"o":"m 69 -18 l 69 -18 q 42 -4 47 -14 q 42 22 36 6 l 42 22 l 475 1204 q 491 1229 481 1222 q 521 1236 501 1236 l 521 1236 q 551 1229 542 1236 q 567 1204 561 1222 l 567 1204 l 1000 22 q 1001 -4 1007 6 q 972 -18 994 -14 l 972 -18 q 944 -15 953 -21 q 926 14 935 -8 l 926 14 l 803 356 l 240 356 l 114 14 q 98 -15 107 -8 q 69 -18 89 -21 z m 521 1124 l 264 425 l 776 425 l 521 1124 z m 521 1306 l 521 1306 q 357 1365 421 1306 q 288 1540 293 1424 l 288 1540 q 296 1560 288 1553 q 321 1568 304 1568 l 321 1568 q 344 1561 338 1568 q 353 1540 351 1554 l 353 1540 q 405 1423 361 1461 q 521 1385 449 1385 l 521 1385 q 638 1423 593 1385 q 690 1540 682 1461 l 690 1540 q 698 1561 692 1554 q 719 1568 704 1568 l 719 1568 q 747 1560 738 1568 q 754 1540 756 1553 l 754 1540 q 720 1412 751 1464 q 638 1333 689 1360 q 521 1306 586 1306 z m 449 1554 l 449 1554 q 427 1567 440 1554 q 414 1589 414 1579 l 414 1589 q 415 1597 414 1592 q 422 1606 417 1601 l 422 1606 l 631 1806 q 640 1815 636 1811 q 650 1818 644 1818 l 650 1818 q 671 1810 660 1818 q 690 1792 682 1803 q 697 1772 697 1782 l 697 1772 q 696 1763 697 1767 q 686 1751 694 1758 l 686 1751 l 468 1564 q 458 1557 461 1560 q 449 1554 454 1554 z m 0 -521 l 0 -507 l 1043 -507 l 1043 -521 l 0 -521 z m 0 0 l 0 28 l 1043 28 l 1043 0 l 0 0 z m 0 694 l 0 701 l 1043 701 l 1043 694 l 0 694 z m 0 1215 l 0 1229 l 1043 1229 l 1043 1215 l 0 1215 z "},"Ặ":{"ha":1043,"x_min":0,"x_max":1043,"o":"m 69 -18 l 69 -18 q 42 -4 47 -14 q 42 22 36 6 l 42 22 l 475 1204 q 491 1229 481 1222 q 521 1236 501 1236 l 521 1236 q 551 1229 542 1236 q 567 1204 561 1222 l 567 1204 l 1000 22 q 1001 -4 1007 6 q 972 -18 994 -14 l 972 -18 q 944 -15 953 -21 q 926 14 935 -8 l 926 14 l 803 356 l 240 356 l 114 14 q 98 -15 107 -8 q 69 -18 89 -21 z m 521 1124 l 264 425 l 776 425 l 521 1124 z m 521 -306 l 521 -306 q 476 -289 490 -306 q 461 -237 461 -272 l 461 -237 q 476 -185 461 -201 q 521 -168 490 -168 l 521 -168 q 567 -185 551 -168 q 582 -237 582 -201 l 582 -237 q 567 -289 582 -272 q 521 -306 551 -306 z m 521 1306 l 521 1306 q 357 1365 421 1306 q 288 1540 293 1424 l 288 1540 q 296 1560 288 1553 q 321 1568 304 1568 l 321 1568 q 344 1561 338 1568 q 353 1540 351 1554 l 353 1540 q 405 1423 361 1461 q 521 1385 449 1385 l 521 1385 q 638 1423 593 1385 q 690 1540 682 1461 l 690 1540 q 698 1561 692 1554 q 719 1568 704 1568 l 719 1568 q 747 1560 738 1568 q 754 1540 756 1553 l 754 1540 q 720 1412 751 1464 q 638 1333 689 1360 q 521 1306 586 1306 z m 0 -521 l 0 -507 l 1043 -507 l 1043 -521 l 0 -521 z m 0 0 l 0 28 l 1043 28 l 1043 0 l 0 0 z m 0 694 l 0 701 l 1043 701 l 1043 694 l 0 694 z m 0 1215 l 0 1229 l 1043 1229 l 1043 1215 l 0 1215 z "},"Ằ":{"ha":1043,"x_min":0,"x_max":1043,"o":"m 69 -18 l 69 -18 q 42 -4 47 -14 q 42 22 36 6 l 42 22 l 475 1204 q 491 1229 481 1222 q 521 1236 501 1236 l 521 1236 q 551 1229 542 1236 q 567 1204 561 1222 l 567 1204 l 1000 22 q 1001 -4 1007 6 q 972 -18 994 -14 l 972 -18 q 944 -15 953 -21 q 926 14 935 -8 l 926 14 l 803 356 l 240 356 l 114 14 q 98 -15 107 -8 q 69 -18 89 -21 z m 521 1124 l 264 425 l 776 425 l 521 1124 z m 521 1306 l 521 1306 q 357 1365 421 1306 q 288 1540 293 1424 l 288 1540 q 296 1560 288 1553 q 321 1568 304 1568 l 321 1568 q 344 1561 338 1568 q 353 1540 351 1554 l 353 1540 q 405 1423 361 1461 q 521 1385 449 1385 l 521 1385 q 638 1423 593 1385 q 690 1540 682 1461 l 690 1540 q 698 1561 692 1554 q 719 1568 704 1568 l 719 1568 q 747 1560 738 1568 q 754 1540 756 1553 l 754 1540 q 720 1412 751 1464 q 638 1333 689 1360 q 521 1306 586 1306 z m 593 1554 l 593 1554 q 584 1557 588 1554 q 574 1564 581 1560 l 574 1564 l 356 1751 q 347 1761 349 1757 q 346 1772 346 1765 l 346 1772 q 353 1792 346 1781 q 372 1810 361 1803 q 392 1818 382 1818 l 392 1818 q 402 1815 397 1818 q 413 1806 407 1811 l 413 1806 l 619 1606 q 627 1596 626 1600 q 628 1588 628 1592 l 628 1588 q 615 1567 628 1579 q 593 1554 603 1554 z m 0 -521 l 0 -507 l 1043 -507 l 1043 -521 l 0 -521 z m 0 0 l 0 28 l 1043 28 l 1043 0 l 0 0 z m 0 694 l 0 701 l 1043 701 l 1043 694 l 0 694 z m 0 1215 l 0 1229 l 1043 1229 l 1043 1215 l 0 1215 z "},"Ẳ":{"ha":1043,"x_min":0,"x_max":1043,"o":"m 69 -18 l 69 -18 q 42 -4 47 -14 q 42 22 36 6 l 42 22 l 475 1204 q 491 1229 481 1222 q 521 1236 501 1236 l 521 1236 q 551 1229 542 1236 q 567 1204 561 1222 l 567 1204 l 1000 22 q 1001 -4 1007 6 q 972 -18 994 -14 l 972 -18 q 944 -15 953 -21 q 926 14 935 -8 l 926 14 l 803 356 l 240 356 l 114 14 q 98 -15 107 -8 q 69 -18 89 -21 z m 521 1124 l 264 425 l 776 425 l 521 1124 z m 521 1306 l 521 1306 q 357 1365 421 1306 q 288 1540 293 1424 l 288 1540 q 296 1560 288 1553 q 321 1568 304 1568 l 321 1568 q 344 1561 338 1568 q 353 1540 351 1554 l 353 1540 q 405 1423 361 1461 q 521 1385 449 1385 l 521 1385 q 638 1423 593 1385 q 690 1540 682 1461 l 690 1540 q 698 1561 692 1554 q 719 1568 704 1568 l 719 1568 q 747 1560 738 1568 q 754 1540 756 1553 l 754 1540 q 720 1412 751 1464 q 638 1333 689 1360 q 521 1306 586 1306 z m 531 1839 l 531 1839 q 629 1809 592 1839 q 667 1732 667 1779 l 667 1732 q 650 1676 667 1700 q 594 1625 633 1651 l 594 1625 q 560 1593 568 1606 q 563 1558 553 1581 l 563 1558 l 565 1551 q 563 1531 569 1539 q 544 1518 556 1522 q 520 1516 532 1514 q 504 1528 508 1518 l 504 1528 l 493 1556 q 490 1617 479 1590 q 533 1665 500 1643 l 533 1665 q 574 1697 561 1682 q 586 1729 586 1713 l 586 1729 q 567 1761 586 1749 q 519 1774 547 1774 l 519 1774 q 473 1767 496 1774 q 431 1746 450 1760 l 431 1746 q 392 1758 406 1732 l 392 1758 q 399 1799 379 1782 l 399 1799 q 457 1829 424 1819 q 531 1839 490 1839 z m 0 -521 l 0 -507 l 1043 -507 l 1043 -521 l 0 -521 z m 0 0 l 0 28 l 1043 28 l 1043 0 l 0 0 z m 0 694 l 0 701 l 1043 701 l 1043 694 l 0 694 z m 0 1215 l 0 1229 l 1043 1229 l 1043 1215 l 0 1215 z "},"Ẵ":{"ha":1043,"x_min":0,"x_max":1043,"o":"m 69 -18 l 69 -18 q 42 -4 47 -14 q 42 22 36 6 l 42 22 l 475 1204 q 491 1229 481 1222 q 521 1236 501 1236 l 521 1236 q 551 1229 542 1236 q 567 1204 561 1222 l 567 1204 l 1000 22 q 1001 -4 1007 6 q 972 -18 994 -14 l 972 -18 q 944 -15 953 -21 q 926 14 935 -8 l 926 14 l 803 356 l 240 356 l 114 14 q 98 -15 107 -8 q 69 -18 89 -21 z m 521 1124 l 264 425 l 776 425 l 521 1124 z m 521 1306 l 521 1306 q 357 1365 421 1306 q 288 1540 293 1424 l 288 1540 q 296 1560 288 1553 q 321 1568 304 1568 l 321 1568 q 344 1561 338 1568 q 353 1540 351 1554 l 353 1540 q 405 1423 361 1461 q 521 1385 449 1385 l 521 1385 q 638 1423 593 1385 q 690 1540 682 1461 l 690 1540 q 698 1561 692 1554 q 719 1568 704 1568 l 719 1568 q 747 1560 738 1568 q 754 1540 756 1553 l 754 1540 q 720 1412 751 1464 q 638 1333 689 1360 q 521 1306 586 1306 z m 306 1628 l 306 1628 q 274 1657 274 1628 l 274 1657 q 306 1775 276 1735 q 389 1815 336 1815 l 389 1815 q 463 1798 428 1815 q 531 1759 499 1781 q 593 1720 564 1738 q 647 1703 622 1703 l 647 1703 q 686 1726 674 1703 q 700 1793 699 1749 l 700 1793 q 733 1818 703 1818 l 733 1818 q 760 1812 753 1818 q 767 1789 767 1806 l 767 1789 q 735 1674 764 1715 q 647 1632 706 1632 l 647 1632 q 574 1649 610 1632 q 506 1688 539 1667 q 444 1727 474 1710 q 390 1744 415 1744 l 390 1744 q 353 1723 365 1744 q 339 1656 342 1701 l 339 1656 q 330 1634 338 1640 q 306 1628 322 1628 z m 0 -521 l 0 -507 l 1043 -507 l 1043 -521 l 0 -521 z m 0 0 l 0 28 l 1043 28 l 1043 0 l 0 0 z m 0 694 l 0 701 l 1043 701 l 1043 694 l 0 694 z m 0 1215 l 0 1229 l 1043 1229 l 1043 1215 l 0 1215 z "},"Ấ":{"ha":1043,"x_min":0,"x_max":1043,"o":"m 69 -18 l 69 -18 q 42 -4 47 -14 q 42 22 36 6 l 42 22 l 475 1204 q 491 1229 481 1222 q 521 1236 501 1236 l 521 1236 q 551 1229 542 1236 q 567 1204 561 1222 l 567 1204 l 1000 22 q 1001 -4 1007 6 q 972 -18 994 -14 l 972 -18 q 944 -15 953 -21 q 926 14 935 -8 l 926 14 l 803 356 l 240 356 l 114 14 q 98 -15 107 -8 q 69 -18 89 -21 z m 521 1124 l 264 425 l 776 425 l 521 1124 z m 304 1304 l 304 1304 q 284 1315 294 1304 q 274 1336 274 1325 l 274 1336 q 274 1345 274 1340 q 281 1356 275 1350 l 281 1356 l 486 1551 q 501 1563 493 1558 q 521 1568 508 1568 l 521 1568 q 540 1563 533 1568 q 556 1551 547 1558 l 556 1551 l 761 1353 q 767 1344 767 1349 q 768 1336 768 1340 l 768 1336 q 758 1315 768 1325 q 738 1304 749 1304 l 738 1304 q 726 1307 731 1304 q 714 1315 721 1310 l 714 1315 l 521 1479 l 328 1315 q 317 1307 322 1310 q 304 1304 311 1304 z m 725 1514 l 725 1514 q 703 1526 715 1514 q 690 1549 690 1539 l 690 1549 q 691 1556 690 1553 q 697 1567 692 1560 l 697 1567 l 890 1754 q 900 1763 896 1760 q 911 1767 904 1767 l 911 1767 q 931 1759 919 1767 q 949 1740 942 1751 q 957 1721 957 1729 l 957 1721 q 956 1710 957 1714 q 946 1700 954 1706 l 946 1700 l 744 1524 q 733 1517 738 1521 q 725 1514 729 1514 z m 0 -521 l 0 -507 l 1043 -507 l 1043 -521 l 0 -521 z m 0 0 l 0 28 l 1043 28 l 1043 0 l 0 0 z m 0 694 l 0 701 l 1043 701 l 1043 694 l 0 694 z m 0 1215 l 0 1229 l 1043 1229 l 1043 1215 l 0 1215 z "},"Ậ":{"ha":1043,"x_min":0,"x_max":1043,"o":"m 69 -18 l 69 -18 q 42 -4 47 -14 q 42 22 36 6 l 42 22 l 475 1204 q 491 1229 481 1222 q 521 1236 501 1236 l 521 1236 q 551 1229 542 1236 q 567 1204 561 1222 l 567 1204 l 1000 22 q 1001 -4 1007 6 q 972 -18 994 -14 l 972 -18 q 944 -15 953 -21 q 926 14 935 -8 l 926 14 l 803 356 l 240 356 l 114 14 q 98 -15 107 -8 q 69 -18 89 -21 z m 521 1124 l 264 425 l 776 425 l 521 1124 z m 521 -306 l 521 -306 q 476 -289 490 -306 q 461 -237 461 -272 l 461 -237 q 476 -185 461 -201 q 521 -168 490 -168 l 521 -168 q 567 -185 551 -168 q 582 -237 582 -201 l 582 -237 q 567 -289 582 -272 q 521 -306 551 -306 z m 304 1304 l 304 1304 q 284 1315 294 1304 q 274 1336 274 1325 l 274 1336 q 274 1345 274 1340 q 281 1356 275 1350 l 281 1356 l 486 1551 q 501 1563 493 1558 q 521 1568 508 1568 l 521 1568 q 540 1563 533 1568 q 556 1551 547 1558 l 556 1551 l 761 1353 q 767 1344 767 1349 q 768 1336 768 1340 l 768 1336 q 758 1315 768 1325 q 738 1304 749 1304 l 738 1304 q 726 1307 731 1304 q 714 1315 721 1310 l 714 1315 l 521 1479 l 328 1315 q 317 1307 322 1310 q 304 1304 311 1304 z m 0 -521 l 0 -507 l 1043 -507 l 1043 -521 l 0 -521 z m 0 0 l 0 28 l 1043 28 l 1043 0 l 0 0 z m 0 694 l 0 701 l 1043 701 l 1043 694 l 0 694 z m 0 1215 l 0 1229 l 1043 1229 l 1043 1215 l 0 1215 z "},"Ầ":{"ha":1043,"x_min":0,"x_max":1043,"o":"m 69 -18 l 69 -18 q 42 -4 47 -14 q 42 22 36 6 l 42 22 l 475 1204 q 491 1229 481 1222 q 521 1236 501 1236 l 521 1236 q 551 1229 542 1236 q 567 1204 561 1222 l 567 1204 l 1000 22 q 1001 -4 1007 6 q 972 -18 994 -14 l 972 -18 q 944 -15 953 -21 q 926 14 935 -8 l 926 14 l 803 356 l 240 356 l 114 14 q 98 -15 107 -8 q 69 -18 89 -21 z m 521 1124 l 264 425 l 776 425 l 521 1124 z m 304 1304 l 304 1304 q 284 1315 294 1304 q 274 1336 274 1325 l 274 1336 q 274 1345 274 1340 q 281 1356 275 1350 l 281 1356 l 486 1551 q 501 1563 493 1558 q 521 1568 508 1568 l 521 1568 q 540 1563 533 1568 q 556 1551 547 1558 l 556 1551 l 761 1353 q 767 1344 767 1349 q 768 1336 768 1340 l 768 1336 q 758 1315 768 1325 q 738 1304 749 1304 l 738 1304 q 726 1307 731 1304 q 714 1315 721 1310 l 714 1315 l 521 1479 l 328 1315 q 317 1307 322 1310 q 304 1304 311 1304 z m 815 1501 l 815 1501 q 806 1503 810 1501 q 796 1511 803 1506 l 796 1511 l 582 1701 q 574 1713 575 1710 q 572 1722 572 1717 l 572 1722 q 580 1743 572 1732 q 598 1762 588 1754 q 618 1769 608 1769 l 618 1769 q 628 1766 624 1769 q 639 1757 632 1763 l 639 1757 l 842 1553 q 849 1543 847 1547 q 850 1535 850 1539 l 850 1535 q 838 1514 850 1526 q 815 1501 825 1501 z m 0 -521 l 0 -507 l 1043 -507 l 1043 -521 l 0 -521 z m 0 0 l 0 28 l 1043 28 l 1043 0 l 0 0 z m 0 694 l 0 701 l 1043 701 l 1043 694 l 0 694 z m 0 1215 l 0 1229 l 1043 1229 l 1043 1215 l 0 1215 z "},"Ẩ":{"ha":1043,"x_min":0,"x_max":1043,"o":"m 69 -18 l 69 -18 q 42 -4 47 -14 q 42 22 36 6 l 42 22 l 475 1204 q 491 1229 481 1222 q 521 1236 501 1236 l 521 1236 q 551 1229 542 1236 q 567 1204 561 1222 l 567 1204 l 1000 22 q 1001 -4 1007 6 q 972 -18 994 -14 l 972 -18 q 944 -15 953 -21 q 926 14 935 -8 l 926 14 l 803 356 l 240 356 l 114 14 q 98 -15 107 -8 q 69 -18 89 -21 z m 521 1124 l 264 425 l 776 425 l 521 1124 z m 304 1304 l 304 1304 q 284 1315 294 1304 q 274 1336 274 1325 l 274 1336 q 274 1345 274 1340 q 281 1356 275 1350 l 281 1356 l 486 1551 q 501 1563 493 1558 q 521 1568 508 1568 l 521 1568 q 540 1563 533 1568 q 556 1551 547 1558 l 556 1551 l 761 1353 q 767 1344 767 1349 q 768 1336 768 1340 l 768 1336 q 758 1315 768 1325 q 738 1304 749 1304 l 738 1304 q 726 1307 731 1304 q 714 1315 721 1310 l 714 1315 l 521 1479 l 328 1315 q 317 1307 322 1310 q 304 1304 311 1304 z m 763 1772 l 763 1772 q 861 1742 824 1772 q 899 1665 899 1713 l 899 1665 q 882 1609 899 1633 q 826 1558 865 1585 l 826 1558 q 792 1526 800 1539 q 794 1492 785 1514 l 794 1492 l 797 1485 q 794 1464 801 1472 q 776 1451 788 1456 q 752 1449 764 1447 q 736 1461 740 1451 l 736 1461 l 725 1489 q 722 1550 711 1524 q 765 1599 732 1576 l 765 1599 q 806 1631 793 1615 q 818 1663 818 1646 l 818 1663 q 799 1694 818 1682 q 751 1707 779 1707 l 751 1707 q 705 1700 728 1707 q 663 1679 682 1693 l 663 1679 q 624 1692 638 1665 l 624 1692 q 631 1732 611 1715 l 631 1732 q 689 1763 656 1753 q 763 1772 722 1772 z m 0 -521 l 0 -507 l 1043 -507 l 1043 -521 l 0 -521 z m 0 0 l 0 28 l 1043 28 l 1043 0 l 0 0 z m 0 694 l 0 701 l 1043 701 l 1043 694 l 0 694 z m 0 1215 l 0 1229 l 1043 1229 l 1043 1215 l 0 1215 z "},"Ẫ":{"ha":1043,"x_min":0,"x_max":1043,"o":"m 69 -18 l 69 -18 q 42 -4 47 -14 q 42 22 36 6 l 42 22 l 475 1204 q 491 1229 481 1222 q 521 1236 501 1236 l 521 1236 q 551 1229 542 1236 q 567 1204 561 1222 l 567 1204 l 1000 22 q 1001 -4 1007 6 q 972 -18 994 -14 l 972 -18 q 944 -15 953 -21 q 926 14 935 -8 l 926 14 l 803 356 l 240 356 l 114 14 q 98 -15 107 -8 q 69 -18 89 -21 z m 521 1124 l 264 425 l 776 425 l 521 1124 z m 304 1304 l 304 1304 q 284 1315 294 1304 q 274 1336 274 1325 l 274 1336 q 274 1345 274 1340 q 281 1356 275 1350 l 281 1356 l 486 1551 q 501 1563 493 1558 q 521 1568 508 1568 l 521 1568 q 540 1563 533 1568 q 556 1551 547 1558 l 556 1551 l 761 1353 q 767 1344 767 1349 q 768 1336 768 1340 l 768 1336 q 758 1315 768 1325 q 738 1304 749 1304 l 738 1304 q 726 1307 731 1304 q 714 1315 721 1310 l 714 1315 l 521 1479 l 328 1315 q 317 1307 322 1310 q 304 1304 311 1304 z m 307 1585 l 307 1585 q 275 1614 275 1585 l 275 1614 q 308 1732 278 1692 q 390 1772 338 1772 l 390 1772 q 465 1755 429 1772 q 533 1715 500 1738 q 594 1676 565 1693 q 649 1658 624 1658 l 649 1658 q 688 1682 675 1658 q 701 1749 700 1706 l 701 1749 q 735 1775 704 1775 l 735 1775 q 761 1769 754 1775 q 768 1746 768 1763 l 768 1746 q 736 1630 765 1672 q 650 1588 707 1588 l 650 1588 q 576 1605 611 1588 q 508 1644 540 1622 q 447 1684 475 1667 q 392 1701 418 1701 l 392 1701 q 355 1680 367 1701 q 340 1611 343 1658 l 340 1611 q 331 1591 339 1597 q 307 1585 324 1585 z m 0 -521 l 0 -507 l 1043 -507 l 1043 -521 l 0 -521 z m 0 0 l 0 28 l 1043 28 l 1043 0 l 0 0 z m 0 694 l 0 701 l 1043 701 l 1043 694 l 0 694 z m 0 1215 l 0 1229 l 1043 1229 l 1043 1215 l 0 1215 z "},"Ạ":{"ha":1043,"x_min":0,"x_max":1043,"o":"m 69 -18 l 69 -18 q 42 -4 47 -14 q 42 22 36 6 l 42 22 l 475 1204 q 491 1229 481 1222 q 521 1236 501 1236 l 521 1236 q 551 1229 542 1236 q 567 1204 561 1222 l 567 1204 l 1000 22 q 1001 -4 1007 6 q 972 -18 994 -14 l 972 -18 q 944 -15 953 -21 q 926 14 935 -8 l 926 14 l 803 356 l 240 356 l 114 14 q 98 -15 107 -8 q 69 -18 89 -21 z m 521 1124 l 264 425 l 776 425 l 521 1124 z m 521 -306 l 521 -306 q 476 -289 490 -306 q 461 -237 461 -272 l 461 -237 q 476 -185 461 -201 q 521 -168 490 -168 l 521 -168 q 567 -185 551 -168 q 582 -237 582 -201 l 582 -237 q 567 -289 582 -272 q 521 -306 551 -306 z m 0 -521 l 0 -507 l 1043 -507 l 1043 -521 l 0 -521 z m 0 0 l 0 28 l 1043 28 l 1043 0 l 0 0 z m 0 694 l 0 701 l 1043 701 l 1043 694 l 0 694 z m 0 1215 l 0 1229 l 1043 1229 l 1043 1215 l 0 1215 z "},"Ả":{"ha":1043,"x_min":0,"x_max":1043,"o":"m 69 -18 l 69 -18 q 42 -4 47 -14 q 42 22 36 6 l 42 22 l 475 1204 q 491 1229 481 1222 q 521 1236 501 1236 l 521 1236 q 551 1229 542 1236 q 567 1204 561 1222 l 567 1204 l 1000 22 q 1001 -4 1007 6 q 972 -18 994 -14 l 972 -18 q 944 -15 953 -21 q 926 14 935 -8 l 926 14 l 803 356 l 240 356 l 114 14 q 98 -15 107 -8 q 69 -18 89 -21 z m 521 1124 l 264 425 l 776 425 l 521 1124 z m 533 1606 l 533 1606 q 632 1576 594 1606 q 669 1499 669 1546 l 669 1499 q 653 1442 669 1467 q 597 1390 636 1418 l 597 1390 q 563 1360 571 1372 q 565 1325 556 1347 l 565 1325 l 568 1317 q 565 1297 572 1306 q 547 1284 558 1288 q 523 1283 535 1281 q 507 1294 511 1285 l 507 1294 l 496 1322 q 492 1383 482 1357 q 536 1431 503 1410 l 536 1431 q 576 1463 564 1449 q 589 1496 589 1478 l 589 1496 q 569 1527 589 1515 q 522 1539 550 1539 l 522 1539 q 476 1532 499 1539 q 433 1513 453 1525 l 433 1513 q 394 1525 408 1497 l 394 1525 q 401 1565 382 1549 l 401 1565 q 460 1595 426 1585 q 533 1606 493 1606 z m 0 -521 l 0 -507 l 1043 -507 l 1043 -521 l 0 -521 z m 0 0 l 0 28 l 1043 28 l 1043 0 l 0 0 z m 0 694 l 0 701 l 1043 701 l 1043 694 l 0 694 z m 0 1215 l 0 1229 l 1043 1229 l 1043 1215 l 0 1215 z "},"Ć":{"ha":1076,"x_min":0,"x_max":1076,"o":"m 603 -26 l 603 -26 q 410 17 499 -26 q 258 141 322 60 q 160 337 194 222 q 125 593 125 451 l 125 593 q 142 772 125 688 q 191 928 158 857 q 269 1056 224 999 q 374 1153 315 1114 q 501 1215 432 1193 q 646 1236 569 1236 l 646 1236 q 768 1222 710 1236 q 878 1176 826 1207 q 971 1090 931 1144 l 971 1090 q 980 1067 982 1076 q 965 1047 978 1058 l 965 1047 q 942 1037 953 1038 q 918 1049 931 1036 l 918 1049 q 840 1113 883 1088 q 749 1150 797 1138 q 644 1163 700 1163 l 644 1163 q 524 1144 581 1163 q 417 1092 467 1126 q 329 1007 368 1057 q 263 894 290 957 q 220 755 235 831 q 206 593 206 679 l 206 593 q 235 363 206 464 q 319 191 265 261 q 445 85 372 121 q 603 49 518 49 l 603 49 q 715 67 664 49 q 809 118 767 86 q 887 190 851 150 q 950 272 922 231 l 950 272 q 971 288 960 286 q 996 279 982 289 l 996 279 q 1013 258 1013 268 q 1006 235 1014 249 l 1006 235 q 900 101 960 161 q 766 8 840 42 q 603 -26 692 -26 z m 561 1304 l 561 1304 q 540 1317 553 1304 q 526 1339 526 1329 l 526 1339 q 528 1347 526 1342 q 535 1356 529 1351 l 535 1356 l 743 1556 q 753 1565 749 1561 q 763 1568 757 1568 l 763 1568 q 783 1560 772 1568 q 802 1542 794 1553 q 810 1522 810 1532 l 810 1522 q 808 1513 810 1517 q 799 1501 807 1508 l 799 1501 l 581 1314 q 570 1307 574 1310 q 561 1304 567 1304 z m 0 -521 l 0 -507 l 1076 -507 l 1076 -521 l 0 -521 z m 0 0 l 0 28 l 1076 28 l 1076 0 l 0 0 z m 0 694 l 0 701 l 1076 701 l 1076 694 l 0 694 z m 0 1215 l 0 1229 l 1076 1229 l 1076 1215 l 0 1215 z "},"Č":{"ha":1076,"x_min":0,"x_max":1076,"o":"m 603 -26 l 603 -26 q 410 17 499 -26 q 258 141 322 60 q 160 337 194 222 q 125 593 125 451 l 125 593 q 142 772 125 688 q 191 928 158 857 q 269 1056 224 999 q 374 1153 315 1114 q 501 1215 432 1193 q 646 1236 569 1236 l 646 1236 q 768 1222 710 1236 q 878 1176 826 1207 q 971 1090 931 1144 l 971 1090 q 980 1067 982 1076 q 965 1047 978 1058 l 965 1047 q 942 1037 953 1038 q 918 1049 931 1036 l 918 1049 q 840 1113 883 1088 q 749 1150 797 1138 q 644 1163 700 1163 l 644 1163 q 524 1144 581 1163 q 417 1092 467 1126 q 329 1007 368 1057 q 263 894 290 957 q 220 755 235 831 q 206 593 206 679 l 206 593 q 235 363 206 464 q 319 191 265 261 q 445 85 372 121 q 603 49 518 49 l 603 49 q 715 67 664 49 q 809 118 767 86 q 887 190 851 150 q 950 272 922 231 l 950 272 q 971 288 960 286 q 996 279 982 289 l 996 279 q 1013 258 1013 268 q 1006 235 1014 249 l 1006 235 q 900 101 960 161 q 766 8 840 42 q 603 -26 692 -26 z m 850 1568 l 850 1568 q 871 1558 861 1568 q 881 1535 881 1547 l 881 1535 q 880 1528 881 1532 q 874 1518 879 1524 l 874 1518 l 668 1321 q 653 1309 661 1314 q 633 1304 646 1304 l 633 1304 q 614 1309 621 1304 q 599 1321 607 1314 l 599 1321 l 393 1518 q 387 1528 388 1524 q 386 1536 386 1533 l 386 1536 q 397 1558 386 1549 q 417 1568 407 1568 l 417 1568 q 429 1565 424 1568 q 440 1557 435 1561 l 440 1557 l 633 1393 l 826 1557 q 838 1565 833 1561 q 850 1568 843 1568 z m 0 -521 l 0 -507 l 1076 -507 l 1076 -521 l 0 -521 z m 0 0 l 0 28 l 1076 28 l 1076 0 l 0 0 z m 0 694 l 0 701 l 1076 701 l 1076 694 l 0 694 z m 0 1215 l 0 1229 l 1076 1229 l 1076 1215 l 0 1215 z "},"Ç":{"ha":1076,"x_min":0,"x_max":1076,"o":"m 603 -26 l 603 -26 q 410 17 499 -26 q 258 141 322 60 q 160 337 194 222 q 125 593 125 451 l 125 593 q 142 772 125 688 q 191 928 158 857 q 269 1056 224 999 q 374 1153 315 1114 q 501 1215 432 1193 q 646 1236 569 1236 l 646 1236 q 768 1222 710 1236 q 878 1176 826 1207 q 971 1090 931 1144 l 971 1090 q 980 1067 982 1076 q 965 1047 978 1058 l 965 1047 q 942 1037 953 1038 q 918 1049 931 1036 l 918 1049 q 840 1113 883 1088 q 749 1150 797 1138 q 644 1163 700 1163 l 644 1163 q 524 1144 581 1163 q 417 1092 467 1126 q 329 1007 368 1057 q 263 894 290 957 q 220 755 235 831 q 206 593 206 679 l 206 593 q 235 363 206 464 q 319 191 265 261 q 445 85 372 121 q 603 49 518 49 l 603 49 q 715 67 664 49 q 809 118 767 86 q 887 190 851 150 q 950 272 922 231 l 950 272 q 971 288 960 286 q 996 279 982 289 l 996 279 q 1013 258 1013 268 q 1006 235 1014 249 l 1006 235 q 900 101 960 161 q 766 8 840 42 q 603 -26 692 -26 z m 589 -369 l 589 -369 q 528 -362 565 -369 q 457 -335 490 -356 l 457 -335 q 444 -316 446 -326 q 449 -293 442 -306 l 449 -293 q 464 -278 456 -282 q 485 -281 472 -275 l 485 -281 q 531 -297 506 -289 q 586 -306 557 -306 l 586 -306 q 649 -287 628 -306 q 671 -236 671 -269 l 671 -236 q 644 -187 671 -204 q 560 -178 618 -171 l 560 -178 q 540 -177 547 -179 q 528 -168 533 -175 l 528 -168 q 522 -150 522 -158 q 528 -131 522 -142 l 528 -131 l 588 6 l 647 6 l 581 -149 l 558 -131 q 651 -124 608 -115 q 718 -160 693 -132 q 743 -236 743 -187 l 743 -236 q 724 -306 743 -276 q 672 -353 706 -336 q 589 -369 638 -369 z m 0 -521 l 0 -507 l 1076 -507 l 1076 -521 l 0 -521 z m 0 0 l 0 28 l 1076 28 l 1076 0 l 0 0 z m 0 694 l 0 701 l 1076 701 l 1076 694 l 0 694 z m 0 1215 l 0 1229 l 1076 1229 l 1076 1215 l 0 1215 z "},"Ĉ":{"ha":1076,"x_min":0,"x_max":1076,"o":"m 603 -26 l 603 -26 q 410 17 499 -26 q 258 141 322 60 q 160 337 194 222 q 125 593 125 451 l 125 593 q 142 772 125 688 q 191 928 158 857 q 269 1056 224 999 q 374 1153 315 1114 q 501 1215 432 1193 q 646 1236 569 1236 l 646 1236 q 768 1222 710 1236 q 878 1176 826 1207 q 971 1090 931 1144 l 971 1090 q 980 1067 982 1076 q 965 1047 978 1058 l 965 1047 q 942 1037 953 1038 q 918 1049 931 1036 l 918 1049 q 840 1113 883 1088 q 749 1150 797 1138 q 644 1163 700 1163 l 644 1163 q 524 1144 581 1163 q 417 1092 467 1126 q 329 1007 368 1057 q 263 894 290 957 q 220 755 235 831 q 206 593 206 679 l 206 593 q 235 363 206 464 q 319 191 265 261 q 445 85 372 121 q 603 49 518 49 l 603 49 q 715 67 664 49 q 809 118 767 86 q 887 190 851 150 q 950 272 922 231 l 950 272 q 971 288 960 286 q 996 279 982 289 l 996 279 q 1013 258 1013 268 q 1006 235 1014 249 l 1006 235 q 900 101 960 161 q 766 8 840 42 q 603 -26 692 -26 z m 417 1304 l 417 1304 q 397 1315 407 1304 q 386 1336 386 1325 l 386 1336 q 387 1345 386 1340 q 393 1356 388 1350 l 393 1356 l 599 1551 q 613 1563 606 1558 q 633 1568 621 1568 l 633 1568 q 653 1563 646 1568 q 668 1551 660 1558 l 668 1551 l 874 1353 q 880 1344 879 1349 q 881 1336 881 1340 l 881 1336 q 871 1315 881 1325 q 850 1304 861 1304 l 850 1304 q 838 1307 843 1304 q 826 1315 833 1310 l 826 1315 l 633 1479 l 440 1315 q 429 1307 435 1310 q 417 1304 424 1304 z m 0 -521 l 0 -507 l 1076 -507 l 1076 -521 l 0 -521 z m 0 0 l 0 28 l 1076 28 l 1076 0 l 0 0 z m 0 694 l 0 701 l 1076 701 l 1076 694 l 0 694 z m 0 1215 l 0 1229 l 1076 1229 l 1076 1215 l 0 1215 z "},"Ċ":{"ha":1076,"x_min":0,"x_max":1076,"o":"m 603 -26 l 603 -26 q 410 17 499 -26 q 258 141 322 60 q 160 337 194 222 q 125 593 125 451 l 125 593 q 142 772 125 688 q 191 928 158 857 q 269 1056 224 999 q 374 1153 315 1114 q 501 1215 432 1193 q 646 1236 569 1236 l 646 1236 q 768 1222 710 1236 q 878 1176 826 1207 q 971 1090 931 1144 l 971 1090 q 980 1067 982 1076 q 965 1047 978 1058 l 965 1047 q 942 1037 953 1038 q 918 1049 931 1036 l 918 1049 q 840 1113 883 1088 q 749 1150 797 1138 q 644 1163 700 1163 l 644 1163 q 524 1144 581 1163 q 417 1092 467 1126 q 329 1007 368 1057 q 263 894 290 957 q 220 755 235 831 q 206 593 206 679 l 206 593 q 235 363 206 464 q 319 191 265 261 q 445 85 372 121 q 603 49 518 49 l 603 49 q 715 67 664 49 q 809 118 767 86 q 887 190 851 150 q 950 272 922 231 l 950 272 q 971 288 960 286 q 996 279 982 289 l 996 279 q 1013 258 1013 268 q 1006 235 1014 249 l 1006 235 q 900 101 960 161 q 766 8 840 42 q 603 -26 692 -26 z m 633 1351 l 633 1351 q 588 1368 603 1351 q 574 1419 574 1385 l 574 1419 q 588 1472 574 1454 q 633 1489 603 1489 l 633 1489 q 679 1472 664 1489 q 694 1419 694 1454 l 694 1419 q 679 1368 694 1385 q 633 1351 664 1351 z m 0 -521 l 0 -507 l 1076 -507 l 1076 -521 l 0 -521 z m 0 0 l 0 28 l 1076 28 l 1076 0 l 0 0 z m 0 694 l 0 701 l 1076 701 l 1076 694 l 0 694 z m 0 1215 l 0 1229 l 1076 1229 l 1076 1215 l 0 1215 z "},"Ď":{"ha":1207,"x_min":0,"x_max":1207,"o":"m 410 0 l 235 0 q 197 26 197 0 l 197 26 l 197 1189 q 207 1209 197 1203 q 236 1215 217 1215 l 236 1215 l 486 1215 q 726 1181 617 1215 q 915 1077 835 1146 q 1038 907 994 1008 q 1082 671 1082 806 l 1082 671 q 1057 459 1082 560 q 979 274 1032 358 q 846 129 926 190 q 657 34 765 68 q 410 0 549 0 l 410 0 z m 274 1143 l 274 72 l 408 72 q 626 101 531 72 q 793 185 722 131 q 910 314 864 239 q 978 479 956 389 q 1001 671 1001 569 l 1001 671 q 962 883 1001 793 q 852 1030 922 972 q 688 1115 782 1088 q 486 1143 594 1143 l 486 1143 l 274 1143 z m 781 1568 l 781 1568 q 801 1558 792 1568 q 811 1535 811 1547 l 811 1535 q 810 1528 811 1532 q 804 1518 808 1524 l 804 1518 l 599 1321 q 583 1309 590 1314 q 564 1304 576 1304 l 564 1304 q 544 1309 551 1304 q 529 1321 538 1314 l 529 1321 l 324 1518 q 317 1528 318 1524 q 317 1536 317 1533 l 317 1536 q 327 1558 317 1549 q 347 1568 338 1568 l 347 1568 q 359 1565 354 1568 q 371 1557 364 1561 l 371 1557 l 564 1393 l 757 1557 q 769 1565 764 1561 q 781 1568 774 1568 z m 0 -521 l 0 -507 l 1207 -507 l 1207 -521 l 0 -521 z m 0 0 l 0 28 l 1207 28 l 1207 0 l 0 0 z m 0 694 l 0 701 l 1207 701 l 1207 694 l 0 694 z m 0 1215 l 0 1229 l 1207 1229 l 1207 1215 l 0 1215 z "},"Đ":{"ha":1207,"x_min":0,"x_max":1207,"o":"m 410 0 l 235 0 q 197 26 197 0 l 197 26 l 197 1189 q 207 1209 197 1203 q 236 1215 217 1215 l 236 1215 l 486 1215 q 726 1181 617 1215 q 915 1077 835 1146 q 1038 907 994 1008 q 1082 671 1082 806 l 1082 671 q 1057 459 1082 560 q 979 274 1032 358 q 846 129 926 190 q 657 34 765 68 q 410 0 549 0 l 410 0 z m 274 1143 l 274 72 l 408 72 q 626 101 531 72 q 793 185 722 131 q 910 314 864 239 q 978 479 956 389 q 1001 671 1001 569 l 1001 671 q 962 883 1001 793 q 852 1030 922 972 q 688 1115 782 1088 q 486 1143 594 1143 l 486 1143 l 274 1143 z m 574 578 l 74 578 q 53 586 58 578 q 47 608 47 594 l 47 608 q 53 633 47 624 q 74 643 58 643 l 74 643 l 574 643 q 594 633 589 643 q 600 608 600 624 l 600 608 q 594 586 600 594 q 574 578 589 578 l 574 578 z m 0 -521 l 0 -507 l 1207 -507 l 1207 -521 l 0 -521 z m 0 0 l 0 28 l 1207 28 l 1207 0 l 0 0 z m 0 694 l 0 701 l 1207 701 l 1207 694 l 0 694 z m 0 1215 l 0 1229 l 1207 1229 l 1207 1215 l 0 1215 z "},"É":{"ha":921,"x_min":0,"x_max":921,"o":"m 833 0 l 235 0 q 206 8 215 0 q 197 32 197 15 l 197 32 l 197 1189 q 207 1209 197 1203 q 236 1215 217 1215 l 236 1215 l 833 1215 q 851 1208 844 1215 q 857 1181 857 1200 l 857 1181 q 851 1153 857 1161 q 833 1146 844 1146 l 833 1146 l 272 1146 l 272 678 l 747 678 q 764 670 758 678 q 769 643 769 663 l 769 643 q 764 616 769 624 q 747 608 758 608 l 747 608 l 272 608 l 272 69 l 833 69 q 851 62 844 69 q 857 35 857 54 l 857 35 q 851 8 857 15 q 833 0 844 0 l 833 0 z m 464 1304 l 464 1304 q 442 1317 456 1304 q 429 1339 429 1329 l 429 1339 q 431 1347 429 1342 q 438 1356 432 1351 l 438 1356 l 646 1556 q 656 1565 651 1561 q 665 1568 660 1568 l 665 1568 q 686 1560 675 1568 q 705 1542 697 1553 q 713 1522 713 1532 l 713 1522 q 711 1513 713 1517 q 701 1501 710 1508 l 701 1501 l 483 1314 q 473 1307 476 1310 q 464 1304 469 1304 z m 0 -521 l 0 -507 l 921 -507 l 921 -521 l 0 -521 z m 0 0 l 0 28 l 921 28 l 921 0 l 0 0 z m 0 694 l 0 701 l 921 701 l 921 694 l 0 694 z m 0 1215 l 0 1229 l 921 1229 l 921 1215 l 0 1215 z "},"Ĕ":{"ha":921,"x_min":0,"x_max":921,"o":"m 833 0 l 235 0 q 206 8 215 0 q 197 32 197 15 l 197 32 l 197 1189 q 207 1209 197 1203 q 236 1215 217 1215 l 236 1215 l 833 1215 q 851 1208 844 1215 q 857 1181 857 1200 l 857 1181 q 851 1153 857 1161 q 833 1146 844 1146 l 833 1146 l 272 1146 l 272 678 l 747 678 q 764 670 758 678 q 769 643 769 663 l 769 643 q 764 616 769 624 q 747 608 758 608 l 747 608 l 272 608 l 272 69 l 833 69 q 851 62 844 69 q 857 35 857 54 l 857 35 q 851 8 857 15 q 833 0 844 0 l 833 0 z m 536 1306 l 536 1306 q 372 1365 436 1306 q 303 1540 308 1424 l 303 1540 q 311 1560 303 1553 q 336 1568 319 1568 l 336 1568 q 360 1561 353 1568 q 368 1540 367 1554 l 368 1540 q 420 1423 376 1461 q 536 1385 464 1385 l 536 1385 q 653 1423 608 1385 q 706 1540 697 1461 l 706 1540 q 713 1561 707 1554 q 735 1568 719 1568 l 735 1568 q 762 1560 753 1568 q 769 1540 771 1553 l 769 1540 q 735 1412 767 1464 q 653 1333 704 1360 q 536 1306 601 1306 z m 0 -521 l 0 -507 l 921 -507 l 921 -521 l 0 -521 z m 0 0 l 0 28 l 921 28 l 921 0 l 0 0 z m 0 694 l 0 701 l 921 701 l 921 694 l 0 694 z m 0 1215 l 0 1229 l 921 1229 l 921 1215 l 0 1215 z "},"Ě":{"ha":921,"x_min":0,"x_max":921,"o":"m 833 0 l 235 0 q 206 8 215 0 q 197 32 197 15 l 197 32 l 197 1189 q 207 1209 197 1203 q 236 1215 217 1215 l 236 1215 l 833 1215 q 851 1208 844 1215 q 857 1181 857 1200 l 857 1181 q 851 1153 857 1161 q 833 1146 844 1146 l 833 1146 l 272 1146 l 272 678 l 747 678 q 764 670 758 678 q 769 643 769 663 l 769 643 q 764 616 769 624 q 747 608 758 608 l 747 608 l 272 608 l 272 69 l 833 69 q 851 62 844 69 q 857 35 857 54 l 857 35 q 851 8 857 15 q 833 0 844 0 l 833 0 z m 753 1568 l 753 1568 q 774 1558 764 1568 q 783 1535 783 1547 l 783 1535 q 783 1528 783 1532 q 776 1518 782 1524 l 776 1518 l 571 1321 q 556 1309 564 1314 q 536 1304 549 1304 l 536 1304 q 517 1309 524 1304 q 501 1321 510 1314 l 501 1321 l 296 1518 q 290 1528 290 1524 q 289 1536 289 1533 l 289 1536 q 299 1558 289 1549 q 319 1568 310 1568 l 319 1568 q 332 1565 326 1568 q 343 1557 338 1561 l 343 1557 l 536 1393 l 729 1557 q 741 1565 736 1561 q 753 1568 746 1568 z m 0 -521 l 0 -507 l 921 -507 l 921 -521 l 0 -521 z m 0 0 l 0 28 l 921 28 l 921 0 l 0 0 z m 0 694 l 0 701 l 921 701 l 921 694 l 0 694 z m 0 1215 l 0 1229 l 921 1229 l 921 1215 l 0 1215 z "},"Ê":{"ha":921,"x_min":0,"x_max":921,"o":"m 833 0 l 235 0 q 206 8 215 0 q 197 32 197 15 l 197 32 l 197 1189 q 207 1209 197 1203 q 236 1215 217 1215 l 236 1215 l 833 1215 q 851 1208 844 1215 q 857 1181 857 1200 l 857 1181 q 851 1153 857 1161 q 833 1146 844 1146 l 833 1146 l 272 1146 l 272 678 l 747 678 q 764 670 758 678 q 769 643 769 663 l 769 643 q 764 616 769 624 q 747 608 758 608 l 747 608 l 272 608 l 272 69 l 833 69 q 851 62 844 69 q 857 35 857 54 l 857 35 q 851 8 857 15 q 833 0 844 0 l 833 0 z m 319 1304 l 319 1304 q 299 1315 310 1304 q 289 1336 289 1325 l 289 1336 q 290 1345 289 1340 q 296 1356 290 1350 l 296 1356 l 501 1551 q 516 1563 508 1558 q 536 1568 524 1568 l 536 1568 q 556 1563 549 1568 q 571 1551 563 1558 l 571 1551 l 776 1353 q 783 1344 782 1349 q 783 1336 783 1340 l 783 1336 q 774 1315 783 1325 q 753 1304 764 1304 l 753 1304 q 741 1307 746 1304 q 729 1315 736 1310 l 729 1315 l 536 1479 l 343 1315 q 332 1307 338 1310 q 319 1304 326 1304 z m 0 -521 l 0 -507 l 921 -507 l 921 -521 l 0 -521 z m 0 0 l 0 28 l 921 28 l 921 0 l 0 0 z m 0 694 l 0 701 l 921 701 l 921 694 l 0 694 z m 0 1215 l 0 1229 l 921 1229 l 921 1215 l 0 1215 z "},"Ë":{"ha":921,"x_min":0,"x_max":921,"o":"m 833 0 l 235 0 q 206 8 215 0 q 197 32 197 17 l 197 32 l 197 1189 q 207 1209 197 1203 q 236 1215 217 1215 l 236 1215 l 833 1215 q 851 1208 844 1215 q 857 1181 857 1200 l 857 1181 q 851 1153 857 1161 q 833 1146 844 1146 l 833 1146 l 272 1146 l 272 678 l 747 678 q 764 670 758 678 q 769 643 769 663 l 769 643 q 764 616 769 624 q 747 608 758 608 l 747 608 l 272 608 l 272 69 l 833 69 q 851 62 844 69 q 857 35 857 54 l 857 35 q 851 8 857 15 q 833 0 844 0 l 833 0 z m 365 1351 l 365 1351 q 320 1368 335 1351 q 306 1418 306 1385 l 306 1418 q 320 1472 306 1454 q 365 1489 335 1489 l 365 1489 q 411 1472 396 1489 q 426 1419 426 1454 l 426 1419 q 411 1368 426 1385 q 365 1351 396 1351 z m 708 1351 l 708 1351 q 662 1368 676 1351 q 647 1418 647 1385 l 647 1418 q 663 1472 647 1454 q 707 1489 678 1489 l 707 1489 q 753 1472 738 1489 q 768 1419 768 1454 l 768 1419 q 753 1368 768 1385 q 708 1351 738 1351 z m 0 -521 l 0 -507 l 921 -507 l 921 -521 l 0 -521 z m 0 0 l 0 28 l 921 28 l 921 0 l 0 0 z m 0 694 l 0 701 l 921 701 l 921 694 l 0 694 z m 0 1215 l 0 1229 l 921 1229 l 921 1215 l 0 1215 z "},"Ė":{"ha":921,"x_min":0,"x_max":921,"o":"m 833 0 l 235 0 q 206 8 215 0 q 197 32 197 15 l 197 32 l 197 1189 q 207 1209 197 1203 q 236 1215 217 1215 l 236 1215 l 833 1215 q 851 1208 844 1215 q 857 1181 857 1200 l 857 1181 q 851 1153 857 1161 q 833 1146 844 1146 l 833 1146 l 272 1146 l 272 678 l 747 678 q 764 670 758 678 q 769 643 769 663 l 769 643 q 764 616 769 624 q 747 608 758 608 l 747 608 l 272 608 l 272 69 l 833 69 q 851 62 844 69 q 857 35 857 54 l 857 35 q 851 8 857 15 q 833 0 844 0 l 833 0 z m 536 1351 l 536 1351 q 491 1368 506 1351 q 476 1419 476 1385 l 476 1419 q 491 1472 476 1454 q 536 1489 506 1489 l 536 1489 q 582 1472 567 1489 q 597 1419 597 1454 l 597 1419 q 582 1368 597 1385 q 536 1351 567 1351 z m 0 -521 l 0 -507 l 921 -507 l 921 -521 l 0 -521 z m 0 0 l 0 28 l 921 28 l 921 0 l 0 0 z m 0 694 l 0 701 l 921 701 l 921 694 l 0 694 z m 0 1215 l 0 1229 l 921 1229 l 921 1215 l 0 1215 z "},"È":{"ha":921,"x_min":0,"x_max":921,"o":"m 833 0 l 235 0 q 206 8 215 0 q 197 32 197 15 l 197 32 l 197 1189 q 207 1209 197 1203 q 236 1215 217 1215 l 236 1215 l 833 1215 q 851 1208 844 1215 q 857 1181 857 1200 l 857 1181 q 851 1153 857 1161 q 833 1146 844 1146 l 833 1146 l 272 1146 l 272 678 l 747 678 q 764 670 758 678 q 769 643 769 663 l 769 643 q 764 616 769 624 q 747 608 758 608 l 747 608 l 272 608 l 272 69 l 833 69 q 851 62 844 69 q 857 35 857 54 l 857 35 q 851 8 857 15 q 833 0 844 0 l 833 0 z m 608 1304 l 608 1304 q 599 1307 603 1304 q 589 1314 596 1310 l 589 1314 l 371 1501 q 363 1513 364 1508 q 361 1522 361 1517 l 361 1522 q 369 1542 361 1532 q 387 1560 376 1553 q 407 1568 397 1568 l 407 1568 q 417 1565 413 1568 q 428 1556 422 1561 l 428 1556 l 635 1356 q 642 1347 642 1351 q 643 1339 643 1342 l 643 1339 q 631 1317 643 1329 q 608 1304 618 1304 z m 0 -521 l 0 -507 l 921 -507 l 921 -521 l 0 -521 z m 0 0 l 0 28 l 921 28 l 921 0 l 0 0 z m 0 694 l 0 701 l 921 701 l 921 694 l 0 694 z m 0 1215 l 0 1229 l 921 1229 l 921 1215 l 0 1215 z "},"Ē":{"ha":921,"x_min":0,"x_max":921,"o":"m 833 0 l 235 0 q 206 8 215 0 q 197 32 197 15 l 197 32 l 197 1189 q 207 1209 197 1203 q 236 1215 217 1215 l 236 1215 l 833 1215 q 851 1208 844 1215 q 857 1181 857 1200 l 857 1181 q 851 1153 857 1161 q 833 1146 844 1146 l 833 1146 l 272 1146 l 272 678 l 747 678 q 764 670 758 678 q 769 643 769 663 l 769 643 q 764 616 769 624 q 747 608 758 608 l 747 608 l 272 608 l 272 69 l 833 69 q 851 62 844 69 q 857 35 857 54 l 857 35 q 851 8 857 15 q 833 0 844 0 l 833 0 z m 722 1403 l 350 1403 q 329 1412 335 1403 q 324 1438 324 1421 l 324 1438 q 329 1465 324 1456 q 350 1475 335 1475 l 350 1475 l 722 1475 q 743 1465 738 1475 q 749 1438 749 1456 l 749 1438 q 743 1412 749 1421 q 722 1403 738 1403 l 722 1403 z m 0 -521 l 0 -507 l 921 -507 l 921 -521 l 0 -521 z m 0 0 l 0 28 l 921 28 l 921 0 l 0 0 z m 0 694 l 0 701 l 921 701 l 921 694 l 0 694 z m 0 1215 l 0 1229 l 921 1229 l 921 1215 l 0 1215 z "},"Ę":{"ha":921,"x_min":0,"x_max":921,"o":"m 833 0 l 235 0 q 206 8 215 0 q 197 32 197 15 l 197 32 l 197 1189 q 207 1209 197 1203 q 236 1215 217 1215 l 236 1215 l 833 1215 q 851 1208 844 1215 q 857 1181 857 1200 l 857 1181 q 851 1153 857 1161 q 833 1146 844 1146 l 833 1146 l 272 1146 l 272 678 l 747 678 q 764 670 758 678 q 769 643 769 663 l 769 643 q 764 616 769 624 q 747 608 758 608 l 747 608 l 272 608 l 272 69 l 833 69 q 851 62 844 69 q 857 35 857 54 l 857 35 q 851 8 857 15 q 833 0 844 0 l 833 0 z m 715 -347 l 715 -347 q 639 -320 668 -347 q 610 -240 610 -293 l 610 -240 q 622 -177 610 -208 q 657 -114 633 -146 q 715 -47 681 -82 q 794 26 749 -12 l 794 26 l 850 22 l 850 15 q 785 -48 815 -17 q 731 -110 754 -79 q 694 -170 707 -142 q 681 -226 681 -199 l 681 -226 q 692 -268 681 -253 q 728 -283 704 -283 l 728 -283 q 785 -265 756 -283 q 840 -211 814 -246 l 840 -211 q 858 -201 849 -203 q 876 -207 868 -199 l 876 -207 q 892 -226 889 -215 q 888 -249 894 -237 l 888 -249 q 839 -301 868 -279 q 777 -335 810 -324 q 715 -347 744 -347 z m 0 -521 l 0 -507 l 921 -507 l 921 -521 l 0 -521 z m 0 0 l 0 28 l 921 28 l 921 0 l 0 0 z m 0 694 l 0 701 l 921 701 l 921 694 l 0 694 z m 0 1215 l 0 1229 l 921 1229 l 921 1215 l 0 1215 z "},"Ế":{"ha":921,"x_min":0,"x_max":972,"o":"m 833 0 l 235 0 q 206 8 215 0 q 197 32 197 15 l 197 32 l 197 1189 q 207 1209 197 1203 q 236 1215 217 1215 l 236 1215 l 833 1215 q 851 1208 844 1215 q 857 1181 857 1200 l 857 1181 q 851 1153 857 1161 q 833 1146 844 1146 l 833 1146 l 272 1146 l 272 678 l 747 678 q 764 670 758 678 q 769 643 769 663 l 769 643 q 764 616 769 624 q 747 608 758 608 l 747 608 l 272 608 l 272 69 l 833 69 q 851 62 844 69 q 857 35 857 54 l 857 35 q 851 8 857 15 q 833 0 844 0 l 833 0 z m 319 1304 l 319 1304 q 299 1315 310 1304 q 289 1336 289 1325 l 289 1336 q 290 1345 289 1340 q 296 1356 290 1350 l 296 1356 l 501 1551 q 516 1563 508 1558 q 536 1568 524 1568 l 536 1568 q 556 1563 549 1568 q 571 1551 563 1558 l 571 1551 l 776 1353 q 783 1344 782 1349 q 783 1336 783 1340 l 783 1336 q 774 1315 783 1325 q 753 1304 764 1304 l 753 1304 q 741 1307 746 1304 q 729 1315 736 1310 l 729 1315 l 536 1479 l 343 1315 q 332 1307 338 1310 q 319 1304 326 1304 z m 740 1514 l 740 1514 q 718 1526 731 1514 q 706 1549 706 1539 l 706 1549 q 706 1556 706 1553 q 713 1567 707 1560 l 713 1567 l 906 1754 q 915 1763 911 1760 q 926 1767 919 1767 l 926 1767 q 946 1759 935 1767 q 965 1740 957 1751 q 972 1721 972 1729 l 972 1721 q 971 1710 972 1714 q 961 1700 969 1706 l 961 1700 l 760 1524 q 749 1517 753 1521 q 740 1514 744 1514 z m 0 -521 l 0 -507 l 921 -507 l 921 -521 l 0 -521 z m 0 0 l 0 28 l 921 28 l 921 0 l 0 0 z m 0 694 l 0 701 l 921 701 l 921 694 l 0 694 z m 0 1215 l 0 1229 l 921 1229 l 921 1215 l 0 1215 z "},"Ệ":{"ha":921,"x_min":0,"x_max":921,"o":"m 833 0 l 235 0 q 206 8 215 0 q 197 32 197 15 l 197 32 l 197 1189 q 207 1209 197 1203 q 236 1215 217 1215 l 236 1215 l 833 1215 q 851 1208 844 1215 q 857 1181 857 1200 l 857 1181 q 851 1153 857 1161 q 833 1146 844 1146 l 833 1146 l 272 1146 l 272 678 l 747 678 q 764 670 758 678 q 769 643 769 663 l 769 643 q 764 616 769 624 q 747 608 758 608 l 747 608 l 272 608 l 272 69 l 833 69 q 851 62 844 69 q 857 35 857 54 l 857 35 q 851 8 857 15 q 833 0 844 0 l 833 0 z m 511 -306 l 511 -306 q 466 -289 481 -306 q 451 -237 451 -272 l 451 -237 q 466 -185 451 -201 q 511 -168 481 -168 l 511 -168 q 557 -185 542 -168 q 572 -237 572 -201 l 572 -237 q 557 -289 572 -272 q 511 -306 542 -306 z m 319 1304 l 319 1304 q 299 1315 310 1304 q 289 1336 289 1325 l 289 1336 q 290 1345 289 1340 q 296 1356 290 1350 l 296 1356 l 501 1551 q 516 1563 508 1558 q 536 1568 524 1568 l 536 1568 q 556 1563 549 1568 q 571 1551 563 1558 l 571 1551 l 776 1353 q 783 1344 782 1349 q 783 1336 783 1340 l 783 1336 q 774 1315 783 1325 q 753 1304 764 1304 l 753 1304 q 741 1307 746 1304 q 729 1315 736 1310 l 729 1315 l 536 1479 l 343 1315 q 332 1307 338 1310 q 319 1304 326 1304 z m 0 -521 l 0 -507 l 921 -507 l 921 -521 l 0 -521 z m 0 0 l 0 28 l 921 28 l 921 0 l 0 0 z m 0 694 l 0 701 l 921 701 l 921 694 l 0 694 z m 0 1215 l 0 1229 l 921 1229 l 921 1215 l 0 1215 z "},"Ề":{"ha":921,"x_min":0,"x_max":921,"o":"m 833 0 l 235 0 q 206 8 215 0 q 197 32 197 15 l 197 32 l 197 1189 q 207 1209 197 1203 q 236 1215 217 1215 l 236 1215 l 833 1215 q 851 1208 844 1215 q 857 1181 857 1200 l 857 1181 q 851 1153 857 1161 q 833 1146 844 1146 l 833 1146 l 272 1146 l 272 678 l 747 678 q 764 670 758 678 q 769 643 769 663 l 769 643 q 764 616 769 624 q 747 608 758 608 l 747 608 l 272 608 l 272 69 l 833 69 q 851 62 844 69 q 857 35 857 54 l 857 35 q 851 8 857 15 q 833 0 844 0 l 833 0 z m 319 1304 l 319 1304 q 299 1315 310 1304 q 289 1336 289 1325 l 289 1336 q 290 1345 289 1340 q 296 1356 290 1350 l 296 1356 l 501 1551 q 516 1563 508 1558 q 536 1568 524 1568 l 536 1568 q 556 1563 549 1568 q 571 1551 563 1558 l 571 1551 l 776 1353 q 783 1344 782 1349 q 783 1336 783 1340 l 783 1336 q 774 1315 783 1325 q 753 1304 764 1304 l 753 1304 q 741 1307 746 1304 q 729 1315 736 1310 l 729 1315 l 536 1479 l 343 1315 q 332 1307 338 1310 q 319 1304 326 1304 z m 831 1501 l 831 1501 q 822 1503 825 1501 q 811 1511 818 1506 l 811 1511 l 597 1701 q 589 1713 590 1710 q 588 1722 588 1717 l 588 1722 q 595 1743 588 1732 q 613 1762 603 1754 q 633 1769 624 1769 l 633 1769 q 643 1766 639 1769 q 654 1757 647 1763 l 654 1757 l 857 1553 q 864 1543 863 1547 q 865 1535 865 1539 l 865 1535 q 853 1514 865 1526 q 831 1501 840 1501 z m 0 -521 l 0 -507 l 921 -507 l 921 -521 l 0 -521 z m 0 0 l 0 28 l 921 28 l 921 0 l 0 0 z m 0 694 l 0 701 l 921 701 l 921 694 l 0 694 z m 0 1215 l 0 1229 l 921 1229 l 921 1215 l 0 1215 z "},"Ể":{"ha":921,"x_min":0,"x_max":921,"o":"m 833 0 l 235 0 q 206 8 215 0 q 197 32 197 15 l 197 32 l 197 1189 q 207 1209 197 1203 q 236 1215 217 1215 l 236 1215 l 833 1215 q 851 1208 844 1215 q 857 1181 857 1200 l 857 1181 q 851 1153 857 1161 q 833 1146 844 1146 l 833 1146 l 272 1146 l 272 678 l 747 678 q 764 670 758 678 q 769 643 769 663 l 769 643 q 764 616 769 624 q 747 608 758 608 l 747 608 l 272 608 l 272 69 l 833 69 q 851 62 844 69 q 857 35 857 54 l 857 35 q 851 8 857 15 q 833 0 844 0 l 833 0 z m 319 1304 l 319 1304 q 299 1315 310 1304 q 289 1336 289 1325 l 289 1336 q 290 1345 289 1340 q 296 1356 290 1350 l 296 1356 l 501 1551 q 516 1563 508 1558 q 536 1568 524 1568 l 536 1568 q 556 1563 549 1568 q 571 1551 563 1558 l 571 1551 l 776 1353 q 783 1344 782 1349 q 783 1336 783 1340 l 783 1336 q 774 1315 783 1325 q 753 1304 764 1304 l 753 1304 q 741 1307 746 1304 q 729 1315 736 1310 l 729 1315 l 536 1479 l 343 1315 q 332 1307 338 1310 q 319 1304 326 1304 z m 778 1772 l 778 1772 q 876 1742 839 1772 q 914 1665 914 1713 l 914 1665 q 897 1609 914 1633 q 842 1558 881 1585 l 842 1558 q 808 1526 815 1539 q 810 1492 800 1514 l 810 1492 l 813 1485 q 810 1464 817 1472 q 791 1451 803 1456 q 767 1449 779 1447 q 751 1461 756 1451 l 751 1461 l 740 1489 q 737 1550 726 1524 q 781 1599 747 1576 l 781 1599 q 821 1631 808 1615 q 833 1663 833 1646 l 833 1663 q 814 1694 833 1682 q 767 1707 794 1707 l 767 1707 q 720 1700 743 1707 q 678 1679 697 1693 l 678 1679 q 639 1692 653 1665 l 639 1692 q 646 1732 626 1715 l 646 1732 q 704 1763 671 1753 q 778 1772 738 1772 z m 0 -521 l 0 -507 l 921 -507 l 921 -521 l 0 -521 z m 0 0 l 0 28 l 921 28 l 921 0 l 0 0 z m 0 694 l 0 701 l 921 701 l 921 694 l 0 694 z m 0 1215 l 0 1229 l 921 1229 l 921 1215 l 0 1215 z "},"Ễ":{"ha":921,"x_min":0,"x_max":921,"o":"m 833 0 l 235 0 q 206 8 215 0 q 197 32 197 15 l 197 32 l 197 1189 q 207 1209 197 1203 q 236 1215 217 1215 l 236 1215 l 833 1215 q 851 1208 844 1215 q 857 1181 857 1200 l 857 1181 q 851 1153 857 1161 q 833 1146 844 1146 l 833 1146 l 272 1146 l 272 678 l 747 678 q 764 670 758 678 q 769 643 769 663 l 769 643 q 764 616 769 624 q 747 608 758 608 l 747 608 l 272 608 l 272 69 l 833 69 q 851 62 844 69 q 857 35 857 54 l 857 35 q 851 8 857 15 q 833 0 844 0 l 833 0 z m 319 1304 l 319 1304 q 299 1315 310 1304 q 289 1336 289 1325 l 289 1336 q 290 1345 289 1340 q 296 1356 290 1350 l 296 1356 l 501 1551 q 516 1563 508 1558 q 536 1568 524 1568 l 536 1568 q 556 1563 549 1568 q 571 1551 563 1558 l 571 1551 l 776 1353 q 783 1344 782 1349 q 783 1336 783 1340 l 783 1336 q 774 1315 783 1325 q 753 1304 764 1304 l 753 1304 q 741 1307 746 1304 q 729 1315 736 1310 l 729 1315 l 536 1479 l 343 1315 q 332 1307 338 1310 q 319 1304 326 1304 z m 322 1585 l 322 1585 q 290 1614 290 1585 l 290 1614 q 323 1732 293 1692 q 406 1772 353 1772 l 406 1772 q 480 1755 444 1772 q 548 1715 515 1738 q 610 1676 581 1693 q 664 1658 639 1658 l 664 1658 q 703 1682 690 1658 q 717 1749 715 1706 l 717 1749 q 751 1775 719 1775 l 751 1775 q 776 1769 769 1775 q 783 1746 783 1763 l 783 1746 q 751 1630 781 1672 q 665 1588 722 1588 l 665 1588 q 591 1605 626 1588 q 523 1644 556 1622 q 462 1684 490 1667 q 407 1701 433 1701 l 407 1701 q 370 1680 382 1701 q 356 1611 358 1658 l 356 1611 q 347 1591 354 1597 q 322 1585 339 1585 z m 0 -521 l 0 -507 l 921 -507 l 921 -521 l 0 -521 z m 0 0 l 0 28 l 921 28 l 921 0 l 0 0 z m 0 694 l 0 701 l 921 701 l 921 694 l 0 694 z m 0 1215 l 0 1229 l 921 1229 l 921 1215 l 0 1215 z "},"Ẹ":{"ha":921,"x_min":0,"x_max":921,"o":"m 833 0 l 235 0 q 206 8 215 0 q 197 32 197 15 l 197 32 l 197 1189 q 207 1209 197 1203 q 236 1215 217 1215 l 236 1215 l 833 1215 q 851 1208 844 1215 q 857 1181 857 1200 l 857 1181 q 851 1153 857 1161 q 833 1146 844 1146 l 833 1146 l 272 1146 l 272 678 l 747 678 q 764 670 758 678 q 769 643 769 663 l 769 643 q 764 616 769 624 q 747 608 758 608 l 747 608 l 272 608 l 272 69 l 833 69 q 851 62 844 69 q 857 35 857 54 l 857 35 q 851 8 857 15 q 833 0 844 0 l 833 0 z m 511 -306 l 511 -306 q 466 -289 481 -306 q 451 -237 451 -272 l 451 -237 q 466 -185 451 -201 q 511 -168 481 -168 l 511 -168 q 557 -185 542 -168 q 572 -237 572 -201 l 572 -237 q 557 -289 572 -272 q 511 -306 542 -306 z m 0 -521 l 0 -507 l 921 -507 l 921 -521 l 0 -521 z m 0 0 l 0 28 l 921 28 l 921 0 l 0 0 z m 0 694 l 0 701 l 921 701 l 921 694 l 0 694 z m 0 1215 l 0 1229 l 921 1229 l 921 1215 l 0 1215 z "},"Ẻ":{"ha":921,"x_min":0,"x_max":921,"o":"m 833 0 l 235 0 q 206 8 215 0 q 197 32 197 15 l 197 32 l 197 1189 q 207 1209 197 1203 q 236 1215 217 1215 l 236 1215 l 833 1215 q 851 1208 844 1215 q 857 1181 857 1200 l 857 1181 q 851 1153 857 1161 q 833 1146 844 1146 l 833 1146 l 272 1146 l 272 678 l 747 678 q 764 670 758 678 q 769 643 769 663 l 769 643 q 764 616 769 624 q 747 608 758 608 l 747 608 l 272 608 l 272 69 l 833 69 q 851 62 844 69 q 857 35 857 54 l 857 35 q 851 8 857 15 q 833 0 844 0 l 833 0 z m 549 1606 l 549 1606 q 647 1576 610 1606 q 685 1499 685 1546 l 685 1499 q 668 1442 685 1467 q 613 1390 651 1418 l 613 1390 q 578 1360 586 1372 q 581 1325 571 1347 l 581 1325 l 583 1317 q 581 1297 588 1306 q 562 1284 574 1288 q 538 1283 550 1281 q 522 1294 526 1285 l 522 1294 l 511 1322 q 508 1383 497 1357 q 551 1431 518 1410 l 551 1431 q 592 1463 579 1449 q 604 1496 604 1478 l 604 1496 q 585 1527 604 1515 q 538 1539 565 1539 l 538 1539 q 491 1532 514 1539 q 449 1513 468 1525 l 449 1513 q 410 1525 424 1497 l 410 1525 q 417 1565 397 1549 l 417 1565 q 475 1595 442 1585 q 549 1606 508 1606 z m 0 -521 l 0 -507 l 921 -507 l 921 -521 l 0 -521 z m 0 0 l 0 28 l 921 28 l 921 0 l 0 0 z m 0 694 l 0 701 l 921 701 l 921 694 l 0 694 z m 0 1215 l 0 1229 l 921 1229 l 921 1215 l 0 1215 z "},"Ẽ":{"ha":921,"x_min":0,"x_max":921,"o":"m 833 0 l 235 0 q 206 8 215 0 q 197 32 197 15 l 197 32 l 197 1189 q 207 1209 197 1203 q 236 1215 217 1215 l 236 1215 l 833 1215 q 851 1208 844 1215 q 857 1181 857 1200 l 857 1181 q 851 1153 857 1161 q 833 1146 844 1146 l 833 1146 l 272 1146 l 272 678 l 747 678 q 764 670 758 678 q 769 643 769 663 l 769 643 q 764 616 769 624 q 747 608 758 608 l 747 608 l 272 608 l 272 69 l 833 69 q 851 62 844 69 q 857 35 857 54 l 857 35 q 851 8 857 15 q 833 0 844 0 l 833 0 z m 321 1346 l 321 1346 q 289 1375 289 1346 l 289 1375 q 322 1493 292 1453 q 404 1533 351 1533 l 404 1533 q 478 1516 443 1533 q 547 1477 514 1499 q 608 1438 579 1456 q 663 1421 638 1421 l 663 1421 q 701 1444 689 1421 q 715 1511 714 1467 l 715 1511 q 749 1536 718 1536 l 749 1536 q 775 1530 768 1536 q 782 1507 782 1524 l 782 1507 q 750 1392 779 1433 q 663 1350 721 1350 l 663 1350 q 590 1367 625 1350 q 522 1406 554 1385 q 460 1445 489 1428 q 406 1463 431 1463 l 406 1463 q 369 1441 381 1463 q 354 1374 357 1419 l 354 1374 q 345 1352 353 1358 q 321 1346 338 1346 z m 0 -521 l 0 -507 l 921 -507 l 921 -521 l 0 -521 z m 0 0 l 0 28 l 921 28 l 921 0 l 0 0 z m 0 694 l 0 701 l 921 701 l 921 694 l 0 694 z m 0 1215 l 0 1229 l 921 1229 l 921 1215 l 0 1215 z "},"Ğ":{"ha":1211,"x_min":0,"x_max":1211,"o":"m 604 -26 l 604 -26 q 410 19 497 -26 q 258 147 322 65 q 160 343 194 229 q 125 593 125 457 l 125 593 q 142 772 125 688 q 191 928 158 857 q 269 1056 224 999 q 374 1153 315 1114 q 501 1215 432 1193 q 646 1236 569 1236 l 646 1236 q 767 1222 710 1236 q 876 1176 825 1207 q 968 1090 928 1144 l 968 1090 q 977 1067 979 1076 q 963 1047 975 1058 l 963 1047 q 938 1037 949 1038 q 915 1049 926 1036 l 915 1049 q 838 1113 881 1088 q 748 1150 796 1138 q 644 1163 700 1163 l 644 1163 q 524 1144 581 1163 q 417 1092 467 1126 q 329 1007 368 1057 q 263 894 290 957 q 220 755 235 831 q 206 593 206 679 l 206 593 q 235 369 206 469 q 318 197 264 268 q 445 87 372 125 q 604 49 518 49 l 604 49 q 724 67 667 49 q 829 123 781 85 q 914 222 878 161 q 971 369 950 283 q 994 567 992 454 l 994 567 l 656 567 q 636 575 642 567 q 631 601 631 583 l 631 601 q 636 628 631 621 q 656 636 642 636 l 656 636 l 1042 636 q 1065 629 1058 636 q 1072 604 1072 622 l 1072 604 q 1035 320 1072 439 q 932 124 997 201 q 782 10 867 47 q 604 -26 697 -26 z m 625 1306 l 625 1306 q 461 1365 525 1306 q 392 1540 397 1424 l 392 1540 q 400 1560 392 1553 q 425 1568 408 1568 l 425 1568 q 449 1561 442 1568 q 457 1540 456 1554 l 457 1540 q 509 1423 465 1461 q 625 1385 553 1385 l 625 1385 q 742 1423 697 1385 q 794 1540 786 1461 l 794 1540 q 802 1561 796 1554 q 824 1568 808 1568 l 824 1568 q 851 1560 842 1568 q 858 1540 860 1553 l 858 1540 q 824 1412 856 1464 q 742 1333 793 1360 q 625 1306 690 1306 z m 0 -521 l 0 -507 l 1211 -507 l 1211 -521 l 0 -521 z m 0 0 l 0 28 l 1211 28 l 1211 0 l 0 0 z m 0 694 l 0 701 l 1211 701 l 1211 694 l 0 694 z m 0 1215 l 0 1229 l 1211 1229 l 1211 1215 l 0 1215 z "},"Ĝ":{"ha":1211,"x_min":0,"x_max":1211,"o":"m 604 -26 l 604 -26 q 410 19 497 -26 q 258 147 322 65 q 160 343 194 229 q 125 593 125 457 l 125 593 q 142 772 125 688 q 191 928 158 857 q 269 1056 224 999 q 374 1153 315 1114 q 501 1215 432 1193 q 646 1236 569 1236 l 646 1236 q 767 1222 710 1236 q 876 1176 825 1207 q 968 1090 928 1144 l 968 1090 q 977 1067 979 1076 q 963 1047 975 1058 l 963 1047 q 938 1037 949 1038 q 915 1049 926 1036 l 915 1049 q 838 1113 881 1088 q 748 1150 796 1138 q 644 1163 700 1163 l 644 1163 q 524 1144 581 1163 q 417 1092 467 1126 q 329 1007 368 1057 q 263 894 290 957 q 220 755 235 831 q 206 593 206 679 l 206 593 q 235 369 206 469 q 318 197 264 268 q 445 87 372 125 q 604 49 518 49 l 604 49 q 724 67 667 49 q 829 123 781 85 q 914 222 878 161 q 971 369 950 283 q 994 567 992 454 l 994 567 l 656 567 q 636 575 642 567 q 631 601 631 583 l 631 601 q 636 628 631 621 q 656 636 642 636 l 656 636 l 1042 636 q 1065 629 1058 636 q 1072 604 1072 622 l 1072 604 q 1035 320 1072 439 q 932 124 997 201 q 782 10 867 47 q 604 -26 697 -26 z m 408 1304 l 408 1304 q 388 1315 399 1304 q 378 1336 378 1325 l 378 1336 q 378 1345 378 1340 q 385 1356 379 1350 l 385 1356 l 590 1551 q 605 1563 597 1558 q 625 1568 613 1568 l 625 1568 q 644 1563 638 1568 q 660 1551 651 1558 l 660 1551 l 865 1353 q 872 1344 871 1349 q 872 1336 872 1340 l 872 1336 q 863 1315 872 1325 q 842 1304 853 1304 l 842 1304 q 830 1307 835 1304 q 818 1315 825 1310 l 818 1315 l 625 1479 l 432 1315 q 421 1307 426 1310 q 408 1304 415 1304 z m 0 -521 l 0 -507 l 1211 -507 l 1211 -521 l 0 -521 z m 0 0 l 0 28 l 1211 28 l 1211 0 l 0 0 z m 0 694 l 0 701 l 1211 701 l 1211 694 l 0 694 z m 0 1215 l 0 1229 l 1211 1229 l 1211 1215 l 0 1215 z "},"Ģ":{"ha":1211,"x_min":0,"x_max":1211,"o":"m 604 -26 l 604 -26 q 410 19 497 -26 q 258 147 322 65 q 160 343 194 229 q 125 593 125 457 l 125 593 q 142 772 125 688 q 191 928 158 857 q 269 1056 224 999 q 374 1153 315 1114 q 501 1215 432 1193 q 646 1236 569 1236 l 646 1236 q 767 1222 710 1236 q 876 1176 825 1207 q 968 1090 928 1144 l 968 1090 q 977 1067 979 1076 q 963 1047 975 1058 l 963 1047 q 938 1037 949 1038 q 915 1049 926 1036 l 915 1049 q 838 1113 881 1088 q 748 1150 796 1138 q 644 1163 700 1163 l 644 1163 q 524 1144 581 1163 q 417 1092 467 1126 q 329 1007 368 1057 q 263 894 290 957 q 220 755 235 831 q 206 593 206 679 l 206 593 q 235 369 206 469 q 318 197 264 268 q 445 87 372 125 q 604 49 518 49 l 604 49 q 724 67 667 49 q 829 123 781 85 q 914 222 878 161 q 971 369 950 283 q 994 567 992 454 l 994 567 l 656 567 q 636 575 642 567 q 631 601 631 583 l 631 601 q 636 628 631 621 q 656 636 642 636 l 656 636 l 1042 636 q 1065 629 1058 636 q 1072 604 1072 622 l 1072 604 q 1035 320 1072 439 q 932 124 997 201 q 782 10 867 47 q 604 -26 697 -26 z m 535 -387 l 535 -387 q 517 -372 519 -381 q 525 -344 515 -362 l 525 -344 q 551 -282 542 -310 q 565 -222 561 -254 q 569 -142 569 -190 l 569 -142 q 578 -117 569 -126 q 604 -108 586 -108 l 604 -108 q 635 -119 625 -108 q 646 -147 646 -131 l 646 -147 q 638 -224 646 -185 q 615 -299 631 -262 q 579 -369 600 -336 l 579 -369 q 560 -388 569 -383 q 535 -387 550 -393 z m 0 -521 l 0 -507 l 1211 -507 l 1211 -521 l 0 -521 z m 0 0 l 0 28 l 1211 28 l 1211 0 l 0 0 z m 0 694 l 0 701 l 1211 701 l 1211 694 l 0 694 z m 0 1215 l 0 1229 l 1211 1229 l 1211 1215 l 0 1215 z "},"Ġ":{"ha":1211,"x_min":0,"x_max":1211,"o":"m 604 -26 l 604 -26 q 410 19 497 -26 q 258 147 322 65 q 160 343 194 229 q 125 593 125 457 l 125 593 q 142 772 125 688 q 191 928 158 857 q 269 1056 224 999 q 374 1153 315 1114 q 501 1215 432 1193 q 646 1236 569 1236 l 646 1236 q 767 1222 710 1236 q 876 1176 825 1207 q 968 1090 928 1144 l 968 1090 q 977 1067 979 1076 q 963 1047 975 1058 l 963 1047 q 938 1037 949 1038 q 915 1049 926 1036 l 915 1049 q 838 1113 881 1088 q 748 1150 796 1138 q 644 1163 700 1163 l 644 1163 q 524 1144 581 1163 q 417 1092 467 1126 q 329 1007 368 1057 q 263 894 290 957 q 220 755 235 831 q 206 593 206 679 l 206 593 q 235 369 206 469 q 318 197 264 268 q 445 87 372 125 q 604 49 518 49 l 604 49 q 724 67 667 49 q 829 123 781 85 q 914 222 878 161 q 971 369 950 283 q 994 567 992 454 l 994 567 l 656 567 q 636 575 642 567 q 631 601 631 583 l 631 601 q 636 628 631 621 q 656 636 642 636 l 656 636 l 1042 636 q 1065 629 1058 636 q 1072 604 1072 622 l 1072 604 q 1035 320 1072 439 q 932 124 997 201 q 782 10 867 47 q 604 -26 697 -26 z m 625 1351 l 625 1351 q 580 1368 594 1351 q 565 1419 565 1385 l 565 1419 q 580 1472 565 1454 q 625 1489 594 1489 l 625 1489 q 671 1472 656 1489 q 686 1419 686 1454 l 686 1419 q 671 1368 686 1385 q 625 1351 656 1351 z m 0 -521 l 0 -507 l 1211 -507 l 1211 -521 l 0 -521 z m 0 0 l 0 28 l 1211 28 l 1211 0 l 0 0 z m 0 694 l 0 701 l 1211 701 l 1211 694 l 0 694 z m 0 1215 l 0 1229 l 1211 1229 l 1211 1215 l 0 1215 z "},"Ħ":{"ha":1233,"x_min":0,"x_max":1233,"o":"m 235 -19 l 235 -19 q 197 7 197 -19 l 197 7 l 197 1210 q 206 1230 197 1224 q 235 1236 215 1236 l 235 1236 q 272 1210 272 1236 l 272 1210 l 272 672 l 961 672 l 961 1210 q 970 1230 961 1224 q 999 1236 979 1236 l 999 1236 q 1036 1210 1036 1236 l 1036 1210 l 1036 7 q 1028 -13 1036 -7 q 999 -19 1019 -19 l 999 -19 q 961 7 961 -19 l 961 7 l 961 603 l 272 603 l 272 7 q 264 -13 272 -7 q 235 -19 256 -19 z m 1157 904 l 76 904 q 56 913 61 904 q 50 936 50 921 l 50 936 q 56 963 50 954 q 76 972 61 972 l 76 972 l 1157 972 q 1178 963 1174 972 q 1183 936 1183 954 l 1183 936 q 1178 913 1183 921 q 1157 904 1174 904 l 1157 904 z m 0 -521 l 0 -507 l 1233 -507 l 1233 -521 l 0 -521 z m 0 0 l 0 28 l 1233 28 l 1233 0 l 0 0 z m 0 694 l 0 701 l 1233 701 l 1233 694 l 0 694 z m 0 1215 l 0 1229 l 1233 1229 l 1233 1215 l 0 1215 z "},"Ĥ":{"ha":1233,"x_min":0,"x_max":1233,"o":"m 235 -19 l 235 -19 q 197 7 197 -19 l 197 7 l 197 1210 q 206 1230 197 1224 q 235 1236 215 1236 l 235 1236 q 272 1210 272 1236 l 272 1210 l 272 672 l 961 672 l 961 1210 q 970 1230 961 1224 q 999 1236 979 1236 l 999 1236 q 1036 1210 1036 1236 l 1036 1210 l 1036 7 q 1028 -13 1036 -7 q 999 -19 1019 -19 l 999 -19 q 961 7 961 -19 l 961 7 l 961 603 l 272 603 l 272 7 q 264 -13 272 -7 q 235 -19 256 -19 z m 400 1304 l 400 1304 q 380 1315 390 1304 q 369 1336 369 1325 l 369 1336 q 370 1345 369 1340 q 376 1356 371 1350 l 376 1356 l 582 1551 q 597 1563 589 1558 q 617 1568 604 1568 l 617 1568 q 636 1563 629 1568 q 651 1551 643 1558 l 651 1551 l 857 1353 q 863 1344 863 1349 q 864 1336 864 1340 l 864 1336 q 854 1315 864 1325 q 833 1304 844 1304 l 833 1304 q 822 1307 826 1304 q 810 1315 817 1310 l 810 1315 l 617 1479 l 424 1315 q 413 1307 418 1310 q 400 1304 407 1304 z m 0 -521 l 0 -507 l 1233 -507 l 1233 -521 l 0 -521 z m 0 0 l 0 28 l 1233 28 l 1233 0 l 0 0 z m 0 694 l 0 701 l 1233 701 l 1233 694 l 0 694 z m 0 1215 l 0 1229 l 1233 1229 l 1233 1215 l 0 1215 z "},"Í":{"ha":469,"x_min":0,"x_max":469,"o":"m 235 -19 l 235 -19 q 206 -12 215 -19 q 197 7 197 -6 l 197 7 l 197 1210 q 206 1230 197 1224 q 235 1236 215 1236 l 235 1236 q 263 1230 253 1236 q 272 1210 272 1224 l 272 1210 l 272 7 q 264 -12 272 -6 q 235 -19 256 -19 z m 163 1304 l 163 1304 q 141 1317 154 1304 q 128 1339 128 1329 l 128 1339 q 129 1347 128 1342 q 136 1356 131 1351 l 136 1356 l 344 1556 q 354 1565 350 1561 q 364 1568 358 1568 l 364 1568 q 385 1560 374 1568 q 403 1542 396 1553 q 411 1522 411 1532 l 411 1522 q 409 1513 411 1517 q 400 1501 407 1508 l 400 1501 l 182 1314 q 172 1307 175 1310 q 163 1304 168 1304 z m 0 -521 l 0 -507 l 469 -507 l 469 -521 l 0 -521 z m 0 0 l 0 28 l 469 28 l 469 0 l 0 0 z m 0 694 l 0 701 l 469 701 l 469 694 l 0 694 z m 0 1215 l 0 1229 l 469 1229 l 469 1215 l 0 1215 z "},"Ĭ":{"ha":469,"x_min":0,"x_max":469,"o":"m 235 -19 l 235 -19 q 206 -13 215 -19 q 197 7 197 -7 l 197 7 l 197 1210 q 206 1230 197 1224 q 235 1236 215 1236 l 235 1236 q 263 1230 253 1236 q 272 1210 272 1224 l 272 1210 l 272 7 q 264 -13 272 -7 q 235 -19 256 -19 z m 235 1306 l 235 1306 q 71 1365 135 1306 q 1 1540 7 1424 l 1 1540 q 10 1560 1 1553 q 35 1568 18 1568 l 35 1568 q 58 1561 51 1568 q 67 1540 65 1554 l 67 1540 q 119 1423 75 1461 q 235 1385 163 1385 l 235 1385 q 351 1423 307 1385 q 404 1540 396 1461 l 404 1540 q 412 1561 406 1554 q 433 1568 418 1568 l 433 1568 q 460 1560 451 1568 q 468 1540 469 1553 l 468 1540 q 434 1412 465 1464 q 351 1333 403 1360 q 235 1306 300 1306 z m 0 -521 l 0 -507 l 469 -507 l 469 -521 l 0 -521 z m 0 0 l 0 28 l 469 28 l 469 0 l 0 0 z m 0 694 l 0 701 l 469 701 l 469 694 l 0 694 z m 0 1215 l 0 1229 l 469 1229 l 469 1215 l 0 1215 z "},"Ǐ":{"ha":469,"x_min":-12,"x_max":482,"o":"m 235 -19 l 235 -19 q 206 -13 215 -19 q 197 7 197 -7 l 197 7 l 197 1210 q 206 1230 197 1224 q 235 1236 215 1236 l 235 1236 q 263 1230 253 1236 q 272 1210 272 1224 l 272 1210 l 272 7 q 264 -13 272 -7 q 235 -19 256 -19 z m 451 1568 l 451 1568 q 472 1558 463 1568 q 482 1535 482 1547 l 482 1535 q 481 1528 482 1532 q 475 1518 481 1524 l 475 1518 l 269 1321 q 255 1309 263 1314 q 235 1304 247 1304 l 235 1304 q 215 1309 222 1304 q 200 1321 208 1314 l 200 1321 l -6 1518 q -12 1528 -11 1524 q -12 1536 -12 1533 l -12 1536 q -2 1558 -12 1549 q 18 1568 8 1568 l 18 1568 q 31 1565 25 1568 q 42 1557 36 1561 l 42 1557 l 235 1393 l 428 1557 q 440 1565 435 1561 q 451 1568 444 1568 z m 0 -521 l 0 -507 l 469 -507 l 469 -521 l 0 -521 z m 0 0 l 0 28 l 469 28 l 469 0 l 0 0 z m 0 694 l 0 701 l 469 701 l 469 694 l 0 694 z m 0 1215 l 0 1229 l 469 1229 l 469 1215 l 0 1215 z "},"Î":{"ha":469,"x_min":-12,"x_max":482,"o":"m 235 -19 l 235 -19 q 206 -13 215 -19 q 197 7 197 -7 l 197 7 l 197 1210 q 206 1230 197 1224 q 235 1236 215 1236 l 235 1236 q 263 1230 253 1236 q 272 1210 272 1224 l 272 1210 l 272 7 q 264 -13 272 -7 q 235 -19 256 -19 z m 18 1304 l 18 1304 q -2 1315 8 1304 q -12 1336 -12 1325 l -12 1336 q -12 1345 -12 1340 q -6 1356 -11 1350 l -6 1356 l 200 1551 q 215 1563 207 1558 q 235 1568 222 1568 l 235 1568 q 254 1563 247 1568 q 269 1551 261 1558 l 269 1551 l 475 1353 q 481 1344 481 1349 q 482 1336 482 1340 l 482 1336 q 472 1315 482 1325 q 451 1304 463 1304 l 451 1304 q 440 1307 444 1304 q 428 1315 435 1310 l 428 1315 l 235 1479 l 42 1315 q 31 1307 36 1310 q 18 1304 25 1304 z m 0 -521 l 0 -507 l 469 -507 l 469 -521 l 0 -521 z m 0 0 l 0 28 l 469 28 l 469 0 l 0 0 z m 0 694 l 0 701 l 469 701 l 469 694 l 0 694 z m 0 1215 l 0 1229 l 469 1229 l 469 1215 l 0 1215 z "},"Ï":{"ha":469,"x_min":0,"x_max":469,"o":"m 235 -19 l 235 -19 q 206 -12 215 -19 q 197 7 197 -6 l 197 7 l 197 1210 q 206 1230 197 1224 q 235 1236 215 1236 l 235 1236 q 263 1230 253 1236 q 272 1210 272 1224 l 272 1210 l 272 7 q 264 -12 272 -6 q 235 -19 256 -19 z m 64 1351 l 64 1351 q 19 1368 33 1351 q 4 1418 4 1385 l 4 1418 q 19 1472 4 1454 q 64 1489 33 1489 l 64 1489 q 110 1472 94 1489 q 125 1419 125 1454 l 125 1419 q 110 1368 125 1385 q 64 1351 94 1351 z m 407 1351 l 407 1351 q 360 1368 375 1351 q 346 1418 346 1385 l 346 1418 q 361 1472 346 1454 q 406 1489 376 1489 l 406 1489 q 451 1472 436 1489 q 467 1419 467 1454 l 467 1419 q 451 1368 467 1385 q 407 1351 436 1351 z m 0 -521 l 0 -507 l 469 -507 l 469 -521 l 0 -521 z m 0 0 l 0 28 l 469 28 l 469 0 l 0 0 z m 0 694 l 0 701 l 469 701 l 469 694 l 0 694 z m 0 1215 l 0 1229 l 469 1229 l 469 1215 l 0 1215 z "},"İ":{"ha":469,"x_min":0,"x_max":469,"o":"m 235 -19 l 235 -19 q 206 -12 215 -19 q 197 7 197 -6 l 197 7 l 197 1210 q 206 1230 197 1224 q 235 1236 215 1236 l 235 1236 q 263 1230 253 1236 q 272 1210 272 1224 l 272 1210 l 272 7 q 264 -12 272 -6 q 235 -19 256 -19 z m 235 1351 l 235 1351 q 190 1368 204 1351 q 175 1418 175 1385 l 175 1418 q 190 1472 175 1454 q 235 1489 204 1489 l 235 1489 q 280 1472 264 1489 q 296 1419 296 1454 l 296 1419 q 281 1368 296 1385 q 235 1351 265 1351 z m 0 -521 l 0 -507 l 469 -507 l 469 -521 l 0 -521 z m 0 0 l 0 28 l 469 28 l 469 0 l 0 0 z m 0 694 l 0 701 l 469 701 l 469 694 l 0 694 z m 0 1215 l 0 1229 l 469 1229 l 469 1215 l 0 1215 z "},"Ì":{"ha":469,"x_min":0,"x_max":469,"o":"m 235 -19 l 235 -19 q 206 -12 215 -19 q 197 7 197 -6 l 197 7 l 197 1210 q 206 1230 197 1224 q 235 1236 215 1236 l 235 1236 q 263 1230 253 1236 q 272 1210 272 1224 l 272 1210 l 272 7 q 264 -12 272 -6 q 235 -19 256 -19 z m 307 1304 l 307 1304 q 298 1307 301 1304 q 288 1314 294 1310 l 288 1314 l 69 1501 q 61 1513 63 1508 q 60 1522 60 1517 l 60 1522 q 67 1542 60 1531 q 85 1560 75 1553 q 106 1568 96 1568 l 106 1568 q 116 1565 111 1568 q 126 1556 121 1561 l 126 1556 l 333 1356 q 341 1347 340 1351 q 342 1339 342 1342 l 342 1339 q 329 1317 342 1329 q 307 1304 317 1304 z m 0 -521 l 0 -507 l 469 -507 l 469 -521 l 0 -521 z m 0 0 l 0 28 l 469 28 l 469 0 l 0 0 z m 0 694 l 0 701 l 469 701 l 469 694 l 0 694 z m 0 1215 l 0 1229 l 469 1229 l 469 1215 l 0 1215 z "},"Ī":{"ha":469,"x_min":0,"x_max":469,"o":"m 235 -19 l 235 -19 q 206 -13 215 -19 q 197 7 197 -7 l 197 7 l 197 1210 q 206 1230 197 1224 q 235 1236 215 1236 l 235 1236 q 263 1230 253 1236 q 272 1210 272 1224 l 272 1210 l 272 7 q 264 -13 272 -7 q 235 -19 256 -19 z m 421 1403 l 49 1403 q 28 1412 33 1403 q 22 1438 22 1421 l 22 1438 q 28 1465 22 1456 q 49 1475 33 1475 l 49 1475 l 421 1475 q 442 1465 436 1475 q 447 1438 447 1456 l 447 1438 q 442 1412 447 1421 q 421 1403 436 1403 l 421 1403 z m 0 -521 l 0 -507 l 469 -507 l 469 -521 l 0 -521 z m 0 0 l 0 28 l 469 28 l 469 0 l 0 0 z m 0 694 l 0 701 l 469 701 l 469 694 l 0 694 z m 0 1215 l 0 1229 l 469 1229 l 469 1215 l 0 1215 z "},"Į":{"ha":469,"x_min":0,"x_max":469,"o":"m 235 -19 l 235 -19 q 206 -13 215 -19 q 197 7 197 -7 l 197 7 l 197 1210 q 206 1230 197 1224 q 235 1236 215 1236 l 235 1236 q 263 1230 253 1236 q 272 1210 272 1224 l 272 1210 l 272 7 q 264 -13 272 -7 q 235 -19 256 -19 z m 131 -364 l 131 -364 q 55 -337 85 -364 q 25 -257 25 -310 l 25 -257 q 38 -194 25 -225 q 73 -131 50 -162 q 131 -64 96 -99 q 211 10 165 -29 l 211 10 l 267 6 l 267 -1 q 201 -65 232 -33 q 147 -127 171 -96 q 110 -187 124 -158 q 97 -243 97 -215 l 97 -243 q 109 -285 97 -269 q 144 -300 121 -300 l 144 -300 q 200 -281 171 -300 q 257 -228 229 -262 l 257 -228 q 274 -217 265 -219 q 293 -224 283 -215 l 293 -224 q 308 -243 304 -232 q 303 -265 311 -254 l 303 -265 q 256 -318 285 -296 q 194 -352 226 -340 q 131 -364 161 -364 z m 0 -521 l 0 -507 l 469 -507 l 469 -521 l 0 -521 z m 0 0 l 0 28 l 469 28 l 469 0 l 0 0 z m 0 694 l 0 701 l 469 701 l 469 694 l 0 694 z m 0 1215 l 0 1229 l 469 1229 l 469 1215 l 0 1215 z "},"Ĩ":{"ha":469,"x_min":-12,"x_max":481,"o":"m 235 -19 l 235 -19 q 206 -13 215 -19 q 197 7 197 -7 l 197 7 l 197 1210 q 206 1230 197 1224 q 235 1236 215 1236 l 235 1236 q 263 1230 253 1236 q 272 1210 272 1224 l 272 1210 l 272 7 q 264 -13 272 -7 q 235 -19 256 -19 z m 19 1346 l 19 1346 q -12 1375 -12 1346 l -12 1375 q 20 1493 -10 1453 q 103 1533 50 1533 l 103 1533 q 177 1516 142 1533 q 245 1477 213 1499 q 307 1438 278 1456 q 361 1421 336 1421 l 361 1421 q 400 1444 388 1421 q 414 1511 413 1467 l 414 1511 q 447 1536 417 1536 l 447 1536 q 474 1530 467 1536 q 481 1507 481 1524 l 481 1507 q 449 1392 478 1433 q 361 1350 419 1350 l 361 1350 q 288 1367 324 1350 q 220 1406 253 1385 q 158 1445 188 1428 q 104 1463 129 1463 l 104 1463 q 67 1441 79 1463 q 53 1374 56 1419 l 53 1374 q 44 1352 51 1358 q 19 1346 36 1346 z m 0 -521 l 0 -507 l 469 -507 l 469 -521 l 0 -521 z m 0 0 l 0 28 l 469 28 l 469 0 l 0 0 z m 0 694 l 0 701 l 469 701 l 469 694 l 0 694 z m 0 1215 l 0 1229 l 469 1229 l 469 1215 l 0 1215 z "},"Ị":{"ha":469,"x_min":0,"x_max":469,"o":"m 235 -19 l 235 -19 q 206 -12 215 -19 q 197 7 197 -6 l 197 7 l 197 1210 q 206 1230 197 1224 q 235 1236 215 1236 l 235 1236 q 263 1230 253 1236 q 272 1210 272 1224 l 272 1210 l 272 7 q 264 -12 272 -6 q 235 -19 256 -19 z m 235 -306 l 235 -306 q 190 -289 204 -306 q 175 -237 175 -272 l 175 -237 q 190 -185 175 -201 q 235 -168 204 -168 l 235 -168 q 280 -185 264 -168 q 296 -237 296 -201 l 296 -237 q 281 -289 296 -272 q 235 -306 265 -306 z m 0 -521 l 0 -507 l 469 -507 l 469 -521 l 0 -521 z m 0 0 l 0 28 l 469 28 l 469 0 l 0 0 z m 0 694 l 0 701 l 469 701 l 469 694 l 0 694 z m 0 1215 l 0 1229 l 469 1229 l 469 1215 l 0 1215 z "},"Ỉ":{"ha":469,"x_min":0,"x_max":469,"o":"m 235 -19 l 235 -19 q 206 -13 215 -19 q 197 7 197 -7 l 197 7 l 197 1210 q 206 1230 197 1224 q 235 1236 215 1236 l 235 1236 q 263 1230 253 1236 q 272 1210 272 1224 l 272 1210 l 272 7 q 264 -13 272 -7 q 235 -19 256 -19 z m 247 1606 l 247 1606 q 346 1576 308 1606 q 383 1499 383 1546 l 383 1499 q 367 1442 383 1467 q 311 1390 350 1418 l 311 1390 q 277 1360 285 1372 q 279 1325 269 1347 l 279 1325 l 282 1317 q 279 1297 286 1306 q 260 1284 272 1288 q 237 1283 249 1281 q 221 1294 225 1285 l 221 1294 l 210 1322 q 206 1383 196 1357 q 250 1431 217 1410 l 250 1431 q 290 1463 278 1449 q 303 1496 303 1478 l 303 1496 q 283 1527 303 1515 q 236 1539 264 1539 l 236 1539 q 190 1532 213 1539 q 147 1513 167 1525 l 147 1513 q 108 1525 122 1497 l 108 1525 q 115 1565 96 1549 l 115 1565 q 174 1595 140 1585 q 247 1606 207 1606 z m 0 -521 l 0 -507 l 469 -507 l 469 -521 l 0 -521 z m 0 0 l 0 28 l 469 28 l 469 0 l 0 0 z m 0 694 l 0 701 l 469 701 l 469 694 l 0 694 z m 0 1215 l 0 1229 l 469 1229 l 469 1215 l 0 1215 z "},"Ĵ":{"ha":903,"x_min":0,"x_max":942,"o":"m 421 -26 l 421 -26 q 273 1 342 -26 q 154 83 204 29 q 78 214 104 138 l 78 214 q 78 241 72 233 q 99 253 85 249 l 99 253 q 125 256 114 258 q 143 233 136 253 l 143 233 q 206 132 168 174 q 296 69 243 90 q 421 49 349 49 l 421 49 q 504 60 467 49 q 570 96 542 71 q 618 159 599 121 q 647 251 638 197 q 656 376 656 306 l 656 376 l 656 1210 q 665 1230 656 1224 q 694 1236 675 1236 l 694 1236 q 724 1230 715 1236 q 732 1210 732 1224 l 732 1210 l 732 379 q 719 229 732 294 q 680 116 706 164 q 616 36 654 68 q 529 -11 578 4 q 421 -26 481 -26 z m 478 1304 l 478 1304 q 458 1315 468 1304 q 447 1336 447 1325 l 447 1336 q 448 1345 447 1340 q 454 1356 449 1350 l 454 1356 l 660 1551 q 674 1563 667 1558 q 694 1568 682 1568 l 694 1568 q 714 1563 707 1568 q 729 1551 721 1558 l 729 1551 l 935 1353 q 941 1344 940 1349 q 942 1336 942 1340 l 942 1336 q 932 1315 942 1325 q 911 1304 922 1304 l 911 1304 q 899 1307 904 1304 q 888 1315 894 1310 l 888 1315 l 694 1479 l 501 1315 q 490 1307 496 1310 q 478 1304 485 1304 z m 0 -521 l 0 -507 l 903 -507 l 903 -521 l 0 -521 z m 0 0 l 0 28 l 903 28 l 903 0 l 0 0 z m 0 694 l 0 701 l 903 701 l 903 694 l 0 694 z m 0 1215 l 0 1229 l 903 1229 l 903 1215 l 0 1215 z "},"Ķ":{"ha":956,"x_min":0,"x_max":956,"o":"m 235 -19 l 235 -19 q 206 -13 215 -19 q 197 7 197 -7 l 197 7 l 197 1210 q 235 1236 197 1236 l 235 1236 q 272 1210 272 1236 l 272 1210 l 272 669 l 853 1226 q 876 1238 865 1239 q 899 1222 886 1236 l 899 1222 q 913 1199 913 1208 q 903 1179 913 1190 l 903 1179 l 343 643 q 528 426 432 535 q 724 219 624 318 q 922 38 824 121 l 922 38 q 935 17 935 29 q 919 -11 935 6 l 919 -11 q 894 -23 907 -24 q 869 -11 882 -22 l 869 -11 q 711 130 792 53 q 553 290 631 207 q 405 456 476 372 q 272 617 333 539 l 272 617 l 272 7 q 264 -13 272 -7 q 235 -19 256 -19 z m 456 -387 l 456 -387 q 438 -372 440 -381 q 446 -344 436 -362 l 446 -344 q 472 -282 463 -310 q 486 -222 482 -254 q 490 -142 490 -190 l 490 -142 q 499 -117 490 -126 q 525 -108 507 -108 l 525 -108 q 556 -119 546 -108 q 567 -147 567 -131 l 567 -147 q 559 -224 567 -185 q 536 -299 551 -262 q 500 -369 521 -336 l 500 -369 q 481 -388 490 -383 q 456 -387 471 -393 z m 0 -521 l 0 -507 l 956 -507 l 956 -521 l 0 -521 z m 0 0 l 0 28 l 956 28 l 956 0 l 0 0 z m 0 694 l 0 701 l 956 701 l 956 694 l 0 694 z m 0 1215 l 0 1229 l 956 1229 l 956 1215 l 0 1215 z "},"Ĺ":{"ha":868,"x_min":0,"x_max":868,"o":"m 811 0 l 235 0 q 197 32 197 0 l 197 32 l 197 1210 q 206 1230 197 1224 q 235 1236 215 1236 l 235 1236 q 264 1230 256 1236 q 272 1210 272 1224 l 272 1210 l 272 69 l 811 69 q 828 62 822 69 q 833 35 833 54 l 833 35 q 828 8 833 15 q 811 0 822 0 l 811 0 z m 163 1304 l 163 1304 q 141 1317 154 1304 q 128 1339 128 1329 l 128 1339 q 129 1347 128 1342 q 136 1356 131 1351 l 136 1356 l 344 1556 q 354 1565 350 1561 q 364 1568 358 1568 l 364 1568 q 385 1560 374 1568 q 403 1542 396 1553 q 411 1522 411 1532 l 411 1522 q 410 1513 411 1517 q 400 1501 408 1508 l 400 1501 l 182 1314 q 172 1307 175 1310 q 163 1304 168 1304 z m 0 -521 l 0 -507 l 868 -507 l 868 -521 l 0 -521 z m 0 0 l 0 28 l 868 28 l 868 0 l 0 0 z m 0 694 l 0 701 l 868 701 l 868 694 l 0 694 z m 0 1215 l 0 1229 l 868 1229 l 868 1215 l 0 1215 z "},"Ľ":{"ha":868,"x_min":0,"x_max":868,"o":"m 811 0 l 235 0 q 197 32 197 0 l 197 32 l 197 1210 q 206 1230 197 1224 q 235 1236 215 1236 l 235 1236 q 264 1230 256 1236 q 272 1210 272 1224 l 272 1210 l 272 69 l 811 69 q 828 62 822 69 q 833 35 833 54 l 833 35 q 828 8 833 15 q 811 0 822 0 l 811 0 z m 440 918 l 440 918 q 421 932 425 924 q 422 956 417 940 l 422 956 q 441 1033 432 988 q 456 1127 450 1079 q 464 1211 463 1175 l 464 1211 q 472 1233 464 1224 q 501 1243 481 1243 l 501 1243 q 533 1233 524 1243 q 543 1211 543 1224 l 543 1211 q 531 1121 540 1172 q 507 1019 521 1069 q 479 935 493 969 l 479 935 q 467 918 475 924 q 440 918 460 913 z m 0 -521 l 0 -507 l 868 -507 l 868 -521 l 0 -521 z m 0 0 l 0 28 l 868 28 l 868 0 l 0 0 z m 0 694 l 0 701 l 868 701 l 868 694 l 0 694 z m 0 1215 l 0 1229 l 868 1229 l 868 1215 l 0 1215 z "},"Ļ":{"ha":868,"x_min":0,"x_max":868,"o":"m 811 0 l 235 0 q 197 32 197 0 l 197 32 l 197 1210 q 206 1230 197 1224 q 235 1236 215 1236 l 235 1236 q 264 1230 256 1236 q 272 1210 272 1224 l 272 1210 l 272 69 l 811 69 q 828 62 822 69 q 833 35 833 54 l 833 35 q 828 8 833 15 q 811 0 822 0 l 811 0 z m 447 -387 l 447 -387 q 430 -372 432 -381 q 438 -344 428 -362 l 438 -344 q 464 -282 454 -310 q 478 -222 474 -254 q 482 -142 482 -190 l 482 -142 q 490 -117 482 -126 q 517 -108 499 -108 l 517 -108 q 548 -119 538 -108 q 558 -147 558 -131 l 558 -147 q 551 -224 558 -185 q 528 -299 543 -262 q 492 -369 513 -336 l 492 -369 q 472 -388 482 -383 q 447 -387 463 -393 z m 0 -521 l 0 -507 l 868 -507 l 868 -521 l 0 -521 z m 0 0 l 0 28 l 868 28 l 868 0 l 0 0 z m 0 694 l 0 701 l 868 701 l 868 694 l 0 694 z m 0 1215 l 0 1229 l 868 1229 l 868 1215 l 0 1215 z "},"Ŀ":{"ha":868,"x_min":0,"x_max":868,"o":"m 811 0 l 235 0 q 197 32 197 0 l 197 32 l 197 1210 q 206 1230 197 1224 q 235 1236 215 1236 l 235 1236 q 264 1230 256 1236 q 272 1210 272 1224 l 272 1210 l 272 69 l 811 69 q 828 62 822 69 q 833 35 833 54 l 833 35 q 828 8 833 15 q 811 0 822 0 l 811 0 z m 646 568 l 646 568 q 600 585 615 568 q 585 638 585 601 l 585 638 q 600 689 585 672 q 646 706 615 706 l 646 706 q 691 689 676 706 q 706 638 706 672 l 706 638 q 691 585 706 601 q 646 568 676 568 z m 0 -521 l 0 -507 l 868 -507 l 868 -521 l 0 -521 z m 0 0 l 0 28 l 868 28 l 868 0 l 0 0 z m 0 694 l 0 701 l 868 701 l 868 694 l 0 694 z m 0 1215 l 0 1229 l 868 1229 l 868 1215 l 0 1215 z "},"Ł":{"ha":868,"x_min":0,"x_max":868,"o":"m 811 0 l 235 0 q 197 32 197 0 l 197 32 l 197 1210 q 206 1230 197 1224 q 235 1236 215 1236 l 235 1236 q 264 1230 256 1236 q 272 1210 272 1224 l 272 1210 l 272 69 l 811 69 q 828 62 822 69 q 833 35 833 54 l 833 35 q 828 8 833 15 q 811 0 822 0 l 811 0 z m 514 743 l 85 500 q 63 497 72 493 q 44 515 54 501 l 44 515 q 38 539 38 528 q 51 558 39 550 l 51 558 l 479 799 q 502 803 493 807 q 518 786 511 799 l 518 786 q 514 743 535 756 l 514 743 z m 0 -521 l 0 -507 l 868 -507 l 868 -521 l 0 -521 z m 0 0 l 0 28 l 868 28 l 868 0 l 0 0 z m 0 694 l 0 701 l 868 701 l 868 694 l 0 694 z m 0 1215 l 0 1229 l 868 1229 l 868 1215 l 0 1215 z "},"Ń":{"ha":1233,"x_min":0,"x_max":1233,"o":"m 235 -19 l 235 -19 q 197 7 197 -19 l 197 7 l 197 1210 q 206 1230 197 1224 q 233 1236 215 1236 l 233 1236 q 259 1231 250 1236 q 276 1214 268 1226 l 276 1214 l 961 139 l 961 1210 q 970 1230 961 1224 q 999 1236 979 1236 l 999 1236 q 1036 1210 1036 1236 l 1036 1210 l 1036 7 q 1026 -13 1036 -7 q 1000 -19 1017 -19 l 1000 -19 q 976 -15 985 -19 q 960 3 968 -10 l 960 3 l 272 1085 l 272 7 q 264 -13 272 -7 q 235 -19 256 -19 z m 544 1304 l 544 1304 q 523 1317 536 1304 q 510 1339 510 1329 l 510 1339 q 511 1347 510 1342 q 518 1356 513 1351 l 518 1356 l 726 1556 q 736 1565 732 1561 q 746 1568 740 1568 l 746 1568 q 767 1560 756 1568 q 785 1542 778 1553 q 793 1522 793 1532 l 793 1522 q 792 1513 793 1517 q 782 1501 790 1508 l 782 1501 l 564 1314 q 553 1307 557 1310 q 544 1304 550 1304 z m 0 -521 l 0 -507 l 1233 -507 l 1233 -521 l 0 -521 z m 0 0 l 0 28 l 1233 28 l 1233 0 l 0 0 z m 0 694 l 0 701 l 1233 701 l 1233 694 l 0 694 z m 0 1215 l 0 1229 l 1233 1229 l 1233 1215 l 0 1215 z "},"Ň":{"ha":1233,"x_min":0,"x_max":1233,"o":"m 235 -19 l 235 -19 q 197 7 197 -19 l 197 7 l 197 1210 q 206 1230 197 1224 q 233 1236 215 1236 l 233 1236 q 259 1231 250 1236 q 276 1214 268 1226 l 276 1214 l 961 139 l 961 1210 q 970 1230 961 1224 q 999 1236 979 1236 l 999 1236 q 1036 1210 1036 1236 l 1036 1210 l 1036 7 q 1026 -13 1036 -7 q 1000 -19 1017 -19 l 1000 -19 q 976 -15 985 -19 q 960 3 968 -10 l 960 3 l 272 1085 l 272 7 q 264 -13 272 -7 q 235 -19 256 -19 z m 833 1568 l 833 1568 q 854 1558 844 1568 q 864 1535 864 1547 l 864 1535 q 863 1528 864 1532 q 857 1518 863 1524 l 857 1518 l 651 1321 q 637 1309 644 1314 q 617 1304 629 1304 l 617 1304 q 597 1309 604 1304 q 582 1321 590 1314 l 582 1321 l 376 1518 q 370 1528 371 1524 q 369 1536 369 1533 l 369 1536 q 380 1558 369 1549 q 400 1568 390 1568 l 400 1568 q 413 1565 407 1568 q 424 1557 418 1561 l 424 1557 l 617 1393 l 810 1557 q 822 1565 817 1561 q 833 1568 826 1568 z m 0 -521 l 0 -507 l 1233 -507 l 1233 -521 l 0 -521 z m 0 0 l 0 28 l 1233 28 l 1233 0 l 0 0 z m 0 694 l 0 701 l 1233 701 l 1233 694 l 0 694 z m 0 1215 l 0 1229 l 1233 1229 l 1233 1215 l 0 1215 z "},"Ņ":{"ha":1233,"x_min":0,"x_max":1233,"o":"m 235 -19 l 235 -19 q 197 7 197 -19 l 197 7 l 197 1210 q 206 1230 197 1224 q 233 1236 215 1236 l 233 1236 q 259 1231 250 1236 q 276 1214 268 1226 l 276 1214 l 961 139 l 961 1210 q 970 1230 961 1224 q 999 1236 979 1236 l 999 1236 q 1036 1210 1036 1236 l 1036 1210 l 1036 7 q 1026 -13 1036 -7 q 1000 -19 1017 -19 l 1000 -19 q 976 -15 985 -19 q 960 3 968 -10 l 960 3 l 272 1085 l 272 7 q 264 -13 272 -7 q 235 -19 256 -19 z m 543 -387 l 543 -387 q 526 -372 528 -381 q 533 -344 524 -362 l 533 -344 q 560 -282 550 -310 q 574 -222 569 -254 q 578 -142 578 -190 l 578 -142 q 586 -117 578 -126 q 613 -108 594 -108 l 613 -108 q 644 -119 633 -108 q 654 -147 654 -131 l 654 -147 q 647 -224 654 -185 q 624 -299 639 -262 q 588 -369 608 -336 l 588 -369 q 568 -388 578 -383 q 543 -387 558 -393 z m 0 -521 l 0 -507 l 1233 -507 l 1233 -521 l 0 -521 z m 0 0 l 0 28 l 1233 28 l 1233 0 l 0 0 z m 0 694 l 0 701 l 1233 701 l 1233 694 l 0 694 z m 0 1215 l 0 1229 l 1233 1229 l 1233 1215 l 0 1215 z "},"Ñ":{"ha":1233,"x_min":0,"x_max":1233,"o":"m 235 -19 l 235 -19 q 197 7 197 -19 l 197 7 l 197 1210 q 206 1230 197 1224 q 233 1236 215 1236 l 233 1236 q 259 1231 250 1236 q 276 1214 268 1226 l 276 1214 l 961 139 l 961 1210 q 970 1230 961 1224 q 999 1236 979 1236 l 999 1236 q 1036 1210 1036 1236 l 1036 1210 l 1036 7 q 1026 -13 1036 -7 q 1000 -19 1017 -19 l 1000 -19 q 976 -15 985 -19 q 960 3 968 -10 l 960 3 l 272 1085 l 272 7 q 264 -13 272 -7 q 235 -19 256 -19 z m 401 1346 l 401 1346 q 369 1375 369 1346 l 369 1375 q 402 1493 372 1453 q 485 1533 432 1533 l 485 1533 q 559 1516 524 1533 q 627 1477 594 1499 q 689 1438 660 1456 q 743 1421 718 1421 l 743 1421 q 782 1444 769 1421 q 796 1511 794 1467 l 796 1511 q 829 1536 799 1536 l 829 1536 q 856 1530 849 1536 q 863 1507 863 1524 l 863 1507 q 831 1392 860 1433 q 743 1350 801 1350 l 743 1350 q 670 1367 706 1350 q 602 1406 635 1385 q 540 1445 569 1428 q 486 1463 511 1463 l 486 1463 q 449 1441 461 1463 q 435 1374 438 1419 l 435 1374 q 426 1352 433 1358 q 401 1346 418 1346 z m 0 -521 l 0 -507 l 1233 -507 l 1233 -521 l 0 -521 z m 0 0 l 0 28 l 1233 28 l 1233 0 l 0 0 z m 0 694 l 0 701 l 1233 701 l 1233 694 l 0 694 z m 0 1215 l 0 1229 l 1233 1229 l 1233 1215 l 0 1215 z "},"Ó":{"ha":1285,"x_min":0,"x_max":1285,"o":"m 644 -26 l 644 -26 q 434 19 529 -26 q 269 147 339 64 q 163 347 200 231 q 125 606 125 464 l 125 606 q 142 783 125 700 q 190 937 158 867 q 269 1063 222 1007 q 373 1157 315 1118 q 499 1216 431 1196 q 644 1236 568 1236 l 644 1236 q 853 1191 758 1236 q 1016 1063 947 1146 q 1122 863 1085 979 q 1160 606 1160 747 l 1160 606 q 1143 428 1160 511 q 1094 274 1126 344 q 1017 147 1063 203 q 913 53 971 92 q 788 -6 856 15 q 644 -26 721 -26 z m 644 49 l 644 49 q 764 65 707 49 q 869 116 821 82 q 956 198 918 150 q 1022 308 994 246 q 1065 444 1050 369 q 1079 606 1079 519 l 1079 606 q 1047 838 1079 735 q 956 1013 1015 940 q 818 1124 897 1086 q 644 1163 739 1163 l 644 1163 q 524 1145 581 1163 q 417 1094 467 1128 q 330 1013 368 1061 q 263 903 292 965 q 220 767 235 842 q 206 606 206 692 l 206 606 q 238 374 206 476 q 330 198 271 271 q 469 87 389 125 q 644 49 549 49 z m 571 1304 l 571 1304 q 549 1317 563 1304 q 536 1339 536 1329 l 536 1339 q 538 1347 536 1342 q 544 1356 539 1351 l 544 1356 l 753 1556 q 763 1565 758 1561 q 772 1568 767 1568 l 772 1568 q 793 1560 782 1568 q 812 1542 804 1553 q 819 1522 819 1532 l 819 1522 q 818 1513 819 1517 q 808 1501 817 1508 l 808 1501 l 590 1314 q 580 1307 583 1310 q 571 1304 576 1304 z m 0 -521 l 0 -507 l 1285 -507 l 1285 -521 l 0 -521 z m 0 0 l 0 28 l 1285 28 l 1285 0 l 0 0 z m 0 694 l 0 701 l 1285 701 l 1285 694 l 0 694 z m 0 1215 l 0 1229 l 1285 1229 l 1285 1215 l 0 1215 z "},"Ŏ":{"ha":1285,"x_min":0,"x_max":1285,"o":"m 644 -26 l 644 -26 q 434 19 529 -26 q 269 147 339 64 q 163 347 200 231 q 125 606 125 464 l 125 606 q 142 783 125 700 q 190 937 158 867 q 269 1063 222 1007 q 373 1157 315 1118 q 499 1216 431 1196 q 644 1236 568 1236 l 644 1236 q 853 1191 758 1236 q 1016 1063 947 1146 q 1122 863 1085 979 q 1160 606 1160 747 l 1160 606 q 1143 428 1160 511 q 1094 274 1126 344 q 1017 147 1063 203 q 913 53 971 92 q 788 -6 856 15 q 644 -26 721 -26 z m 644 49 l 644 49 q 764 65 707 49 q 869 116 821 82 q 956 198 918 150 q 1022 308 994 246 q 1065 444 1050 369 q 1079 606 1079 519 l 1079 606 q 1047 838 1079 735 q 956 1013 1015 940 q 818 1124 897 1086 q 644 1163 739 1163 l 644 1163 q 524 1145 581 1163 q 417 1094 467 1128 q 330 1013 368 1061 q 263 903 292 965 q 220 767 235 842 q 206 606 206 692 l 206 606 q 238 374 206 476 q 330 198 271 271 q 469 87 389 125 q 644 49 549 49 z m 643 1306 l 643 1306 q 479 1365 543 1306 q 410 1540 415 1424 l 410 1540 q 418 1560 410 1553 q 443 1568 426 1568 l 443 1568 q 467 1561 460 1568 q 475 1540 474 1554 l 475 1540 q 527 1423 483 1461 q 643 1385 571 1385 l 643 1385 q 760 1423 715 1385 q 813 1540 804 1461 l 813 1540 q 820 1561 814 1554 q 842 1568 826 1568 l 842 1568 q 869 1560 860 1568 q 876 1540 878 1553 l 876 1540 q 842 1412 874 1464 q 760 1333 811 1360 q 643 1306 708 1306 z m 0 -521 l 0 -507 l 1285 -507 l 1285 -521 l 0 -521 z m 0 0 l 0 28 l 1285 28 l 1285 0 l 0 0 z m 0 694 l 0 701 l 1285 701 l 1285 694 l 0 694 z m 0 1215 l 0 1229 l 1285 1229 l 1285 1215 l 0 1215 z "},"Ǒ":{"ha":1285,"x_min":0,"x_max":1285,"o":"m 644 -26 l 644 -26 q 434 19 529 -26 q 269 147 339 64 q 163 347 200 231 q 125 606 125 464 l 125 606 q 142 783 125 700 q 190 937 158 867 q 269 1063 222 1007 q 373 1157 315 1118 q 499 1216 431 1196 q 644 1236 568 1236 l 644 1236 q 853 1191 758 1236 q 1016 1063 947 1146 q 1122 863 1085 979 q 1160 606 1160 747 l 1160 606 q 1143 428 1160 511 q 1094 274 1126 344 q 1017 147 1063 203 q 913 53 971 92 q 788 -6 856 15 q 644 -26 721 -26 z m 644 49 l 644 49 q 764 65 707 49 q 869 116 821 82 q 956 198 918 150 q 1022 308 994 246 q 1065 444 1050 369 q 1079 606 1079 519 l 1079 606 q 1047 838 1079 735 q 956 1013 1015 940 q 818 1124 897 1086 q 644 1163 739 1163 l 644 1163 q 524 1145 581 1163 q 417 1094 467 1128 q 330 1013 368 1061 q 263 903 292 965 q 220 767 235 842 q 206 606 206 692 l 206 606 q 238 374 206 476 q 330 198 271 271 q 469 87 389 125 q 644 49 549 49 z m 860 1568 l 860 1568 q 881 1558 871 1568 q 890 1535 890 1547 l 890 1535 q 890 1528 890 1532 q 883 1518 889 1524 l 883 1518 l 678 1321 q 663 1309 671 1314 q 643 1304 656 1304 l 643 1304 q 624 1309 631 1304 q 608 1321 617 1314 l 608 1321 l 403 1518 q 397 1528 397 1524 q 396 1536 396 1533 l 396 1536 q 406 1558 396 1549 q 426 1568 417 1568 l 426 1568 q 439 1565 433 1568 q 450 1557 444 1561 l 450 1557 l 643 1393 l 836 1557 q 848 1565 843 1561 q 860 1568 853 1568 z m 0 -521 l 0 -507 l 1285 -507 l 1285 -521 l 0 -521 z m 0 0 l 0 28 l 1285 28 l 1285 0 l 0 0 z m 0 694 l 0 701 l 1285 701 l 1285 694 l 0 694 z m 0 1215 l 0 1229 l 1285 1229 l 1285 1215 l 0 1215 z "},"Ô":{"ha":1285,"x_min":0,"x_max":1285,"o":"m 644 -26 l 644 -26 q 434 19 529 -26 q 269 147 339 64 q 163 347 200 231 q 125 606 125 464 l 125 606 q 142 783 125 700 q 190 937 158 867 q 269 1063 222 1007 q 373 1157 315 1118 q 499 1216 431 1196 q 644 1236 568 1236 l 644 1236 q 853 1191 758 1236 q 1016 1063 947 1146 q 1122 863 1085 979 q 1160 606 1160 747 l 1160 606 q 1143 428 1160 511 q 1094 274 1126 344 q 1017 147 1063 203 q 913 53 971 92 q 788 -6 856 15 q 644 -26 721 -26 z m 644 49 l 644 49 q 764 65 707 49 q 869 116 821 82 q 956 198 918 150 q 1022 308 994 246 q 1065 444 1050 369 q 1079 606 1079 519 l 1079 606 q 1047 838 1079 735 q 956 1013 1015 940 q 818 1124 897 1086 q 644 1163 739 1163 l 644 1163 q 524 1145 581 1163 q 417 1094 467 1128 q 330 1013 368 1061 q 263 903 292 965 q 220 767 235 842 q 206 606 206 692 l 206 606 q 238 374 206 476 q 330 198 271 271 q 469 87 389 125 q 644 49 549 49 z m 426 1304 l 426 1304 q 406 1315 417 1304 q 396 1336 396 1325 l 396 1336 q 397 1345 396 1340 q 403 1356 397 1350 l 403 1356 l 608 1551 q 623 1563 615 1558 q 643 1568 631 1568 l 643 1568 q 663 1563 656 1568 q 678 1551 669 1558 l 678 1551 l 883 1353 q 890 1344 889 1349 q 890 1336 890 1340 l 890 1336 q 881 1315 890 1325 q 860 1304 871 1304 l 860 1304 q 848 1307 853 1304 q 836 1315 843 1310 l 836 1315 l 643 1479 l 450 1315 q 439 1307 444 1310 q 426 1304 433 1304 z m 0 -521 l 0 -507 l 1285 -507 l 1285 -521 l 0 -521 z m 0 0 l 0 28 l 1285 28 l 1285 0 l 0 0 z m 0 694 l 0 701 l 1285 701 l 1285 694 l 0 694 z m 0 1215 l 0 1229 l 1285 1229 l 1285 1215 l 0 1215 z "},"Ö":{"ha":1285,"x_min":0,"x_max":1285,"o":"m 644 -26 l 644 -26 q 434 19 529 -26 q 269 147 339 64 q 163 347 200 231 q 125 606 125 464 l 125 606 q 142 783 125 700 q 190 937 158 867 q 269 1063 222 1007 q 373 1157 315 1118 q 499 1216 431 1196 q 644 1236 568 1236 l 644 1236 q 853 1191 758 1236 q 1016 1063 947 1146 q 1122 863 1085 979 q 1160 606 1160 747 l 1160 606 q 1143 428 1160 511 q 1094 274 1126 344 q 1017 147 1063 203 q 913 53 971 92 q 788 -6 856 15 q 644 -26 721 -26 z m 644 49 l 644 49 q 764 65 707 49 q 869 116 821 82 q 956 198 918 150 q 1022 308 994 246 q 1065 444 1050 369 q 1079 606 1079 519 l 1079 606 q 1047 838 1079 735 q 956 1013 1015 940 q 818 1124 897 1086 q 644 1163 739 1163 l 644 1163 q 524 1145 581 1163 q 417 1094 467 1128 q 330 1013 368 1061 q 263 903 292 965 q 220 767 235 842 q 206 606 206 692 l 206 606 q 238 374 206 476 q 330 198 271 271 q 469 87 389 125 q 644 49 549 49 z m 472 1351 l 472 1351 q 427 1368 442 1351 q 413 1419 413 1385 l 413 1419 q 427 1472 413 1454 q 472 1489 442 1489 l 472 1489 q 518 1472 503 1489 q 533 1419 533 1454 l 533 1419 q 518 1368 533 1385 q 472 1351 503 1351 z m 814 1351 l 814 1351 q 769 1368 783 1351 q 754 1419 754 1385 l 754 1419 q 769 1472 754 1454 q 814 1489 783 1489 l 814 1489 q 860 1472 844 1489 q 875 1419 875 1454 l 875 1419 q 860 1368 875 1385 q 814 1351 844 1351 z m 0 -521 l 0 -507 l 1285 -507 l 1285 -521 l 0 -521 z m 0 0 l 0 28 l 1285 28 l 1285 0 l 0 0 z m 0 694 l 0 701 l 1285 701 l 1285 694 l 0 694 z m 0 1215 l 0 1229 l 1285 1229 l 1285 1215 l 0 1215 z "},"Ò":{"ha":1285,"x_min":0,"x_max":1285,"o":"m 644 -26 l 644 -26 q 434 19 529 -26 q 269 147 339 64 q 163 347 200 231 q 125 606 125 464 l 125 606 q 142 783 125 700 q 190 937 158 867 q 269 1063 222 1007 q 373 1157 315 1118 q 499 1216 431 1196 q 644 1236 568 1236 l 644 1236 q 853 1191 758 1236 q 1016 1063 947 1146 q 1122 863 1085 979 q 1160 606 1160 747 l 1160 606 q 1143 428 1160 511 q 1094 274 1126 344 q 1017 147 1063 203 q 913 53 971 92 q 788 -6 856 15 q 644 -26 721 -26 z m 644 49 l 644 49 q 764 65 707 49 q 869 116 821 82 q 956 198 918 150 q 1022 308 994 246 q 1065 444 1050 369 q 1079 606 1079 519 l 1079 606 q 1047 838 1079 735 q 956 1013 1015 940 q 818 1124 897 1086 q 644 1163 739 1163 l 644 1163 q 524 1145 581 1163 q 417 1094 467 1128 q 330 1013 368 1061 q 263 903 292 965 q 220 767 235 842 q 206 606 206 692 l 206 606 q 238 374 206 476 q 330 198 271 271 q 469 87 389 125 q 644 49 549 49 z m 715 1304 l 715 1304 q 706 1307 710 1304 q 696 1314 703 1310 l 696 1314 l 478 1501 q 469 1513 471 1508 q 468 1522 468 1517 l 468 1522 q 476 1542 468 1532 q 494 1560 483 1553 q 514 1568 504 1568 l 514 1568 q 524 1565 519 1568 q 535 1556 529 1561 l 535 1556 l 742 1356 q 749 1347 749 1351 q 750 1339 750 1342 l 750 1339 q 738 1317 750 1329 q 715 1304 725 1304 z m 0 -521 l 0 -507 l 1285 -507 l 1285 -521 l 0 -521 z m 0 0 l 0 28 l 1285 28 l 1285 0 l 0 0 z m 0 694 l 0 701 l 1285 701 l 1285 694 l 0 694 z m 0 1215 l 0 1229 l 1285 1229 l 1285 1215 l 0 1215 z "},"Ő":{"ha":1285,"x_min":0,"x_max":1285,"o":"m 644 -26 l 644 -26 q 434 19 529 -26 q 269 147 339 64 q 163 347 200 231 q 125 606 125 464 l 125 606 q 142 783 125 700 q 190 937 158 867 q 269 1063 222 1007 q 373 1157 315 1118 q 499 1216 431 1196 q 644 1236 568 1236 l 644 1236 q 853 1191 758 1236 q 1016 1063 947 1146 q 1122 863 1085 979 q 1160 606 1160 747 l 1160 606 q 1143 428 1160 511 q 1094 274 1126 344 q 1017 147 1063 203 q 913 53 971 92 q 788 -6 856 15 q 644 -26 721 -26 z m 644 49 l 644 49 q 763 65 707 49 q 869 116 819 82 q 956 198 918 150 q 1022 308 994 246 q 1065 444 1050 369 q 1079 606 1079 519 l 1079 606 q 1047 838 1079 735 q 956 1013 1015 940 q 818 1124 897 1086 q 644 1163 739 1163 l 644 1163 q 524 1145 581 1163 q 417 1094 467 1128 q 330 1013 368 1061 q 263 903 292 965 q 220 767 235 842 q 206 606 206 692 l 206 606 q 238 374 206 476 q 330 198 271 271 q 469 87 389 125 q 644 49 549 49 z m 500 1304 l 500 1304 q 478 1317 490 1304 q 465 1339 465 1329 l 465 1339 q 466 1346 465 1342 q 472 1356 467 1350 l 472 1356 l 676 1556 q 686 1565 682 1561 q 697 1568 690 1568 l 697 1568 q 717 1560 707 1568 q 734 1542 726 1553 q 742 1524 742 1532 l 742 1524 q 740 1513 742 1517 q 731 1501 738 1508 l 731 1501 l 518 1314 q 508 1307 513 1310 q 500 1304 504 1304 z m 738 1304 l 738 1304 q 715 1317 728 1304 q 703 1339 703 1329 l 703 1339 q 703 1347 703 1342 q 711 1356 704 1351 l 711 1356 l 915 1556 q 926 1565 921 1561 q 938 1568 932 1568 l 938 1568 q 957 1560 947 1568 q 974 1542 967 1553 q 981 1524 981 1532 l 981 1524 q 979 1513 981 1517 q 971 1501 978 1508 l 971 1501 l 757 1314 q 746 1307 750 1310 q 738 1304 742 1304 z m 0 -521 l 0 -507 l 1285 -507 l 1285 -521 l 0 -521 z m 0 0 l 0 28 l 1285 28 l 1285 0 l 0 0 z m 0 694 l 0 701 l 1285 701 l 1285 694 l 0 694 z m 0 1215 l 0 1229 l 1285 1229 l 1285 1215 l 0 1215 z "},"Ō":{"ha":1285,"x_min":0,"x_max":1285,"o":"m 644 -26 l 644 -26 q 434 19 529 -26 q 269 147 339 64 q 163 347 200 231 q 125 606 125 464 l 125 606 q 142 783 125 700 q 190 937 158 867 q 269 1063 222 1007 q 373 1157 315 1118 q 499 1216 431 1196 q 644 1236 568 1236 l 644 1236 q 853 1191 758 1236 q 1016 1063 947 1146 q 1122 863 1085 979 q 1160 606 1160 747 l 1160 606 q 1143 428 1160 511 q 1094 274 1126 344 q 1017 147 1063 203 q 913 53 971 92 q 788 -6 856 15 q 644 -26 721 -26 z m 644 49 l 644 49 q 764 65 707 49 q 869 116 821 82 q 956 198 918 150 q 1022 308 994 246 q 1065 444 1050 369 q 1079 606 1079 519 l 1079 606 q 1047 838 1079 735 q 956 1013 1015 940 q 818 1124 897 1086 q 644 1163 739 1163 l 644 1163 q 524 1145 581 1163 q 417 1094 467 1128 q 330 1013 368 1061 q 263 903 292 965 q 220 767 235 842 q 206 606 206 692 l 206 606 q 238 374 206 476 q 330 198 271 271 q 469 87 389 125 q 644 49 549 49 z m 829 1403 l 457 1403 q 436 1412 442 1403 q 431 1438 431 1421 l 431 1438 q 436 1465 431 1456 q 457 1475 442 1475 l 457 1475 l 829 1475 q 850 1465 844 1475 q 856 1438 856 1456 l 856 1438 q 850 1412 856 1421 q 829 1403 844 1403 l 829 1403 z m 0 -521 l 0 -507 l 1285 -507 l 1285 -521 l 0 -521 z m 0 0 l 0 28 l 1285 28 l 1285 0 l 0 0 z m 0 694 l 0 701 l 1285 701 l 1285 694 l 0 694 z m 0 1215 l 0 1229 l 1285 1229 l 1285 1215 l 0 1215 z "},"Ø":{"ha":1285,"x_min":0,"x_max":1285,"o":"m 644 -26 l 644 -26 q 434 19 529 -26 q 269 147 339 64 q 163 347 200 231 q 125 606 125 464 l 125 606 q 142 783 125 700 q 190 937 158 867 q 269 1063 222 1007 q 373 1157 315 1118 q 499 1216 431 1196 q 644 1236 568 1236 l 644 1236 q 853 1191 758 1236 q 1016 1063 947 1146 q 1122 863 1085 979 q 1160 606 1160 747 l 1160 606 q 1143 428 1160 511 q 1094 274 1126 344 q 1017 147 1063 203 q 913 53 971 92 q 788 -6 856 15 q 644 -26 721 -26 z m 644 49 l 644 49 q 764 65 707 49 q 869 116 821 82 q 956 198 918 150 q 1022 308 994 246 q 1065 444 1050 369 q 1079 606 1079 519 l 1079 606 q 1047 838 1079 735 q 956 1013 1015 940 q 818 1124 897 1086 q 644 1163 739 1163 l 644 1163 q 524 1145 581 1163 q 417 1094 467 1128 q 330 1013 368 1061 q 263 903 292 965 q 220 767 235 842 q 206 606 206 692 l 206 606 q 238 374 206 476 q 330 198 271 271 q 469 87 389 125 q 644 49 549 49 z m 1054 1244 l 300 -75 q 281 -91 292 -87 q 253 -85 271 -94 l 253 -85 q 236 -42 221 -67 l 236 -42 l 992 1281 q 1011 1294 999 1293 q 1039 1288 1024 1296 l 1039 1288 q 1058 1270 1054 1281 q 1054 1244 1061 1260 l 1054 1244 z m 0 -521 l 0 -507 l 1285 -507 l 1285 -521 l 0 -521 z m 0 0 l 0 28 l 1285 28 l 1285 0 l 0 0 z m 0 694 l 0 701 l 1285 701 l 1285 694 l 0 694 z m 0 1215 l 0 1229 l 1285 1229 l 1285 1215 l 0 1215 z "},"Õ":{"ha":1285,"x_min":0,"x_max":1285,"o":"m 644 -26 l 644 -26 q 434 19 529 -26 q 269 147 339 64 q 163 347 200 231 q 125 606 125 464 l 125 606 q 142 783 125 700 q 190 937 158 867 q 269 1063 222 1007 q 373 1157 315 1118 q 499 1216 431 1196 q 644 1236 568 1236 l 644 1236 q 853 1191 758 1236 q 1016 1063 947 1146 q 1122 863 1085 979 q 1160 606 1160 747 l 1160 606 q 1143 428 1160 511 q 1094 274 1126 344 q 1017 147 1063 203 q 913 53 971 92 q 788 -6 856 15 q 644 -26 721 -26 z m 644 49 l 644 49 q 764 65 707 49 q 869 116 821 82 q 956 198 918 150 q 1022 308 994 246 q 1065 444 1050 369 q 1079 606 1079 519 l 1079 606 q 1047 838 1079 735 q 956 1013 1015 940 q 818 1124 897 1086 q 644 1163 739 1163 l 644 1163 q 524 1145 581 1163 q 417 1094 467 1128 q 330 1013 368 1061 q 263 903 292 965 q 220 767 235 842 q 206 606 206 692 l 206 606 q 238 374 206 476 q 330 198 271 271 q 469 87 389 125 q 644 49 549 49 z m 428 1346 l 428 1346 q 396 1375 396 1346 l 396 1375 q 428 1493 399 1453 q 511 1533 458 1533 l 511 1533 q 585 1516 550 1533 q 653 1477 621 1499 q 715 1438 686 1456 q 769 1421 744 1421 l 769 1421 q 808 1444 796 1421 q 822 1511 821 1467 l 822 1511 q 856 1536 825 1536 l 856 1536 q 882 1530 875 1536 q 889 1507 889 1524 l 889 1507 q 857 1392 886 1433 q 769 1350 828 1350 l 769 1350 q 697 1367 732 1350 q 628 1406 661 1385 q 567 1445 596 1428 q 513 1463 538 1463 l 513 1463 q 476 1441 488 1463 q 461 1374 464 1419 l 461 1374 q 452 1352 460 1358 q 428 1346 444 1346 z m 0 -521 l 0 -507 l 1285 -507 l 1285 -521 l 0 -521 z m 0 0 l 0 28 l 1285 28 l 1285 0 l 0 0 z m 0 694 l 0 701 l 1285 701 l 1285 694 l 0 694 z m 0 1215 l 0 1229 l 1285 1229 l 1285 1215 l 0 1215 z "},"Ố":{"ha":1285,"x_min":0,"x_max":1285,"o":"m 644 -26 l 644 -26 q 434 19 529 -26 q 269 147 339 64 q 163 347 200 231 q 125 606 125 464 l 125 606 q 142 783 125 700 q 190 937 158 867 q 269 1063 222 1007 q 373 1157 315 1118 q 499 1216 431 1196 q 644 1236 568 1236 l 644 1236 q 853 1191 758 1236 q 1016 1063 947 1146 q 1122 863 1085 979 q 1160 606 1160 747 l 1160 606 q 1143 428 1160 511 q 1094 274 1126 344 q 1017 147 1063 203 q 913 53 971 92 q 788 -6 856 15 q 644 -26 721 -26 z m 644 49 l 644 49 q 764 65 707 49 q 869 116 821 82 q 956 198 918 150 q 1022 308 994 246 q 1065 444 1050 369 q 1079 606 1079 519 l 1079 606 q 1047 838 1079 735 q 956 1013 1015 940 q 818 1124 897 1086 q 644 1163 739 1163 l 644 1163 q 524 1145 581 1163 q 417 1094 467 1128 q 330 1013 368 1061 q 263 903 292 965 q 220 767 235 842 q 206 606 206 692 l 206 606 q 238 374 206 476 q 330 198 271 271 q 469 87 389 125 q 644 49 549 49 z m 426 1304 l 426 1304 q 406 1315 417 1304 q 396 1336 396 1325 l 396 1336 q 397 1345 396 1340 q 403 1356 397 1350 l 403 1356 l 608 1551 q 623 1563 615 1558 q 643 1568 631 1568 l 643 1568 q 663 1563 656 1568 q 678 1551 669 1558 l 678 1551 l 883 1353 q 890 1344 889 1349 q 890 1336 890 1340 l 890 1336 q 881 1315 890 1325 q 860 1304 871 1304 l 860 1304 q 848 1307 853 1304 q 836 1315 843 1310 l 836 1315 l 643 1479 l 450 1315 q 439 1307 444 1310 q 426 1304 433 1304 z m 847 1514 l 847 1514 q 825 1526 838 1514 q 813 1549 813 1539 l 813 1549 q 813 1556 813 1553 q 819 1567 814 1560 l 819 1567 l 1013 1754 q 1022 1763 1018 1760 q 1033 1767 1026 1767 l 1033 1767 q 1053 1759 1042 1767 q 1072 1740 1064 1751 q 1079 1721 1079 1729 l 1079 1721 q 1078 1710 1079 1714 q 1068 1700 1076 1706 l 1068 1700 l 867 1524 q 856 1517 860 1521 q 847 1514 851 1514 z m 0 -521 l 0 -507 l 1285 -507 l 1285 -521 l 0 -521 z m 0 0 l 0 28 l 1285 28 l 1285 0 l 0 0 z m 0 694 l 0 701 l 1285 701 l 1285 694 l 0 694 z m 0 1215 l 0 1229 l 1285 1229 l 1285 1215 l 0 1215 z "},"Ộ":{"ha":1285,"x_min":0,"x_max":1285,"o":"m 644 -26 l 644 -26 q 434 19 529 -26 q 269 147 339 64 q 163 347 200 231 q 125 606 125 464 l 125 606 q 142 783 125 700 q 190 937 158 867 q 269 1063 222 1007 q 373 1157 315 1118 q 499 1216 431 1196 q 644 1236 568 1236 l 644 1236 q 853 1191 758 1236 q 1016 1063 947 1146 q 1122 863 1085 979 q 1160 606 1160 747 l 1160 606 q 1143 428 1160 511 q 1094 274 1126 344 q 1017 147 1063 203 q 913 53 971 92 q 788 -6 856 15 q 644 -26 721 -26 z m 644 49 l 644 49 q 764 65 707 49 q 869 116 821 82 q 956 198 918 150 q 1022 308 994 246 q 1065 444 1050 369 q 1079 606 1079 519 l 1079 606 q 1047 838 1079 735 q 956 1013 1015 940 q 818 1124 897 1086 q 644 1163 739 1163 l 644 1163 q 524 1145 581 1163 q 417 1094 467 1128 q 330 1013 368 1061 q 263 903 292 965 q 220 767 235 842 q 206 606 206 692 l 206 606 q 238 374 206 476 q 330 198 271 271 q 469 87 389 125 q 644 49 549 49 z m 643 -306 l 643 -306 q 598 -289 613 -306 q 583 -237 583 -272 l 583 -237 q 598 -185 583 -201 q 643 -168 613 -168 l 643 -168 q 689 -185 674 -168 q 704 -237 704 -201 l 704 -237 q 689 -289 704 -272 q 643 -306 674 -306 z m 426 1304 l 426 1304 q 406 1315 417 1304 q 396 1336 396 1325 l 396 1336 q 397 1345 396 1340 q 403 1356 397 1350 l 403 1356 l 608 1551 q 623 1563 615 1558 q 643 1568 631 1568 l 643 1568 q 663 1563 656 1568 q 678 1551 669 1558 l 678 1551 l 883 1353 q 890 1344 889 1349 q 890 1336 890 1340 l 890 1336 q 881 1315 890 1325 q 860 1304 871 1304 l 860 1304 q 848 1307 853 1304 q 836 1315 843 1310 l 836 1315 l 643 1479 l 450 1315 q 439 1307 444 1310 q 426 1304 433 1304 z m 0 -521 l 0 -507 l 1285 -507 l 1285 -521 l 0 -521 z m 0 0 l 0 28 l 1285 28 l 1285 0 l 0 0 z m 0 694 l 0 701 l 1285 701 l 1285 694 l 0 694 z m 0 1215 l 0 1229 l 1285 1229 l 1285 1215 l 0 1215 z "},"Ồ":{"ha":1285,"x_min":0,"x_max":1285,"o":"m 644 -26 l 644 -26 q 434 19 529 -26 q 269 147 339 64 q 163 347 200 231 q 125 606 125 464 l 125 606 q 142 783 125 700 q 190 937 158 867 q 269 1063 222 1007 q 373 1157 315 1118 q 499 1216 431 1196 q 644 1236 568 1236 l 644 1236 q 853 1191 758 1236 q 1016 1063 947 1146 q 1122 863 1085 979 q 1160 606 1160 747 l 1160 606 q 1143 428 1160 511 q 1094 274 1126 344 q 1017 147 1063 203 q 913 53 971 92 q 788 -6 856 15 q 644 -26 721 -26 z m 644 49 l 644 49 q 764 65 707 49 q 869 116 821 82 q 956 198 918 150 q 1022 308 994 246 q 1065 444 1050 369 q 1079 606 1079 519 l 1079 606 q 1047 838 1079 735 q 956 1013 1015 940 q 818 1124 897 1086 q 644 1163 739 1163 l 644 1163 q 524 1145 581 1163 q 417 1094 467 1128 q 330 1013 368 1061 q 263 903 292 965 q 220 767 235 842 q 206 606 206 692 l 206 606 q 238 374 206 476 q 330 198 271 271 q 469 87 389 125 q 644 49 549 49 z m 426 1304 l 426 1304 q 406 1315 417 1304 q 396 1336 396 1325 l 396 1336 q 397 1345 396 1340 q 403 1356 397 1350 l 403 1356 l 608 1551 q 623 1563 615 1558 q 643 1568 631 1568 l 643 1568 q 663 1563 656 1568 q 678 1551 669 1558 l 678 1551 l 883 1353 q 890 1344 889 1349 q 890 1336 890 1340 l 890 1336 q 881 1315 890 1325 q 860 1304 871 1304 l 860 1304 q 848 1307 853 1304 q 836 1315 843 1310 l 836 1315 l 643 1479 l 450 1315 q 439 1307 444 1310 q 426 1304 433 1304 z m 938 1501 l 938 1501 q 928 1503 932 1501 q 918 1511 925 1506 l 918 1511 l 704 1701 q 696 1713 697 1710 q 694 1722 694 1717 l 694 1722 q 702 1743 694 1732 q 720 1762 710 1754 q 740 1769 731 1769 l 740 1769 q 750 1766 746 1769 q 761 1757 754 1763 l 761 1757 l 964 1553 q 971 1543 969 1547 q 972 1535 972 1539 l 972 1535 q 960 1514 972 1526 q 938 1501 947 1501 z m 0 -521 l 0 -507 l 1285 -507 l 1285 -521 l 0 -521 z m 0 0 l 0 28 l 1285 28 l 1285 0 l 0 0 z m 0 694 l 0 701 l 1285 701 l 1285 694 l 0 694 z m 0 1215 l 0 1229 l 1285 1229 l 1285 1215 l 0 1215 z "},"Ổ":{"ha":1285,"x_min":0,"x_max":1285,"o":"m 644 -26 l 644 -26 q 434 19 529 -26 q 269 147 339 64 q 163 347 200 231 q 125 606 125 464 l 125 606 q 142 783 125 700 q 190 937 158 867 q 269 1063 222 1007 q 373 1157 315 1118 q 499 1216 431 1196 q 644 1236 568 1236 l 644 1236 q 853 1191 758 1236 q 1016 1063 947 1146 q 1122 863 1085 979 q 1160 606 1160 747 l 1160 606 q 1143 428 1160 511 q 1094 274 1126 344 q 1017 147 1063 203 q 913 53 971 92 q 788 -6 856 15 q 644 -26 721 -26 z m 644 49 l 644 49 q 764 65 707 49 q 869 116 821 82 q 956 198 918 150 q 1022 308 994 246 q 1065 444 1050 369 q 1079 606 1079 519 l 1079 606 q 1047 838 1079 735 q 956 1013 1015 940 q 818 1124 897 1086 q 644 1163 739 1163 l 644 1163 q 524 1145 581 1163 q 417 1094 467 1128 q 330 1013 368 1061 q 263 903 292 965 q 220 767 235 842 q 206 606 206 692 l 206 606 q 238 374 206 476 q 330 198 271 271 q 469 87 389 125 q 644 49 549 49 z m 426 1304 l 426 1304 q 406 1315 417 1304 q 396 1336 396 1325 l 396 1336 q 397 1345 396 1340 q 403 1356 397 1350 l 403 1356 l 608 1551 q 623 1563 615 1558 q 643 1568 631 1568 l 643 1568 q 663 1563 656 1568 q 678 1551 669 1558 l 678 1551 l 883 1353 q 890 1344 889 1349 q 890 1336 890 1340 l 890 1336 q 881 1315 890 1325 q 860 1304 871 1304 l 860 1304 q 848 1307 853 1304 q 836 1315 843 1310 l 836 1315 l 643 1479 l 450 1315 q 439 1307 444 1310 q 426 1304 433 1304 z m 885 1772 l 885 1772 q 983 1742 946 1772 q 1021 1665 1021 1713 l 1021 1665 q 1004 1609 1021 1633 q 949 1558 988 1585 l 949 1558 q 915 1526 922 1539 q 917 1492 907 1514 l 917 1492 l 919 1485 q 917 1464 924 1472 q 898 1451 910 1456 q 874 1449 886 1447 q 858 1461 863 1451 l 858 1461 l 847 1489 q 844 1550 833 1524 q 888 1599 854 1576 l 888 1599 q 928 1631 915 1615 q 940 1663 940 1646 l 940 1663 q 921 1694 940 1682 q 874 1707 901 1707 l 874 1707 q 827 1700 850 1707 q 785 1679 804 1693 l 785 1679 q 746 1692 760 1665 l 746 1692 q 753 1732 733 1715 l 753 1732 q 811 1763 778 1753 q 885 1772 844 1772 z m 0 -521 l 0 -507 l 1285 -507 l 1285 -521 l 0 -521 z m 0 0 l 0 28 l 1285 28 l 1285 0 l 0 0 z m 0 694 l 0 701 l 1285 701 l 1285 694 l 0 694 z m 0 1215 l 0 1229 l 1285 1229 l 1285 1215 l 0 1215 z "},"Ỗ":{"ha":1285,"x_min":0,"x_max":1285,"o":"m 644 -26 l 644 -26 q 434 19 529 -26 q 269 147 339 64 q 163 347 200 231 q 125 606 125 464 l 125 606 q 142 783 125 700 q 190 937 158 867 q 269 1063 222 1007 q 373 1157 315 1118 q 499 1216 431 1196 q 644 1236 568 1236 l 644 1236 q 853 1191 758 1236 q 1016 1063 947 1146 q 1122 863 1085 979 q 1160 606 1160 747 l 1160 606 q 1143 428 1160 511 q 1094 274 1126 344 q 1017 147 1063 203 q 913 53 971 92 q 788 -6 856 15 q 644 -26 721 -26 z m 644 49 l 644 49 q 764 65 707 49 q 869 116 821 82 q 956 198 918 150 q 1022 308 994 246 q 1065 444 1050 369 q 1079 606 1079 519 l 1079 606 q 1047 838 1079 735 q 956 1013 1015 940 q 818 1124 897 1086 q 644 1163 739 1163 l 644 1163 q 524 1145 581 1163 q 417 1094 467 1128 q 330 1013 368 1061 q 263 903 292 965 q 220 767 235 842 q 206 606 206 692 l 206 606 q 238 374 206 476 q 330 198 271 271 q 469 87 389 125 q 644 49 549 49 z m 426 1304 l 426 1304 q 406 1315 417 1304 q 396 1336 396 1325 l 396 1336 q 397 1345 396 1340 q 403 1356 397 1350 l 403 1356 l 608 1551 q 623 1563 615 1558 q 643 1568 631 1568 l 643 1568 q 663 1563 656 1568 q 678 1551 669 1558 l 678 1551 l 883 1353 q 890 1344 889 1349 q 890 1336 890 1340 l 890 1336 q 881 1315 890 1325 q 860 1304 871 1304 l 860 1304 q 848 1307 853 1304 q 836 1315 843 1310 l 836 1315 l 643 1479 l 450 1315 q 439 1307 444 1310 q 426 1304 433 1304 z m 429 1585 l 429 1585 q 397 1614 397 1585 l 397 1614 q 430 1732 400 1692 q 513 1772 460 1772 l 513 1772 q 587 1755 551 1772 q 655 1715 622 1738 q 717 1676 688 1693 q 771 1658 746 1658 l 771 1658 q 810 1682 797 1658 q 824 1749 822 1706 l 824 1749 q 858 1775 826 1775 l 858 1775 q 883 1769 876 1775 q 890 1746 890 1763 l 890 1746 q 858 1630 888 1672 q 772 1588 829 1588 l 772 1588 q 698 1605 733 1588 q 630 1644 663 1622 q 569 1684 597 1667 q 514 1701 540 1701 l 514 1701 q 477 1680 489 1701 q 463 1611 465 1658 l 463 1611 q 453 1591 461 1597 q 429 1585 446 1585 z m 0 -521 l 0 -507 l 1285 -507 l 1285 -521 l 0 -521 z m 0 0 l 0 28 l 1285 28 l 1285 0 l 0 0 z m 0 694 l 0 701 l 1285 701 l 1285 694 l 0 694 z m 0 1215 l 0 1229 l 1285 1229 l 1285 1215 l 0 1215 z "},"Ọ":{"ha":1285,"x_min":0,"x_max":1285,"o":"m 644 -26 l 644 -26 q 434 19 529 -26 q 269 147 339 64 q 163 347 200 231 q 125 606 125 464 l 125 606 q 142 783 125 700 q 190 937 158 867 q 269 1063 222 1007 q 373 1157 315 1118 q 499 1216 431 1196 q 644 1236 568 1236 l 644 1236 q 853 1191 758 1236 q 1016 1063 947 1146 q 1122 863 1085 979 q 1160 606 1160 747 l 1160 606 q 1143 428 1160 511 q 1094 274 1126 344 q 1017 147 1063 203 q 913 53 971 92 q 788 -6 856 15 q 644 -26 721 -26 z m 644 49 l 644 49 q 764 65 707 49 q 869 116 821 82 q 956 198 918 150 q 1022 308 994 246 q 1065 444 1050 369 q 1079 606 1079 519 l 1079 606 q 1047 838 1079 735 q 956 1013 1015 940 q 818 1124 897 1086 q 644 1163 739 1163 l 644 1163 q 524 1145 581 1163 q 417 1094 467 1128 q 330 1013 368 1061 q 263 903 292 965 q 220 767 235 842 q 206 606 206 692 l 206 606 q 238 374 206 476 q 330 198 271 271 q 469 87 389 125 q 644 49 549 49 z m 643 -306 l 643 -306 q 598 -289 613 -306 q 583 -237 583 -272 l 583 -237 q 598 -185 583 -201 q 643 -168 613 -168 l 643 -168 q 689 -185 674 -168 q 704 -237 704 -201 l 704 -237 q 689 -289 704 -272 q 643 -306 674 -306 z m 0 -521 l 0 -507 l 1285 -507 l 1285 -521 l 0 -521 z m 0 0 l 0 28 l 1285 28 l 1285 0 l 0 0 z m 0 694 l 0 701 l 1285 701 l 1285 694 l 0 694 z m 0 1215 l 0 1229 l 1285 1229 l 1285 1215 l 0 1215 z "},"Ỏ":{"ha":1285,"x_min":0,"x_max":1285,"o":"m 644 -26 l 644 -26 q 434 19 529 -26 q 269 147 339 64 q 163 347 200 231 q 125 606 125 464 l 125 606 q 142 783 125 700 q 190 937 158 867 q 269 1063 222 1007 q 373 1157 315 1118 q 499 1216 431 1196 q 644 1236 568 1236 l 644 1236 q 853 1191 758 1236 q 1016 1063 947 1146 q 1122 863 1085 979 q 1160 606 1160 747 l 1160 606 q 1143 428 1160 511 q 1094 274 1126 344 q 1017 147 1063 203 q 913 53 971 92 q 788 -6 856 15 q 644 -26 721 -26 z m 644 49 l 644 49 q 764 65 707 49 q 869 116 821 82 q 956 198 918 150 q 1022 308 994 246 q 1065 444 1050 369 q 1079 606 1079 519 l 1079 606 q 1047 838 1079 735 q 956 1013 1015 940 q 818 1124 897 1086 q 644 1163 739 1163 l 644 1163 q 524 1145 581 1163 q 417 1094 467 1128 q 330 1013 368 1061 q 263 903 292 965 q 220 767 235 842 q 206 606 206 692 l 206 606 q 238 374 206 476 q 330 198 271 271 q 469 87 389 125 q 644 49 549 49 z m 656 1606 l 656 1606 q 754 1576 717 1606 q 792 1499 792 1546 l 792 1499 q 775 1442 792 1467 q 719 1390 758 1418 l 719 1390 q 685 1360 693 1372 q 688 1325 678 1347 l 688 1325 l 690 1317 q 688 1297 694 1306 q 669 1284 681 1288 q 645 1283 657 1281 q 629 1294 633 1285 l 629 1294 l 618 1322 q 615 1383 604 1357 q 658 1431 625 1410 l 658 1431 q 699 1463 686 1449 q 711 1496 711 1478 l 711 1496 q 692 1527 711 1515 q 644 1539 672 1539 l 644 1539 q 598 1532 621 1539 q 556 1513 575 1525 l 556 1513 q 517 1525 531 1497 l 517 1525 q 524 1565 504 1549 l 524 1565 q 582 1595 549 1585 q 656 1606 615 1606 z m 0 -521 l 0 -507 l 1285 -507 l 1285 -521 l 0 -521 z m 0 0 l 0 28 l 1285 28 l 1285 0 l 0 0 z m 0 694 l 0 701 l 1285 701 l 1285 694 l 0 694 z m 0 1215 l 0 1229 l 1285 1229 l 1285 1215 l 0 1215 z "},"Ơ":{"ha":1285,"x_min":0,"x_max":1285,"o":"m 644 -26 l 644 -26 q 434 19 529 -26 q 269 147 339 64 q 163 347 200 231 q 125 606 125 464 l 125 606 q 142 783 125 700 q 190 937 158 867 q 269 1063 222 1007 q 373 1157 315 1118 q 499 1216 431 1196 q 644 1236 568 1236 l 644 1236 q 719 1231 683 1236 q 790 1215 756 1226 l 790 1215 q 921 1240 875 1219 q 984 1292 967 1260 q 999 1364 1001 1324 q 983 1450 996 1404 l 983 1450 q 988 1478 979 1467 q 1013 1492 997 1489 q 1042 1490 1028 1496 q 1061 1468 1057 1485 l 1061 1468 q 1080 1372 1078 1419 q 1064 1284 1082 1325 q 1003 1214 1046 1243 q 888 1172 961 1185 l 888 1172 q 1086 952 1013 1099 q 1160 606 1160 806 l 1160 606 q 1143 428 1160 511 q 1094 274 1126 344 q 1017 147 1063 203 q 913 53 971 92 q 788 -6 856 15 q 644 -26 721 -26 z m 644 49 l 644 49 q 764 65 707 49 q 869 116 821 82 q 956 198 918 150 q 1022 308 994 246 q 1065 444 1050 369 q 1079 606 1079 519 l 1079 606 q 1047 838 1079 735 q 956 1013 1015 940 q 818 1124 897 1086 q 644 1163 739 1163 l 644 1163 q 524 1145 581 1163 q 417 1094 467 1128 q 330 1013 368 1061 q 263 903 292 965 q 220 767 235 842 q 206 606 206 692 l 206 606 q 238 374 206 476 q 330 198 271 271 q 469 87 389 125 q 644 49 549 49 z m 0 -521 l 0 -507 l 1285 -507 l 1285 -521 l 0 -521 z m 0 0 l 0 28 l 1285 28 l 1285 0 l 0 0 z m 0 694 l 0 701 l 1285 701 l 1285 694 l 0 694 z m 0 1215 l 0 1229 l 1285 1229 l 1285 1215 l 0 1215 z "},"Ớ":{"ha":1285,"x_min":0,"x_max":1285,"o":"m 644 -26 l 644 -26 q 434 19 529 -26 q 269 147 339 64 q 163 347 200 231 q 125 606 125 464 l 125 606 q 142 783 125 700 q 190 937 158 867 q 269 1063 222 1007 q 373 1157 315 1118 q 499 1216 431 1196 q 644 1236 568 1236 l 644 1236 q 719 1231 683 1236 q 790 1215 756 1226 l 790 1215 q 921 1240 875 1219 q 984 1292 967 1260 q 999 1364 1001 1324 q 983 1450 996 1404 l 983 1450 q 988 1478 979 1467 q 1013 1492 997 1489 q 1042 1490 1028 1496 q 1061 1468 1057 1485 l 1061 1468 q 1080 1372 1078 1419 q 1064 1284 1082 1325 q 1003 1214 1046 1243 q 888 1172 961 1185 l 888 1172 q 1086 952 1013 1099 q 1160 606 1160 806 l 1160 606 q 1143 428 1160 511 q 1094 274 1126 344 q 1017 147 1063 203 q 913 53 971 92 q 788 -6 856 15 q 644 -26 721 -26 z m 644 49 l 644 49 q 764 65 707 49 q 869 116 821 82 q 956 198 918 150 q 1022 308 994 246 q 1065 444 1050 369 q 1079 606 1079 519 l 1079 606 q 1047 838 1079 735 q 956 1013 1015 940 q 818 1124 897 1086 q 644 1163 739 1163 l 644 1163 q 524 1145 581 1163 q 417 1094 467 1128 q 330 1013 368 1061 q 263 903 292 965 q 220 767 235 842 q 206 606 206 692 l 206 606 q 238 374 206 476 q 330 198 271 271 q 469 87 389 125 q 644 49 549 49 z m 571 1304 l 571 1304 q 549 1317 563 1304 q 536 1339 536 1329 l 536 1339 q 538 1347 536 1342 q 544 1356 539 1351 l 544 1356 l 753 1556 q 763 1565 758 1561 q 772 1568 767 1568 l 772 1568 q 793 1560 782 1568 q 812 1542 804 1553 q 819 1522 819 1532 l 819 1522 q 818 1513 819 1517 q 808 1501 817 1508 l 808 1501 l 590 1314 q 580 1307 583 1310 q 571 1304 576 1304 z m 0 -521 l 0 -507 l 1285 -507 l 1285 -521 l 0 -521 z m 0 0 l 0 28 l 1285 28 l 1285 0 l 0 0 z m 0 694 l 0 701 l 1285 701 l 1285 694 l 0 694 z m 0 1215 l 0 1229 l 1285 1229 l 1285 1215 l 0 1215 z "},"Ợ":{"ha":1285,"x_min":0,"x_max":1285,"o":"m 644 -26 l 644 -26 q 434 19 529 -26 q 269 147 339 64 q 163 347 200 231 q 125 606 125 464 l 125 606 q 142 783 125 700 q 190 937 158 867 q 269 1063 222 1007 q 373 1157 315 1118 q 499 1216 431 1196 q 644 1236 568 1236 l 644 1236 q 719 1231 683 1236 q 790 1215 756 1226 l 790 1215 q 921 1240 875 1219 q 984 1292 967 1260 q 999 1364 1001 1324 q 983 1450 996 1404 l 983 1450 q 988 1478 979 1467 q 1013 1492 997 1489 q 1042 1490 1028 1496 q 1061 1468 1057 1485 l 1061 1468 q 1080 1372 1078 1419 q 1064 1284 1082 1325 q 1003 1214 1046 1243 q 888 1172 961 1185 l 888 1172 q 1086 952 1013 1099 q 1160 606 1160 806 l 1160 606 q 1143 428 1160 511 q 1094 274 1126 344 q 1017 147 1063 203 q 913 53 971 92 q 788 -6 856 15 q 644 -26 721 -26 z m 644 49 l 644 49 q 764 65 707 49 q 869 116 821 82 q 956 198 918 150 q 1022 308 994 246 q 1065 444 1050 369 q 1079 606 1079 519 l 1079 606 q 1047 838 1079 735 q 956 1013 1015 940 q 818 1124 897 1086 q 644 1163 739 1163 l 644 1163 q 524 1145 581 1163 q 417 1094 467 1128 q 330 1013 368 1061 q 263 903 292 965 q 220 767 235 842 q 206 606 206 692 l 206 606 q 238 374 206 476 q 330 198 271 271 q 469 87 389 125 q 644 49 549 49 z m 643 -306 l 643 -306 q 598 -289 613 -306 q 583 -237 583 -272 l 583 -237 q 598 -185 583 -201 q 643 -168 613 -168 l 643 -168 q 689 -185 674 -168 q 704 -237 704 -201 l 704 -237 q 689 -289 704 -272 q 643 -306 674 -306 z m 0 -521 l 0 -507 l 1285 -507 l 1285 -521 l 0 -521 z m 0 0 l 0 28 l 1285 28 l 1285 0 l 0 0 z m 0 694 l 0 701 l 1285 701 l 1285 694 l 0 694 z m 0 1215 l 0 1229 l 1285 1229 l 1285 1215 l 0 1215 z "},"Ờ":{"ha":1285,"x_min":0,"x_max":1285,"o":"m 644 -26 l 644 -26 q 434 19 529 -26 q 269 147 339 64 q 163 347 200 231 q 125 606 125 464 l 125 606 q 142 783 125 700 q 190 937 158 867 q 269 1063 222 1007 q 373 1157 315 1118 q 499 1216 431 1196 q 644 1236 568 1236 l 644 1236 q 719 1231 683 1236 q 790 1215 756 1226 l 790 1215 q 921 1240 875 1219 q 984 1292 967 1260 q 999 1364 1001 1324 q 983 1450 996 1404 l 983 1450 q 988 1478 979 1467 q 1013 1492 997 1489 q 1042 1490 1028 1496 q 1061 1468 1057 1485 l 1061 1468 q 1080 1372 1078 1419 q 1064 1284 1082 1325 q 1003 1214 1046 1243 q 888 1172 961 1185 l 888 1172 q 1086 952 1013 1099 q 1160 606 1160 806 l 1160 606 q 1143 428 1160 511 q 1094 274 1126 344 q 1017 147 1063 203 q 913 53 971 92 q 788 -6 856 15 q 644 -26 721 -26 z m 644 49 l 644 49 q 764 65 707 49 q 869 116 821 82 q 956 198 918 150 q 1022 308 994 246 q 1065 444 1050 369 q 1079 606 1079 519 l 1079 606 q 1047 838 1079 735 q 956 1013 1015 940 q 818 1124 897 1086 q 644 1163 739 1163 l 644 1163 q 524 1145 581 1163 q 417 1094 467 1128 q 330 1013 368 1061 q 263 903 292 965 q 220 767 235 842 q 206 606 206 692 l 206 606 q 238 374 206 476 q 330 198 271 271 q 469 87 389 125 q 644 49 549 49 z m 715 1304 l 715 1304 q 706 1307 710 1304 q 696 1314 703 1310 l 696 1314 l 478 1501 q 469 1513 471 1508 q 468 1522 468 1517 l 468 1522 q 476 1542 468 1532 q 494 1560 483 1553 q 514 1568 504 1568 l 514 1568 q 524 1565 519 1568 q 535 1556 529 1561 l 535 1556 l 742 1356 q 749 1347 749 1351 q 750 1339 750 1342 l 750 1339 q 738 1317 750 1329 q 715 1304 725 1304 z m 0 -521 l 0 -507 l 1285 -507 l 1285 -521 l 0 -521 z m 0 0 l 0 28 l 1285 28 l 1285 0 l 0 0 z m 0 694 l 0 701 l 1285 701 l 1285 694 l 0 694 z m 0 1215 l 0 1229 l 1285 1229 l 1285 1215 l 0 1215 z "},"Ở":{"ha":1285,"x_min":0,"x_max":1285,"o":"m 644 -26 l 644 -26 q 434 19 529 -26 q 269 147 339 64 q 163 347 200 231 q 125 606 125 464 l 125 606 q 142 783 125 700 q 190 937 158 867 q 269 1063 222 1007 q 373 1157 315 1118 q 499 1216 431 1196 q 644 1236 568 1236 l 644 1236 q 719 1231 683 1236 q 790 1215 756 1226 l 790 1215 q 921 1240 875 1219 q 984 1292 967 1260 q 999 1364 1001 1324 q 983 1450 996 1404 l 983 1450 q 988 1478 979 1467 q 1013 1492 997 1489 q 1042 1490 1028 1496 q 1061 1468 1057 1485 l 1061 1468 q 1080 1372 1078 1419 q 1064 1284 1082 1325 q 1003 1214 1046 1243 q 888 1172 961 1185 l 888 1172 q 1086 952 1013 1099 q 1160 606 1160 806 l 1160 606 q 1143 428 1160 511 q 1094 274 1126 344 q 1017 147 1063 203 q 913 53 971 92 q 788 -6 856 15 q 644 -26 721 -26 z m 644 49 l 644 49 q 764 65 707 49 q 869 116 821 82 q 956 198 918 150 q 1022 308 994 246 q 1065 444 1050 369 q 1079 606 1079 519 l 1079 606 q 1047 838 1079 735 q 956 1013 1015 940 q 818 1124 897 1086 q 644 1163 739 1163 l 644 1163 q 524 1145 581 1163 q 417 1094 467 1128 q 330 1013 368 1061 q 263 903 292 965 q 220 767 235 842 q 206 606 206 692 l 206 606 q 238 374 206 476 q 330 198 271 271 q 469 87 389 125 q 644 49 549 49 z m 656 1606 l 656 1606 q 754 1576 717 1606 q 792 1499 792 1546 l 792 1499 q 775 1442 792 1467 q 719 1390 758 1418 l 719 1390 q 685 1360 693 1372 q 688 1325 678 1347 l 688 1325 l 690 1317 q 688 1297 694 1306 q 669 1284 681 1288 q 645 1283 657 1281 q 629 1294 633 1285 l 629 1294 l 618 1322 q 615 1383 604 1357 q 658 1431 625 1410 l 658 1431 q 699 1463 686 1449 q 711 1496 711 1478 l 711 1496 q 692 1527 711 1515 q 644 1539 672 1539 l 644 1539 q 598 1532 621 1539 q 556 1513 575 1525 l 556 1513 q 517 1525 531 1497 l 517 1525 q 524 1565 504 1549 l 524 1565 q 582 1595 549 1585 q 656 1606 615 1606 z m 0 -521 l 0 -507 l 1285 -507 l 1285 -521 l 0 -521 z m 0 0 l 0 28 l 1285 28 l 1285 0 l 0 0 z m 0 694 l 0 701 l 1285 701 l 1285 694 l 0 694 z m 0 1215 l 0 1229 l 1285 1229 l 1285 1215 l 0 1215 z "},"Ỡ":{"ha":1285,"x_min":0,"x_max":1285,"o":"m 644 -26 l 644 -26 q 434 19 529 -26 q 269 147 339 64 q 163 347 200 231 q 125 606 125 464 l 125 606 q 142 783 125 700 q 190 937 158 867 q 269 1063 222 1007 q 373 1157 315 1118 q 499 1216 431 1196 q 644 1236 568 1236 l 644 1236 q 719 1231 683 1236 q 790 1215 756 1226 l 790 1215 q 921 1240 875 1219 q 984 1292 967 1260 q 999 1364 1001 1324 q 983 1450 996 1404 l 983 1450 q 988 1478 979 1467 q 1013 1492 997 1489 q 1042 1490 1028 1496 q 1061 1468 1057 1485 l 1061 1468 q 1080 1372 1078 1419 q 1064 1284 1082 1325 q 1003 1214 1046 1243 q 888 1172 961 1185 l 888 1172 q 1086 952 1013 1099 q 1160 606 1160 806 l 1160 606 q 1143 428 1160 511 q 1094 274 1126 344 q 1017 147 1063 203 q 913 53 971 92 q 788 -6 856 15 q 644 -26 721 -26 z m 644 49 l 644 49 q 764 65 707 49 q 869 116 821 82 q 956 198 918 150 q 1022 308 994 246 q 1065 444 1050 369 q 1079 606 1079 519 l 1079 606 q 1047 838 1079 735 q 956 1013 1015 940 q 818 1124 897 1086 q 644 1163 739 1163 l 644 1163 q 524 1145 581 1163 q 417 1094 467 1128 q 330 1013 368 1061 q 263 903 292 965 q 220 767 235 842 q 206 606 206 692 l 206 606 q 238 374 206 476 q 330 198 271 271 q 469 87 389 125 q 644 49 549 49 z m 428 1346 l 428 1346 q 396 1375 396 1346 l 396 1375 q 428 1493 399 1453 q 511 1533 458 1533 l 511 1533 q 585 1516 550 1533 q 653 1477 621 1499 q 715 1438 686 1456 q 769 1421 744 1421 l 769 1421 q 808 1444 796 1421 q 822 1511 821 1467 l 822 1511 q 856 1536 825 1536 l 856 1536 q 882 1530 875 1536 q 889 1507 889 1524 l 889 1507 q 857 1392 886 1433 q 769 1350 828 1350 l 769 1350 q 697 1367 732 1350 q 628 1406 661 1385 q 567 1445 596 1428 q 513 1463 538 1463 l 513 1463 q 476 1441 488 1463 q 461 1374 464 1419 l 461 1374 q 452 1352 460 1358 q 428 1346 444 1346 z m 0 -521 l 0 -507 l 1285 -507 l 1285 -521 l 0 -521 z m 0 0 l 0 28 l 1285 28 l 1285 0 l 0 0 z m 0 694 l 0 701 l 1285 701 l 1285 694 l 0 694 z m 0 1215 l 0 1229 l 1285 1229 l 1285 1215 l 0 1215 z "},"Ŕ":{"ha":964,"x_min":0,"x_max":964,"o":"m 235 -19 l 235 -19 q 206 -13 215 -19 q 197 7 197 -7 l 197 7 l 197 1189 q 207 1209 197 1203 q 236 1215 217 1215 l 236 1215 l 464 1215 q 690 1187 600 1215 q 824 1097 779 1158 q 868 936 868 1036 l 868 936 q 849 819 868 871 q 792 727 829 767 q 708 658 756 688 q 603 609 660 629 q 483 578 546 589 q 357 561 421 567 l 357 561 q 527 381 438 471 q 711 206 617 292 q 904 38 806 119 l 904 38 q 916 17 915 29 q 900 -11 917 6 l 900 -11 q 876 -23 888 -24 q 851 -11 864 -22 l 851 -11 q 646 169 747 75 q 451 359 544 263 q 272 550 357 456 l 272 550 l 272 7 q 264 -13 272 -7 q 235 -19 256 -19 z m 272 1146 l 272 621 q 381 628 328 622 q 485 644 435 633 q 582 673 536 656 q 666 715 628 690 q 732 771 704 739 q 775 844 760 803 q 790 936 790 885 l 790 936 q 755 1056 790 1010 q 649 1124 719 1103 q 471 1146 578 1146 l 471 1146 l 272 1146 z m 411 1304 l 411 1304 q 390 1317 403 1304 q 376 1339 376 1329 l 376 1339 q 378 1347 376 1342 q 385 1356 379 1351 l 385 1356 l 593 1556 q 603 1565 599 1561 q 613 1568 607 1568 l 613 1568 q 633 1560 622 1568 q 652 1542 644 1553 q 660 1522 660 1532 l 660 1522 q 658 1513 660 1517 q 649 1501 657 1508 l 649 1501 l 431 1314 q 420 1307 424 1310 q 411 1304 417 1304 z m 0 -521 l 0 -507 l 964 -507 l 964 -521 l 0 -521 z m 0 0 l 0 28 l 964 28 l 964 0 l 0 0 z m 0 694 l 0 701 l 964 701 l 964 694 l 0 694 z m 0 1215 l 0 1229 l 964 1229 l 964 1215 l 0 1215 z "},"Ř":{"ha":964,"x_min":0,"x_max":964,"o":"m 235 -19 l 235 -19 q 206 -13 215 -19 q 197 7 197 -7 l 197 7 l 197 1189 q 207 1209 197 1203 q 236 1215 217 1215 l 236 1215 l 464 1215 q 690 1187 600 1215 q 824 1097 779 1158 q 868 936 868 1036 l 868 936 q 849 819 868 871 q 792 727 829 767 q 708 658 756 688 q 603 609 660 629 q 483 578 546 589 q 357 561 421 567 l 357 561 q 527 381 438 471 q 711 206 617 292 q 904 38 806 119 l 904 38 q 916 17 915 29 q 900 -11 917 6 l 900 -11 q 876 -23 888 -24 q 851 -11 864 -22 l 851 -11 q 646 169 747 75 q 451 359 544 263 q 272 550 357 456 l 272 550 l 272 7 q 264 -13 272 -7 q 235 -19 256 -19 z m 272 1146 l 272 621 q 381 628 328 622 q 485 644 435 633 q 582 673 536 656 q 666 715 628 690 q 732 771 704 739 q 775 844 760 803 q 790 936 790 885 l 790 936 q 755 1056 790 1010 q 649 1124 719 1103 q 471 1146 578 1146 l 471 1146 l 272 1146 z m 700 1568 l 700 1568 q 721 1558 711 1568 q 731 1535 731 1547 l 731 1535 q 730 1528 731 1532 q 724 1518 729 1524 l 724 1518 l 518 1321 q 503 1309 511 1314 q 483 1304 496 1304 l 483 1304 q 464 1309 471 1304 q 449 1321 457 1314 l 449 1321 l 243 1518 q 237 1528 238 1524 q 236 1536 236 1533 l 236 1536 q 247 1558 236 1549 q 267 1568 257 1568 l 267 1568 q 279 1565 274 1568 q 290 1557 285 1561 l 290 1557 l 483 1393 l 676 1557 q 688 1565 683 1561 q 700 1568 693 1568 z m 0 -521 l 0 -507 l 964 -507 l 964 -521 l 0 -521 z m 0 0 l 0 28 l 964 28 l 964 0 l 0 0 z m 0 694 l 0 701 l 964 701 l 964 694 l 0 694 z m 0 1215 l 0 1229 l 964 1229 l 964 1215 l 0 1215 z "},"Ŗ":{"ha":964,"x_min":0,"x_max":964,"o":"m 235 -19 l 235 -19 q 206 -13 215 -19 q 197 7 197 -7 l 197 7 l 197 1189 q 207 1209 197 1203 q 236 1215 217 1215 l 236 1215 l 464 1215 q 690 1187 600 1215 q 824 1097 779 1158 q 868 936 868 1036 l 868 936 q 849 819 868 871 q 792 727 829 767 q 708 658 756 688 q 603 609 660 629 q 483 578 546 589 q 357 561 421 567 l 357 561 q 527 381 438 471 q 711 206 617 292 q 904 38 806 119 l 904 38 q 916 17 915 29 q 900 -11 917 6 l 900 -11 q 876 -23 888 -24 q 851 -11 864 -22 l 851 -11 q 646 169 747 75 q 451 359 544 263 q 272 550 357 456 l 272 550 l 272 7 q 264 -13 272 -7 q 235 -19 256 -19 z m 272 1146 l 272 621 q 381 628 328 622 q 485 644 435 633 q 582 673 536 656 q 666 715 628 690 q 732 771 704 739 q 775 844 760 803 q 790 936 790 885 l 790 936 q 755 1056 790 1010 q 649 1124 719 1103 q 471 1146 578 1146 l 471 1146 l 272 1146 z m 461 -387 l 461 -387 q 444 -372 446 -381 q 451 -344 442 -362 l 451 -344 q 478 -282 468 -310 q 492 -222 488 -254 q 496 -142 496 -190 l 496 -142 q 504 -117 496 -126 q 531 -108 513 -108 l 531 -108 q 562 -119 551 -108 q 572 -147 572 -131 l 572 -147 q 565 -224 572 -185 q 542 -299 557 -262 q 506 -369 526 -336 l 506 -369 q 486 -388 496 -383 q 461 -387 476 -393 z m 0 -521 l 0 -507 l 964 -507 l 964 -521 l 0 -521 z m 0 0 l 0 28 l 964 28 l 964 0 l 0 0 z m 0 694 l 0 701 l 964 701 l 964 694 l 0 694 z m 0 1215 l 0 1229 l 964 1229 l 964 1215 l 0 1215 z "},"Ś":{"ha":956,"x_min":0,"x_max":956,"o":"m 475 -26 l 475 -26 q 368 -16 419 -26 q 270 15 317 -6 q 185 64 224 35 q 117 129 146 93 l 117 129 q 105 153 104 143 q 119 176 106 164 l 119 176 q 142 188 132 189 q 168 171 151 188 l 168 171 q 249 108 203 136 q 351 65 294 81 q 475 49 408 49 l 475 49 q 598 66 543 49 q 691 117 653 83 q 749 199 729 150 q 769 310 769 247 l 769 310 q 747 415 769 372 q 683 489 724 458 q 590 543 642 519 q 479 589 538 567 l 479 589 q 385 631 432 610 q 297 678 339 651 q 224 742 256 706 q 174 828 192 779 q 156 943 156 876 l 156 943 q 182 1067 156 1013 q 254 1159 208 1121 q 362 1217 300 1197 q 493 1236 424 1236 l 493 1236 q 626 1217 567 1236 q 732 1166 685 1199 q 817 1093 779 1133 l 817 1093 q 827 1072 826 1082 q 814 1049 828 1061 l 814 1049 q 791 1037 803 1038 q 767 1046 779 1036 l 767 1046 q 692 1108 731 1082 q 604 1149 653 1135 q 493 1163 556 1163 l 493 1163 q 385 1147 432 1163 q 304 1102 338 1131 q 253 1033 271 1074 q 236 942 236 992 l 236 942 q 257 835 236 878 q 315 762 278 792 q 401 709 353 732 q 504 665 450 686 l 504 665 q 626 613 565 640 q 738 548 688 586 q 819 453 789 510 q 850 311 850 396 l 850 311 q 824 173 850 235 q 747 67 797 111 q 628 -2 697 22 q 475 -26 560 -26 z m 429 1304 l 429 1304 q 407 1317 419 1304 q 394 1339 394 1329 l 394 1339 q 395 1347 394 1342 q 401 1356 396 1351 l 401 1356 l 611 1556 q 621 1565 617 1561 q 631 1568 625 1568 l 631 1568 q 651 1560 640 1568 q 669 1542 663 1553 q 676 1522 676 1532 l 676 1522 q 675 1513 676 1517 q 667 1501 674 1508 l 667 1501 l 447 1314 q 438 1307 442 1310 q 429 1304 433 1304 z m 0 -521 l 0 -507 l 956 -507 l 956 -521 l 0 -521 z m 0 0 l 0 28 l 956 28 l 956 0 l 0 0 z m 0 694 l 0 701 l 956 701 l 956 694 l 0 694 z m 0 1215 l 0 1229 l 956 1229 l 956 1215 l 0 1215 z "},"Š":{"ha":956,"x_min":0,"x_max":956,"o":"m 475 -26 l 475 -26 q 368 -16 419 -26 q 270 15 317 -6 q 185 64 224 35 q 117 129 146 93 l 117 129 q 105 153 104 143 q 119 176 106 164 l 119 176 q 142 188 132 189 q 168 171 151 188 l 168 171 q 249 108 203 136 q 351 65 294 81 q 475 49 408 49 l 475 49 q 598 66 543 49 q 691 117 653 83 q 749 199 729 150 q 769 310 769 247 l 769 310 q 747 415 769 372 q 683 489 724 458 q 590 543 642 519 q 479 589 538 567 l 479 589 q 385 631 432 610 q 297 678 339 651 q 224 742 256 706 q 174 828 192 779 q 156 943 156 876 l 156 943 q 182 1067 156 1013 q 254 1159 208 1121 q 362 1217 300 1197 q 493 1236 424 1236 l 493 1236 q 626 1217 567 1236 q 732 1166 685 1199 q 817 1093 779 1133 l 817 1093 q 827 1072 826 1082 q 814 1049 828 1061 l 814 1049 q 791 1037 803 1038 q 767 1046 779 1036 l 767 1046 q 692 1108 731 1082 q 604 1149 653 1135 q 493 1163 556 1163 l 493 1163 q 385 1147 432 1163 q 304 1102 338 1131 q 253 1033 271 1074 q 236 942 236 992 l 236 942 q 257 835 236 878 q 315 762 278 792 q 401 709 353 732 q 504 665 450 686 l 504 665 q 626 613 565 640 q 738 548 688 586 q 819 453 789 510 q 850 311 850 396 l 850 311 q 824 173 850 235 q 747 67 797 111 q 628 -2 697 22 q 475 -26 560 -26 z m 718 1568 l 718 1568 q 739 1558 729 1568 q 749 1535 749 1547 l 749 1535 q 747 1528 749 1532 q 740 1518 746 1524 l 740 1518 l 536 1321 q 521 1309 528 1314 q 501 1304 514 1304 l 501 1304 q 481 1309 489 1304 q 467 1321 474 1314 l 467 1321 l 261 1518 q 254 1528 256 1524 q 253 1536 253 1533 l 253 1536 q 263 1558 253 1549 q 283 1568 274 1568 l 283 1568 q 296 1565 290 1568 q 307 1557 301 1561 l 307 1557 l 501 1393 l 694 1557 q 706 1565 700 1561 q 718 1568 711 1568 z m 0 -521 l 0 -507 l 956 -507 l 956 -521 l 0 -521 z m 0 0 l 0 28 l 956 28 l 956 0 l 0 0 z m 0 694 l 0 701 l 956 701 l 956 694 l 0 694 z m 0 1215 l 0 1229 l 956 1229 l 956 1215 l 0 1215 z "},"Ş":{"ha":956,"x_min":0,"x_max":956,"o":"m 475 -26 l 475 -26 q 368 -16 419 -26 q 270 15 317 -6 q 185 64 224 35 q 117 129 146 93 l 117 129 q 105 153 104 143 q 119 176 106 164 l 119 176 q 142 188 132 189 q 168 171 151 188 l 168 171 q 249 108 203 136 q 351 65 294 81 q 475 49 408 49 l 475 49 q 598 66 543 49 q 691 117 653 83 q 749 199 729 150 q 769 310 769 247 l 769 310 q 747 415 769 372 q 683 489 724 458 q 590 543 642 519 q 479 589 538 567 l 479 589 q 385 631 432 610 q 297 678 339 651 q 224 742 256 706 q 174 828 192 779 q 156 943 156 876 l 156 943 q 182 1067 156 1013 q 254 1159 208 1121 q 362 1217 300 1197 q 493 1236 424 1236 l 493 1236 q 626 1217 567 1236 q 732 1166 685 1199 q 817 1093 779 1133 l 817 1093 q 827 1072 826 1082 q 814 1049 828 1061 l 814 1049 q 791 1037 803 1038 q 767 1046 779 1036 l 767 1046 q 692 1108 731 1082 q 604 1149 653 1135 q 493 1163 556 1163 l 493 1163 q 385 1147 432 1163 q 304 1102 338 1131 q 253 1033 271 1074 q 236 942 236 992 l 236 942 q 257 835 236 878 q 315 762 278 792 q 401 709 353 732 q 504 665 450 686 l 504 665 q 626 613 565 640 q 738 548 688 586 q 819 453 789 510 q 850 311 850 396 l 850 311 q 824 173 850 235 q 747 67 797 111 q 628 -2 697 22 q 475 -26 560 -26 z m 454 -369 l 454 -369 q 394 -362 432 -369 q 322 -335 357 -356 l 322 -335 q 310 -316 311 -326 q 314 -293 308 -306 l 314 -293 q 330 -278 321 -282 q 351 -281 339 -275 l 351 -281 q 398 -297 372 -289 q 451 -306 424 -306 l 451 -306 q 515 -287 493 -306 q 538 -236 538 -269 l 538 -236 q 510 -187 538 -204 q 425 -178 483 -171 l 425 -178 q 407 -177 414 -179 q 394 -168 400 -175 l 394 -168 q 388 -150 388 -158 q 394 -131 389 -142 l 394 -131 l 453 6 l 514 6 l 447 -149 l 424 -131 q 517 -124 475 -115 q 585 -160 560 -132 q 610 -236 610 -187 l 610 -236 q 591 -306 610 -276 q 538 -353 572 -336 q 454 -369 503 -369 z m 0 -521 l 0 -507 l 956 -507 l 956 -521 l 0 -521 z m 0 0 l 0 28 l 956 28 l 956 0 l 0 0 z m 0 694 l 0 701 l 956 701 l 956 694 l 0 694 z m 0 1215 l 0 1229 l 956 1229 l 956 1215 l 0 1215 z "}}}
